# Blender 5.0.0
# www.blender.org
mtllib Attack_2.mtl
o Attack.002
v 0.069073 1.501054 0.095271
v 0.372661 1.509778 -0.101602
v 0.015465 1.512472 -0.359306
v 0.133399 1.957360 0.555426
v 0.220521 0.392584 -0.472338
v -0.204726 1.581275 -0.276746
v -0.529335 1.425697 -0.023681
v -0.106482 1.413789 0.237364
v -0.483924 0.099079 0.025394
v 0.387476 2.198218 0.515742
v 0.113546 2.219374 0.226166
v -0.468559 2.497756 -0.162479
v -0.395429 2.431298 0.295976
v 0.988525 1.669722 0.950757
v 0.301071 2.690961 0.624261
v 0.350950 2.472029 0.125998
v -0.937665 1.612056 -0.300218
v -0.427240 2.960202 0.226812
v -0.032500 2.482719 -0.101910
v -0.192249 3.036505 -0.222454
vn 0.5462 0.3664 -0.7532
vn 0.5758 0.1858 -0.7962
vn 0.5544 0.3278 -0.7650
vn 0.5266 -0.3320 0.7826
vn 0.5267 -0.3316 0.7827
vn 0.5266 -0.3317 0.7827
vn -0.3732 -0.9251 0.0709
vn -0.9741 -0.1908 0.1210
vn 0.4098 0.4058 0.8169
vn -0.5250 0.0135 0.8510
vn -0.5990 -0.0501 -0.7992
vn 0.9397 -0.2288 -0.2541
vn 0.4481 -0.8401 0.3057
vn 0.5244 0.3489 -0.7767
vn -0.0848 0.6425 -0.7616
vn 0.1629 0.5596 -0.8126
vn -0.3663 -0.9031 -0.2242
vn 0.5068 0.5071 -0.6972
vn 0.6207 0.2704 -0.7359
vn -0.5921 -0.0704 -0.8028
vn 0.6465 0.5016 -0.5749
vn 0.4229 -0.6689 0.6113
vn 0.4235 -0.6698 0.6099
vn 0.4228 -0.6689 0.6114
vn -0.5174 0.1387 0.8444
vn 0.5169 0.4429 0.7325
vn 0.6033 -0.5396 0.5873
vn -0.8927 -0.2901 -0.3448
vn -0.6862 -0.4595 0.5639
vn -0.4969 0.0417 0.8668
vn -0.9064 -0.4129 0.0889
vn -0.7091 -0.2706 0.6511
vn -0.4424 0.0550 0.8951
vn -0.4305 0.0137 0.9025
vn -0.4402 0.0449 0.8968
vn 0.2811 -0.5702 -0.7719
vn -0.7083 -0.2680 0.6530
vn 0.2601 -0.5571 -0.7887
vn 0.8780 -0.4335 -0.2029
vn -0.7438 0.4681 -0.4772
vn -0.7648 0.0381 0.6432
vn 0.1280 0.6320 -0.7643
vn -0.0365 -0.9992 0.0145
vn 0.8416 0.5204 -0.1444
vn 0.2446 0.8965 -0.3694
vn 0.2950 -0.1559 0.9427
vn -0.4516 0.0889 0.8878
vn -0.8091 -0.3380 -0.4806
vn 0.8798 0.1561 -0.4489
vn 0.2030 0.9423 0.2662
vt 0.000056 0.973192
vt 0.313458 0.000056
vt 0.313458 0.999944
vt 0.000060 0.956843
vt 0.359446 0.000060
vt 0.359446 0.999940
vt 0.000060 0.999940
vt 0.052054 0.000060
vt 0.360699 0.999940
vt 0.000057 0.962404
vt 0.323594 0.000057
vt 0.323594 0.999943
vt 0.000046 0.999954
vt 0.000046 0.000046
vt 0.214616 0.849387
vt 0.000052 0.820909
vt 0.265580 0.000052
vt 0.265580 0.999948
vt 0.000066 0.000066
vt 0.436294 0.729113
vt 0.000066 0.999934
vt 0.567514 0.999925
vt 0.000075 0.157312
vt 0.567514 0.000075
vt 0.658684 0.999919
vt 0.000081 0.486796
vt 0.658684 0.000081
vt 0.000071 0.000071
vt 0.508411 0.136289
vt 0.000071 0.999929
vt 0.000091 0.999909
vt 0.157420 0.000091
vt 0.833260 0.999909
vt 0.314859 0.999944
vt 0.000056 0.179294
vt 0.314859 0.000056
vt 0.425774 0.000065
vt 0.425774 0.999935
vt 0.000065 0.653910
vt 0.000086 0.447754
vt 0.733537 0.000086
vt 0.733537 0.999914
vt 0.285537 0.999947
vt 0.000053 0.179753
vt 0.285537 0.000053
vt 0.000048 0.999952
vt 0.000048 0.000048
vt 0.228123 0.062164
vt 0.505367 0.000071
vt 0.505367 0.999929
vt 0.000071 0.772899
vt 0.000051 0.000051
vt 0.259393 0.472928
vt 0.000051 0.999949
vt 0.000052 0.999948
vt 0.000052 0.000052
vt 0.275128 0.769477
vt 0.247171 0.741614
vt 0.000050 0.999950
vt 0.000050 0.000050
vt 0.000088 0.000088
vt 0.779626 0.379419
vt 0.000088 0.999912
vt 0.000056 0.000056
vt 0.315934 0.831222
vt 0.000056 0.999944
vt 0.000049 0.735639
vt 0.244145 0.000049
vt 0.244145 0.999951
vt 0.755865 0.000087
vt 0.755865 0.999913
vt 0.000087 0.088801
vt 0.336202 0.958399
vt 0.000058 0.999942
vt 0.000058 0.000058
vt 0.000052 0.738601
vt 0.271935 0.000052
vt 0.271935 0.999948
vt 0.000047 0.000047
vt 0.218122 0.743572
vt 0.000047 0.999953
vt 0.000083 0.000083
vt 0.687338 0.494446
vt 0.000083 0.999917
vt 0.741153 0.000086
vt 0.741153 0.999914
vt 0.000086 0.418785
vt 0.261963 0.142274
vt 0.345253 0.326865
vt 0.000059 0.999941
vt 0.000059 0.000059
vt 0.000057 0.999943
vt 0.000057 0.000057
vt 0.322888 0.410187
vt 0.000090 0.999910
vt 0.000090 0.000090
vt 0.808379 0.843371
vt 0.000066 0.636525
vt 0.441199 0.000066
vt 0.441199 0.999934
vt 0.000063 0.000063
vt 0.399711 0.773945
vt 0.000063 0.999937
vt 0.000100 0.000100
vt 0.994033 0.000100
vt 0.208613 0.999900
s 1
usemtl Material.012
f 2/1/1 5/2/2 3/3/3
f 1/4/4 5/5/5 2/6/6
f 3/7/7 5/8/8 1/9/9
f 7/10/10 9/11/10 8/12/10
f 6/13/11 9/14/11 7/15/11
f 8/16/12 9/17/12 6/18/12
f 3/19/7 1/20/9 8/21/13
f 11/22/14 3/23/15 6/24/16
f 8/25/17 6/26/17 3/27/17
f 2/28/1 3/29/3 11/30/18
f 11/31/14 6/32/16 12/33/19
f 12/34/20 6/35/20 7/36/20
f 2/37/21 11/38/21 10/39/21
f 1/40/22 2/41/23 4/42/24
f 12/43/25 7/44/25 8/45/25
f 12/46/26 8/47/13 1/48/9
f 2/49/27 10/50/27 4/51/27
f 1/52/28 4/53/29 13/54/30
f 12/55/31 1/56/28 13/57/30
f 10/58/32 11/59/32 14/60/32
f 13/61/33 4/62/34 15/63/35
f 14/64/36 11/65/36 16/66/36
f 10/67/37 14/68/37 15/69/37
f 11/70/38 12/71/38 16/72/38
f 12/73/39 13/74/39 17/75/39
f 12/76/40 17/77/40 18/78/40
f 17/79/41 13/80/41 18/81/41
f 12/82/42 18/83/42 19/84/42
f 16/85/43 12/86/43 19/87/43
f 14/54/44 16/52/44 15/88/44
f 16/89/45 19/90/45 15/91/45
f 15/92/46 4/93/46 10/94/46
f 13/95/33 15/96/35 18/97/47
f 19/98/48 18/99/48 20/100/48
f 15/101/49 19/102/49 20/103/49
f 18/104/50 15/105/50 20/106/50
