# Blender 5.0.0
# www.blender.org
mtllib Attack_1.mtl
o Attack.001
v 0.092385 1.495460 -0.043548
v 0.397906 1.477349 -0.229532
v 0.060712 1.293457 -0.542202
v 0.158615 1.972332 0.269313
v 0.237631 0.137208 -0.343090
v -0.181414 1.575680 -0.415565
v -0.506023 1.420102 -0.162500
v -0.083170 1.408195 0.098545
v -0.483924 0.099079 0.025394
v 0.412691 2.213189 0.229629
v 0.138762 2.234346 -0.059947
v -0.435770 2.492423 -0.337175
v -0.362639 2.425966 0.121281
v 1.071654 1.576682 0.230581
v 0.326287 2.705933 0.338147
v 0.376165 2.487000 -0.160115
v -0.950715 1.515523 -0.205777
v -0.394450 2.954869 0.052117
v 0.000290 2.477386 -0.276605
v -0.159459 3.031172 -0.397149
vn 0.5952 0.2218 -0.7724
vn 0.6857 -0.0204 -0.7276
vn 0.6452 0.1040 -0.7569
vn 0.5164 -0.1336 0.8459
vn 0.5164 -0.1335 0.8459
vn -0.4215 -0.8512 0.3128
vn -0.9836 -0.1291 0.1262
vn 0.6235 0.6708 0.4015
vn -0.5197 0.1118 0.8470
vn -0.5721 -0.1249 -0.8106
vn 0.9262 -0.2687 -0.2645
vn 0.2813 -0.8367 0.4699
vn 0.4263 0.2594 -0.8666
vn 0.0604 0.4513 -0.8903
vn 0.1821 0.3978 -0.8992
vn -0.7706 -0.6345 -0.0594
vn 0.5252 0.3532 -0.7742
vn 0.4999 0.2105 -0.8401
vn -0.5840 -0.0931 -0.8064
vn 0.6871 0.3747 -0.6226
vn 0.4221 -0.5333 0.7331
vn 0.4226 -0.5343 0.7321
vn 0.4219 -0.5332 0.7333
vn -0.5141 0.1706 0.8406
vn 0.5066 0.4581 0.7304
vn 0.5404 -0.4532 0.7089
vn -0.9131 -0.3270 -0.2435
vn -0.5515 -0.3954 0.7345
vn -0.4278 0.0213 0.9036
vn -0.9106 -0.4032 0.0905
vn -0.5948 -0.6150 0.5177
vn -0.3162 0.0438 0.9477
vn -0.2916 -0.0231 0.9562
vn -0.3121 0.0309 0.9495
vn 0.0177 -0.3829 -0.9236
vn -0.2418 -0.2489 0.9378
vn 0.1807 -0.5045 -0.8443
vn 0.8541 -0.4778 -0.2055
vn -0.8395 0.3919 -0.3764
vn -0.5686 0.0729 0.8194
vn 0.1280 0.6320 -0.7643
vn -0.0783 -0.9406 0.3304
vn 0.8164 0.5543 -0.1618
vn 0.0981 0.9147 -0.3921
vn 0.2950 -0.1559 0.9427
vn -0.3362 0.1022 0.9362
vn -0.8091 -0.3380 -0.4806
vn 0.8533 0.1366 -0.5033
vn 0.2159 0.9377 0.2722
vt 0.000056 0.973192
vt 0.313458 0.000056
vt 0.313458 0.999944
vt 0.000060 0.956843
vt 0.359446 0.000060
vt 0.359446 0.999940
vt 0.000060 0.999940
vt 0.052054 0.000060
vt 0.360699 0.999940
vt 0.000057 0.962404
vt 0.323594 0.000057
vt 0.323594 0.999943
vt 0.000046 0.999954
vt 0.000046 0.000046
vt 0.214616 0.849387
vt 0.000052 0.820909
vt 0.265580 0.000052
vt 0.265580 0.999948
vt 0.000066 0.000066
vt 0.436294 0.729113
vt 0.000066 0.999934
vt 0.567514 0.999925
vt 0.000075 0.157312
vt 0.567514 0.000075
vt 0.658684 0.999919
vt 0.000081 0.486796
vt 0.658684 0.000081
vt 0.000071 0.000071
vt 0.508411 0.136289
vt 0.000071 0.999929
vt 0.000091 0.999909
vt 0.157420 0.000091
vt 0.833260 0.999909
vt 0.314859 0.999944
vt 0.000056 0.179294
vt 0.314859 0.000056
vt 0.425774 0.000065
vt 0.425774 0.999935
vt 0.000065 0.653910
vt 0.000086 0.447754
vt 0.733537 0.000086
vt 0.733537 0.999914
vt 0.285537 0.999947
vt 0.000053 0.179753
vt 0.285537 0.000053
vt 0.000048 0.999952
vt 0.000048 0.000048
vt 0.228123 0.062164
vt 0.505367 0.000071
vt 0.505367 0.999929
vt 0.000071 0.772899
vt 0.000051 0.000051
vt 0.259393 0.472928
vt 0.000051 0.999949
vt 0.000052 0.999948
vt 0.000052 0.000052
vt 0.275128 0.769477
vt 0.247171 0.741614
vt 0.000050 0.999950
vt 0.000050 0.000050
vt 0.000088 0.000088
vt 0.779626 0.379419
vt 0.000088 0.999912
vt 0.000056 0.000056
vt 0.315934 0.831222
vt 0.000056 0.999944
vt 0.000049 0.735639
vt 0.244145 0.000049
vt 0.244145 0.999951
vt 0.755865 0.000087
vt 0.755865 0.999913
vt 0.000087 0.088801
vt 0.336202 0.958399
vt 0.000058 0.999942
vt 0.000058 0.000058
vt 0.000052 0.738601
vt 0.271935 0.000052
vt 0.271935 0.999948
vt 0.000047 0.000047
vt 0.218122 0.743572
vt 0.000047 0.999953
vt 0.000083 0.000083
vt 0.687338 0.494446
vt 0.000083 0.999917
vt 0.741153 0.000086
vt 0.741153 0.999914
vt 0.000086 0.418785
vt 0.261963 0.142274
vt 0.345253 0.326865
vt 0.000059 0.999941
vt 0.000059 0.000059
vt 0.000057 0.999943
vt 0.000057 0.000057
vt 0.322888 0.410187
vt 0.000090 0.999910
vt 0.000090 0.000090
vt 0.808379 0.843371
vt 0.000066 0.636525
vt 0.441199 0.000066
vt 0.441199 0.999934
vt 0.000063 0.000063
vt 0.399711 0.773945
vt 0.000063 0.999937
vt 0.000100 0.000100
vt 0.994033 0.000100
vt 0.208613 0.999900
s 1
usemtl Material.008
f 2/1/1 5/2/2 3/3/3
f 1/4/4 5/5/4 2/6/5
f 3/7/6 5/8/7 1/9/8
f 7/10/9 9/11/9 8/12/9
f 6/13/10 9/14/10 7/15/10
f 8/16/11 9/17/11 6/18/11
f 3/19/6 1/20/8 8/21/12
f 11/22/13 3/23/14 6/24/15
f 8/25/16 6/26/16 3/27/16
f 2/28/1 3/29/3 11/30/17
f 11/31/13 6/32/15 12/33/18
f 12/34/19 6/35/19 7/36/19
f 2/37/20 11/38/20 10/39/20
f 1/40/21 2/41/22 4/42/23
f 12/43/24 7/44/24 8/45/24
f 12/46/25 8/47/12 1/48/8
f 2/49/26 10/50/26 4/51/26
f 1/52/27 4/53/28 13/54/29
f 12/55/30 1/56/27 13/57/29
f 10/58/31 11/59/31 14/60/31
f 13/61/32 4/62/33 15/63/34
f 14/64/35 11/65/35 16/66/35
f 10/67/36 14/68/36 15/69/36
f 11/70/37 12/71/37 16/72/37
f 12/73/38 13/74/38 17/75/38
f 12/76/39 17/77/39 18/78/39
f 17/79/40 13/80/40 18/81/40
f 12/82/41 18/83/41 19/84/41
f 16/85/42 12/86/42 19/87/42
f 14/54/43 16/52/43 15/88/43
f 16/89/44 19/90/44 15/91/44
f 15/92/45 4/93/45 10/94/45
f 13/95/32 15/96/34 18/97/46
f 19/98/47 18/99/47 20/100/47
f 15/101/48 19/102/48 20/103/48
f 18/104/49 15/105/49 20/106/49
