# Blender 5.0.1
# www.blender.org
o Hit_Area
v 0.552126 0.007546 -0.011857
v 1.241914 0.007546 -0.011857
v 0.897020 -0.369248 -0.388651
v 0.897020 0.384340 -0.388651
v 0.897020 -0.369248 0.364937
v 0.897020 0.384340 0.364937
v -0.568560 0.007546 -0.011857
v -1.258348 0.007546 -0.011857
v -0.913454 -0.369248 -0.388651
v -0.913454 0.384340 -0.388651
v -0.913454 -0.369248 0.364937
v -0.913454 0.384340 0.364937
vn 0.7376 -0.0000 -0.6752
vn -0.7376 -0.0000 0.6752
vn 0.7376 -0.6752 -0.0000
vn -0.7376 0.6752 -0.0000
vn 0.7376 0.6752 -0.0000
vn -0.7376 -0.6752 -0.0000
vn 0.7376 -0.0000 0.6752
vn -0.7376 -0.0000 -0.6752
vt 0.375000 0.375000
vt 0.625000 0.375000
vt 0.375000 0.500000
vt 0.375000 0.875000
vt 0.625000 0.875000
vt 0.375000 1.000000
vt 0.250000 0.500000
vt 0.375000 0.750000
vt 0.250000 0.750000
vt 0.750000 0.500000
vt 0.875000 0.750000
vt 0.750000 0.750000
vt 0.625000 0.500000
vt 0.125000 0.500000
vt 0.625000 0.750000
vt 0.625000 0.250000
s 0
f 3/1/1 4/2/1 2/3/1
f 5/4/2 6/5/2 1/6/2
f 3/7/3 2/8/3 5/9/3
f 4/10/4 1/11/4 6/12/4
f 2/13/5 4/10/5 6/12/5
f 1/14/6 3/7/6 5/9/6
f 2/15/7 6/5/7 5/4/7
f 1/16/8 4/2/8 3/1/8
f 9/1/8 8/3/8 10/2/8
f 11/4/7 7/6/7 12/5/7
f 9/7/6 11/9/6 8/8/6
f 10/10/5 12/12/5 7/11/5
f 8/13/4 12/12/4 10/10/4
f 7/14/3 11/9/3 9/7/3
f 8/15/2 11/4/2 12/5/2
f 7/16/1 9/1/1 10/2/1
