# Blender 5.0.1
# www.blender.org
o Hull_Triangles
v -1.000000 6.781377 0.440201
v -0.440201 6.781377 1.000000
v -1.000000 6.781377 -0.440201
v -0.440201 6.781377 -1.000000
v 1.000000 6.781377 0.440201
v 0.440201 6.781377 1.000000
v 0.440201 6.781377 -1.000000
v 1.000000 6.781377 -0.440201
v -1.000000 8.234782 0.440201
v -0.440201 8.234782 1.000000
v -0.440201 8.794580 0.440201
v -1.000000 8.234782 -0.440201
v -0.440201 8.794580 -0.440201
v -0.440201 8.234782 -1.000000
v 0.440201 8.234782 -1.000000
v 0.440201 8.794580 -0.440201
v 1.000000 8.234782 -0.440201
v 1.000000 8.234782 0.440201
v 0.440201 8.794580 0.440201
v 0.440201 8.234782 1.000000
v -1.927888 1.959229 0.481095
v -0.737442 -0.107808 0.355597
v -1.184113 1.963298 1.691329
v -1.927888 1.959229 -0.481095
v -1.184113 1.963298 -1.691329
v -0.737442 -0.107808 -0.355597
v 1.927888 1.959229 0.481095
v 1.184113 1.963298 1.691329
v 0.737442 -0.107808 0.355597
v 1.184113 1.963298 -1.691329
v 1.927888 1.959229 -0.481095
v 0.737442 -0.107808 -0.355597
v -1.474896 4.926595 0.260746
v -0.731978 4.922524 1.239725
v -1.015918 6.264988 0.865785
v -1.474896 4.926595 -0.260746
v -1.015917 6.264987 -0.865785
v -0.731978 4.922524 -1.239725
v 1.474896 4.926595 0.260746
v 1.015917 6.264987 0.865785
v 0.731978 4.922524 1.239725
v 0.731978 4.922524 -1.239725
v 1.015917 6.264987 -0.865785
v 1.474896 4.926595 -0.260746
v -1.510098 0.404548 -0.526019
v 1.608094 0.455415 0.393830
v 1.559507 0.419062 -0.428003
v -1.624561 0.398564 -0.003241
v 0.091343 0.479149 -1.039511
v 1.632679 0.411120 -0.020588
v 1.144907 0.418338 0.906907
v -1.561417 0.387899 0.382256
v 0.039844 0.390259 0.962987
v -1.231669 0.402117 0.890023
v 1.205156 0.386970 -0.908947
v -1.104367 0.466103 -0.917428
vn -0.5774 0.5773 0.5773
vn -0.5774 0.5773 -0.5773
vn 0.5774 0.5773 -0.5773
vn 0.5774 0.5773 0.5773
vn -0.7071 0.7071 -0.0000
vn -0.0000 0.7071 -0.7071
vn 0.7071 0.7071 -0.0000
vn -0.0000 0.7071 0.7071
vn 0.7071 -0.0000 -0.7071
vn 0.7071 -0.0000 0.7071
vn -0.7071 -0.0000 0.7071
vn -0.7071 -0.0000 -0.7071
vn -0.0000 -0.0000 1.0000
vn -1.0000 -0.0000 -0.0000
vn -0.0000 -0.0000 -1.0000
vn 1.0000 -0.0000 -0.0000
vn -0.0000 1.0000 -0.0000
vn -0.8275 -0.2362 0.5094
vn -0.6727 -0.1599 -0.7224
vn 0.7351 -0.1940 0.6496
vn 0.8264 -0.2414 -0.5087
vn -0.7966 -0.0001 0.6045
vn -0.7966 -0.0001 -0.6045
vn 0.7966 -0.0001 0.6045
vn 0.7966 -0.0001 -0.6045
vn -0.5289 -0.8394 -0.1254
vn -0.0000 -0.7588 -0.6513
vn 0.5354 -0.8359 0.1211
vn -0.0000 -0.7733 0.6341
vn -0.9459 0.3244 -0.0000
vn -0.0000 0.2683 -0.9633
vn 0.9459 0.3244 -0.0000
vn -0.0000 0.2683 0.9633
vn 0.8341 0.2056 0.5119
vn -0.7855 0.1642 0.5967
vn -0.7855 0.1642 -0.5967
vn 0.7855 0.1642 -0.5967
vn -0.9885 0.1509 -0.0000
vn -0.0000 -1.0000 -0.0000
vn -0.0000 0.1509 0.9886
vn -0.0000 0.1509 -0.9886
vn 0.9885 0.1509 -0.0000
vn -0.9995 0.0308 -0.0000
vn -0.6051 0.5174 0.6051
vn -0.0000 -0.2516 0.9678
vn -0.6051 0.5174 -0.6051
vn -0.0000 -0.2516 -0.9678
vn 0.9995 0.0308 -0.0000
vn 0.6051 0.5174 0.6051
vn 0.6051 0.5174 -0.6051
vn -0.4957 -0.8685 -0.0000
vn -0.0629 -0.7184 -0.6928
vn 0.5015 -0.8652 -0.0000
vn 0.0528 -0.7416 0.6688
vn 0.7855 0.1642 0.5967
vn -0.8341 0.2056 0.5119
vn -0.8341 0.2056 -0.5119
vn 0.8341 0.2056 -0.5119
vn 0.0682 -0.4428 -0.8940
vn -0.9606 -0.2335 0.1509
vn 0.9740 -0.2118 0.0804
vn -0.0000 -0.4021 -0.9156
vn 0.4893 -0.7825 0.3852
vn 0.9559 -0.2347 -0.1763
vn -0.4781 -0.8126 0.3332
vn 0.4936 -0.8127 -0.3095
vn -0.0000 -0.4202 0.9074
vn -0.9457 -0.2481 -0.2099
vn -0.0553 -0.4546 0.8890
vn -0.8146 -0.2236 0.5352
vn -0.8118 -0.3017 -0.4999
vn 0.8183 -0.2766 0.5038
vn 0.7938 -0.2095 -0.5709
vn 0.0151 -0.7517 -0.6594
vn -0.0452 -0.7433 0.6674
vn -0.5131 -0.8562 0.0604
vn 0.5293 -0.8411 -0.1114
vn 0.9823 -0.1873 -0.0000
vn -0.3884 -0.7594 -0.5220
vn -0.0852 -0.4611 -0.8833
vn 0.0567 -0.4531 0.8896
vn -0.9816 -0.1908 -0.0000
vt 0.000000 0.000000
vt 1.000000 0.000000
vt 1.000000 1.000000
vt 1.000000 0.499964
vt 0.589199 0.495081
vt 1.000000 0.481366
vt 0.770580 0.452088
vt 0.468734 0.468734
vt 0.501997 0.501997
vt 0.507164 0.000000
vt 0.500000 0.500000
vt 0.552801 0.000000
vt 0.514444 0.000000
vt 0.531266 0.531266
vt 0.501362 0.000000
vt 0.507164 0.507164
vt 0.518634 0.000000
vt 0.552801 0.552801
vt 0.514444 0.514444
vt 0.502676 0.000000
vt 0.501362 0.501362
vt 1.000000 0.501997
vt 1.000000 0.500980
vt 1.000000 0.497324
vt 1.000000 0.505243
vt 0.499020 0.000000
vt 1.000000 0.494757
vt 1.000000 0.500036
s 0
f 9/1/1 10/2/1 11/3/1
f 12/1/2 13/2/2 14/3/2
f 15/1/3 16/2/3 17/3/3
f 18/1/4 19/2/4 20/3/4
f 13/1/5 9/2/5 11/3/5
f 16/1/6 14/2/6 13/3/6
f 19/1/7 17/2/7 16/3/7
f 11/1/8 20/2/8 19/3/8
f 15/1/9 8/2/9 7/3/9
f 6/1/10 18/2/10 20/3/10
f 10/1/11 1/2/11 2/3/11
f 4/1/12 12/2/12 14/3/12
f 6/1/13 10/2/13 2/3/13
f 1/1/14 12/2/14 3/3/14
f 4/1/15 15/2/15 7/3/15
f 8/1/16 18/2/16 5/3/16
f 13/1/17 19/2/17 16/3/17
f 21/1/18 54/4/18 23/3/18
f 45/5/19 24/1/19 56/6/19
f 27/1/20 51/7/20 46/8/20
f 31/2/21 55/9/21 30/1/21
f 33/1/22 34/2/22 35/3/22
f 36/1/23 37/2/23 38/3/23
f 39/1/24 40/2/24 41/3/24
f 42/1/25 43/2/25 44/3/25
f 26/1/26 48/10/26 45/11/26
f 49/12/27 32/3/27 26/1/27
f 29/1/28 50/13/28 46/14/28
f 53/15/29 22/3/29 29/1/29
f 33/1/30 37/2/30 36/3/30
f 38/1/31 43/2/31 42/3/31
f 39/1/32 43/2/32 40/3/32
f 34/1/33 40/2/33 35/3/33
f 27/1/34 41/2/34 28/3/34
f 21/1/35 34/2/35 33/3/35
f 38/1/36 24/2/36 36/3/36
f 31/1/37 42/2/37 44/3/37
f 33/1/38 24/2/38 21/3/38
f 32/1/39 22/2/39 26/3/39
f 41/1/40 23/2/40 28/3/40
f 38/1/41 30/2/41 25/3/41
f 44/1/42 27/2/42 31/3/42
f 1/1/43 37/2/43 35/3/43
f 1/1/44 35/2/44 2/3/44
f 2/1/45 40/2/45 6/3/45
f 3/1/46 4/2/46 37/3/46
f 4/1/47 43/2/47 37/3/47
f 5/1/48 43/2/48 8/3/48
f 5/1/49 6/2/49 40/3/49
f 7/1/50 8/2/50 43/3/50
f 13/1/5 12/2/5 9/3/5
f 16/1/6 15/2/6 14/3/6
f 19/1/7 18/2/7 17/3/7
f 11/1/8 10/2/8 20/3/8
f 15/1/9 17/2/9 8/3/9
f 6/1/10 5/2/10 18/3/10
f 10/1/11 9/2/11 1/3/11
f 4/1/12 3/2/12 12/3/12
f 6/1/13 20/2/13 10/3/13
f 1/1/14 9/2/14 12/3/14
f 4/1/15 14/2/15 15/3/15
f 8/1/16 17/2/16 18/3/16
f 13/1/17 11/2/17 19/3/17
f 22/2/51 48/16/51 26/1/51
f 26/1/52 56/17/52 49/18/52
f 32/2/53 50/19/53 29/1/53
f 29/1/54 51/20/54 53/21/54
f 33/1/30 35/2/30 37/3/30
f 38/1/31 37/2/31 43/3/31
f 39/1/32 44/2/32 43/3/32
f 34/1/33 41/2/33 40/3/33
f 27/1/55 39/2/55 41/3/55
f 21/1/56 23/2/56 34/3/56
f 38/1/57 25/2/57 24/3/57
f 31/1/58 30/2/58 42/3/58
f 33/1/38 36/2/38 24/3/38
f 32/1/39 29/2/39 22/3/39
f 41/1/40 34/2/40 23/3/40
f 38/1/41 42/2/41 30/3/41
f 44/1/42 39/2/42 27/3/42
f 1/1/43 3/2/43 37/3/43
f 2/1/45 35/2/45 40/3/45
f 4/1/47 7/2/47 43/3/47
f 5/1/48 40/2/48 43/3/48
f 55/22/59 49/12/59 30/2/59
f 48/16/60 52/23/60 21/3/60
f 50/13/61 27/3/61 46/14/61
f 49/18/62 25/2/62 30/3/62
f 46/8/63 51/24/63 29/3/63
f 50/19/64 47/25/64 31/3/64
f 54/4/65 52/26/65 22/2/65
f 55/9/66 47/27/66 32/3/66
f 53/21/67 28/2/67 23/3/67
f 48/10/68 24/3/68 45/11/68
f 54/28/69 53/15/69 23/2/69
f 21/1/70 52/26/70 54/4/70
f 24/1/71 25/2/71 56/6/71
f 27/1/72 28/2/72 51/7/72
f 31/2/73 47/27/73 55/9/73
f 49/12/74 55/22/74 32/3/74
f 53/15/75 54/28/75 22/3/75
f 22/2/76 52/23/76 48/16/76
f 32/2/77 47/25/77 50/19/77
f 50/13/78 31/2/78 27/3/78
f 45/5/79 56/6/79 26/3/79
f 49/18/80 56/17/80 25/2/80
f 53/21/81 51/20/81 28/2/81
f 48/10/82 21/2/82 24/3/82
