# Blender 5.1.0
# www.blender.org
o Rigid_Body_Hull_Simpler_Triangles
v -1.233837 0.867695 2.202731
v -1.200024 15.277434 -0.255245
v -1.233837 0.867695 0.456339
v -1.200024 15.277434 -1.956763
v 1.397972 0.867695 2.202731
v 1.364159 15.277434 -0.255245
v 1.397972 0.867695 0.456339
v 1.364159 15.277434 -1.956763
v -0.705140 7.954854 0.401743
v -0.705140 7.954855 -0.642993
v 0.869275 7.954855 -0.642993
v 0.869275 7.954855 0.401743
v -0.622407 15.629976 -0.638535
v -0.622407 15.629976 -1.573473
v 0.786542 15.629976 -1.573473
v 0.786542 15.629976 -0.638535
v -0.810978 0.472322 0.736936
v -0.810978 0.472322 1.922134
v 0.975113 0.472322 0.736936
v 0.975113 0.472322 1.922134
vn -0.9977 -0.0674 -0.0000
vn -0.0000 -0.1766 -0.9843
vn 0.9977 -0.0674 -0.0000
vn -0.0000 0.0894 0.9960
vn -0.0000 -0.5788 -0.8155
vn -0.5210 0.8536 -0.0000
vn -0.0000 0.2463 0.9692
vn 0.9972 0.0744 -0.0000
vn -0.0000 -0.1533 -0.9882
vn -0.9972 0.0744 -0.0000
vn -0.0000 1.0000 -0.0000
vn -0.0000 0.7360 0.6770
vn -0.0000 0.7360 -0.6770
vn 0.5210 0.8536 -0.0000
vn -0.0000 -1.0000 -0.0000
vn -0.6830 -0.7304 -0.0000
vn 0.6830 -0.7304 -0.0000
vn -0.0000 -0.5788 0.8155
vt 0.000000 0.000000
vt 1.000000 0.000000
vt 1.000000 1.000000
s 0
f 2/1/1 10/2/1 9/3/1
f 4/1/2 11/2/2 10/3/2
f 11/1/3 6/2/3 12/3/3
f 12/1/4 2/2/4 9/3/4
f 7/1/5 17/2/5 3/3/5
f 2/1/6 14/2/6 4/3/6
f 5/1/7 9/2/7 1/3/7
f 7/1/8 12/2/8 5/3/8
f 10/1/9 7/2/9 3/3/9
f 9/1/10 3/2/10 1/3/10
f 14/1/11 16/2/11 15/3/11
f 6/1/12 13/2/12 2/3/12
f 4/1/13 15/2/13 8/3/13
f 8/1/14 16/2/14 6/3/14
f 19/1/15 18/2/15 17/3/15
f 3/1/16 18/2/16 1/3/16
f 5/1/17 19/2/17 7/3/17
f 1/1/18 20/2/18 5/3/18
f 2/1/1 4/2/1 10/3/1
f 4/1/2 8/2/2 11/3/2
f 11/1/3 8/2/3 6/3/3
f 12/1/4 6/2/4 2/3/4
f 7/1/5 19/2/5 17/3/5
f 2/1/6 13/2/6 14/3/6
f 5/1/7 12/2/7 9/3/7
f 7/1/8 11/2/8 12/3/8
f 10/1/9 11/2/9 7/3/9
f 9/1/10 10/2/10 3/3/10
f 14/1/11 13/2/11 16/3/11
f 6/1/12 16/2/12 13/3/12
f 4/1/13 14/2/13 15/3/13
f 8/1/14 15/2/14 16/3/14
f 19/1/15 20/2/15 18/3/15
f 3/1/16 17/2/16 18/3/16
f 5/1/17 20/2/17 19/3/17
f 1/1/18 18/2/18 20/3/18
