# Blender 5.0.0
# www.blender.org
mtllib Frame_0.mtl
o Cube.001
v 0.145876 1.372658 0.418088
v 0.452390 1.354547 0.233746
v 0.116879 1.170655 -0.080729
v 0.167781 1.841175 -0.015645
v 0.421926 -0.047431 0.629227
v -0.095795 1.471721 -0.283935
v -0.421759 1.316143 -0.032616
v -0.000313 1.304236 0.230695
v -0.324350 0.213483 -0.683070
v 0.422067 2.082032 -0.053964
v 0.149695 2.103189 -0.345007
v -0.337077 2.353218 -0.220994
v -0.273627 2.271191 0.237851
v 1.209749 1.451505 -0.685808
v 0.360049 2.525635 -0.000524
v 0.387633 2.355844 -0.443899
v -0.858326 1.370218 0.390401
v -0.313537 2.756034 0.002068
v 0.068787 2.334471 -0.000235
v -0.055382 2.880287 -0.395377
vn 0.7269 -0.2057 -0.6552
vn 0.7263 -0.2012 -0.6573
vn 0.7269 -0.2058 -0.6552
vn 0.5189 0.2222 0.8254
vn 0.5189 0.2214 0.8257
vn 0.5189 0.2218 0.8256
vn -0.3411 -0.7695 0.5399
vn -0.9768 -0.1658 0.1356
vn -0.5488 0.6554 0.5190
vn -0.4751 -0.4778 0.7389
vn -0.6702 0.3323 -0.6636
vn 0.9706 -0.1080 -0.2152
vn -0.6536 -0.6991 -0.2900
vn -0.1171 -0.0520 -0.9918
vn 0.4511 -0.2580 -0.8544
vn 0.2984 -0.2044 -0.9323
vn -0.8012 -0.5967 -0.0455
vn 0.7275 -0.2107 -0.6530
vn -0.2460 0.0019 -0.9693
vn -0.5771 -0.1001 -0.8105
vn 0.7007 -0.2369 -0.6730
vn 0.4436 0.6031 0.6630
vn 0.4449 0.6014 0.6636
vn 0.4448 0.6015 0.6636
vn -0.5159 0.1937 0.8345
vn -0.7257 0.0614 0.6853
vn -0.1970 0.3535 0.9145
vn -0.3975 0.4032 0.8243
vn 0.7332 0.4497 0.5102
vn -0.2101 -0.1757 0.9618
vn -0.9282 -0.3669 0.0620
vn -0.4161 -0.8482 0.3277
vn 0.2845 0.1742 0.9427
vn 0.3947 -0.1310 0.9094
vn 0.3016 0.1321 0.9442
vn -0.3349 -0.0528 -0.9408
vn 0.6221 -0.0073 0.7829
vn -0.2923 -0.0971 -0.9514
vn 0.8033 -0.5570 -0.2107
vn -0.8981 0.2521 -0.3604
vn -0.3675 0.3821 0.8479
vn 0.4499 0.4124 -0.7922
vn 0.0143 0.9982 0.0584
vn 0.6917 0.6878 -0.2203
vn -0.5174 0.7879 -0.3339
vn 0.2269 -0.0852 0.9702
vn 0.1547 0.4423 0.8834
vn -0.6107 -0.5508 -0.5689
vn 0.3295 -0.5033 -0.7988
vn 0.2902 0.8434 0.4522
vt 0.000056 0.973192
vt 0.313458 0.000056
vt 0.313458 0.999944
vt 0.000060 0.956843
vt 0.359446 0.000060
vt 0.359446 0.999940
vt 0.000060 0.999940
vt 0.052054 0.000060
vt 0.360699 0.999940
vt 0.000057 0.962404
vt 0.323594 0.000057
vt 0.323594 0.999943
vt 0.000046 0.999954
vt 0.000046 0.000046
vt 0.214616 0.849387
vt 0.000052 0.820909
vt 0.265580 0.000052
vt 0.265580 0.999948
vt 0.000066 0.000066
vt 0.436294 0.729113
vt 0.000066 0.999934
vt 0.567514 0.999925
vt 0.000075 0.157312
vt 0.567514 0.000075
vt 0.658684 0.999919
vt 0.000081 0.486796
vt 0.658684 0.000081
vt 0.000071 0.000071
vt 0.508411 0.136289
vt 0.000071 0.999929
vt 0.000091 0.999909
vt 0.157420 0.000091
vt 0.833260 0.999909
vt 0.314859 0.999944
vt 0.000056 0.179294
vt 0.314859 0.000056
vt 0.425774 0.000065
vt 0.425774 0.999935
vt 0.000065 0.653910
vt 0.000086 0.447754
vt 0.733537 0.000086
vt 0.733537 0.999914
vt 0.285537 0.999947
vt 0.000053 0.179753
vt 0.285537 0.000053
vt 0.000048 0.999952
vt 0.000048 0.000048
vt 0.228123 0.062164
vt 0.505367 0.000071
vt 0.505367 0.999929
vt 0.000071 0.772899
vt 0.000051 0.000051
vt 0.259393 0.472928
vt 0.000051 0.999949
vt 0.000052 0.999948
vt 0.000052 0.000052
vt 0.275128 0.769477
vt 0.247171 0.741614
vt 0.000050 0.999950
vt 0.000050 0.000050
vt 0.000088 0.000088
vt 0.779626 0.379419
vt 0.000088 0.999912
vt 0.000056 0.000056
vt 0.315934 0.831222
vt 0.000056 0.999944
vt 0.000049 0.735639
vt 0.244145 0.000049
vt 0.244145 0.999951
vt 0.755865 0.000087
vt 0.755865 0.999913
vt 0.000087 0.088801
vt 0.336202 0.958399
vt 0.000058 0.999942
vt 0.000058 0.000058
vt 0.000052 0.738601
vt 0.271935 0.000052
vt 0.271935 0.999948
vt 0.000047 0.000047
vt 0.218122 0.743572
vt 0.000047 0.999953
vt 0.000083 0.000083
vt 0.687338 0.494446
vt 0.000083 0.999917
vt 0.741153 0.000086
vt 0.741153 0.999914
vt 0.000086 0.418785
vt 0.261963 0.142274
vt 0.345253 0.326865
vt 0.000059 0.999941
vt 0.000059 0.000059
vt 0.000057 0.999943
vt 0.000057 0.000057
vt 0.322888 0.410187
vt 0.000090 0.999910
vt 0.000090 0.000090
vt 0.808379 0.843371
vt 0.000066 0.636525
vt 0.441199 0.000066
vt 0.441199 0.999934
vt 0.000063 0.000063
vt 0.399711 0.773945
vt 0.000063 0.999937
vt 0.000100 0.000100
vt 0.994033 0.000100
vt 0.208613 0.999900
s 1
usemtl Material.002
f 2/1/1 5/2/2 3/3/3
f 1/4/4 5/5/5 2/6/6
f 3/7/7 5/8/8 1/9/9
f 7/10/10 9/11/10 8/12/10
f 6/13/11 9/14/11 7/15/11
f 8/16/12 9/17/12 6/18/12
f 3/19/7 1/20/9 8/21/13
f 11/22/14 3/23/15 6/24/16
f 8/25/17 6/26/17 3/27/17
f 2/28/1 3/29/3 11/30/18
f 11/31/14 6/32/16 12/33/19
f 12/34/20 6/35/20 7/36/20
f 2/37/21 11/38/21 10/39/21
f 1/40/22 2/41/23 4/42/24
f 12/43/25 7/44/25 8/45/25
f 12/46/26 8/47/13 1/48/9
f 2/49/27 10/50/27 4/51/27
f 1/52/28 4/53/29 13/54/30
f 12/55/31 1/56/28 13/57/30
f 10/58/32 11/59/32 14/60/32
f 13/61/33 4/62/34 15/63/35
f 14/64/36 11/65/36 16/66/36
f 10/67/37 14/68/37 15/69/37
f 11/70/38 12/71/38 16/72/38
f 12/73/39 13/74/39 17/75/39
f 12/76/40 17/77/40 18/78/40
f 17/79/41 13/80/41 18/81/41
f 12/82/42 18/83/42 19/84/42
f 16/85/43 12/86/43 19/87/43
f 14/54/44 16/52/44 15/88/44
f 16/89/45 19/90/45 15/91/45
f 15/92/46 4/93/46 10/94/46
f 13/95/33 15/96/35 18/97/47
f 19/98/48 18/99/48 20/100/48
f 15/101/49 19/102/49 20/103/49
f 18/104/50 15/105/50 20/106/50
