# Blender 5.0.0
# www.blender.org
mtllib Frame_3.mtl
o Cube.004
v 0.170723 1.265287 0.172698
v 0.476458 1.266669 0.004209
v 0.149462 1.322483 -0.314853
v 0.167781 1.841175 -0.015645
v 0.327596 -0.106958 0.159799
v -0.065394 1.343448 -0.357437
v -0.354016 1.325262 0.002755
v 0.026254 1.289895 0.153263
v -0.284578 -0.102892 -0.273021
v 0.473917 2.007966 0.019284
v 0.163202 2.033831 -0.281236
v -0.382776 2.199415 -0.390046
v -0.344821 2.057748 0.079306
v 1.076107 1.275351 -0.088553
v 0.419315 2.173693 0.115253
v 0.413055 2.110058 -0.236498
v -0.898877 1.377099 -0.200081
v -0.388884 2.431347 -0.129448
v 0.042739 2.269685 -0.139541
v -0.118309 2.754995 -0.404786
vn 0.6872 -0.0925 -0.7205
vn 0.6763 -0.1549 -0.7202
vn 0.6929 -0.0518 -0.7192
vn 0.4890 0.0466 0.8711
vn 0.4889 0.0455 0.8712
vn 0.4889 0.0460 0.8711
vn -0.4367 -0.8504 0.2933
vn -0.9931 -0.1102 0.0402
vn -0.7390 0.3878 0.5509
vn -0.3766 -0.1933 0.9060
vn -0.7798 0.0819 -0.6207
vn 0.9689 -0.1579 -0.1904
vn -0.4108 -0.8825 0.2292
vn 0.2095 0.0371 -0.9771
vn 0.1982 0.0424 -0.9792
vn 0.1967 0.0433 -0.9795
vn -0.0791 -0.9928 -0.0899
vn 0.7000 0.0202 -0.7139
vn 0.2068 0.0394 -0.9776
vn -0.7379 -0.2967 -0.6062
vn 0.6958 0.0170 -0.7180
vn 0.4684 0.2832 0.8369
vn 0.4695 0.2816 0.8368
vn 0.4691 0.2821 0.8369
vn -0.3093 0.3813 0.8712
vn 0.0744 0.5283 0.8458
vn -0.1023 -0.0206 0.9945
vn -0.8781 -0.2523 0.4066
vn 0.2978 0.3060 0.9043
vn -0.2645 -0.1423 0.9538
vn -0.8564 -0.5091 -0.0856
vn -0.5944 -0.5718 0.5654
vn -0.0836 0.2603 0.9619
vn 0.0133 -0.3749 0.9270
vn -0.0408 -0.0473 0.9980
vn 0.1844 -0.0277 -0.9825
vn -0.5521 -0.5465 0.6296
vn 0.1858 -0.0327 -0.9820
vn 0.7988 -0.5550 -0.2321
vn -0.8167 0.4215 -0.3943
vn -0.6900 0.2893 0.6635
vn 0.2566 0.7250 -0.6392
vn 0.1987 0.8025 -0.5626
vn 0.7876 0.6038 -0.1232
vn 0.3514 0.9201 -0.1727
vn 0.1496 -0.4581 0.8762
vn -0.1131 0.4745 0.8730
vn -0.2149 -0.5223 -0.8252
vn 0.4844 -0.2903 -0.8253
vn -0.0188 0.6569 0.7537
vt 0.000056 0.973192
vt 0.313458 0.000056
vt 0.313458 0.999944
vt 0.000060 0.956843
vt 0.359446 0.000060
vt 0.359446 0.999940
vt 0.000060 0.999940
vt 0.052054 0.000060
vt 0.360699 0.999940
vt 0.000057 0.962404
vt 0.323594 0.000057
vt 0.323594 0.999943
vt 0.000046 0.999954
vt 0.000046 0.000046
vt 0.214616 0.849387
vt 0.000052 0.820909
vt 0.265580 0.000052
vt 0.265580 0.999948
vt 0.000066 0.000066
vt 0.436294 0.729113
vt 0.000066 0.999934
vt 0.567514 0.999925
vt 0.000075 0.157312
vt 0.567514 0.000075
vt 0.658684 0.999919
vt 0.000081 0.486796
vt 0.658684 0.000081
vt 0.000071 0.000071
vt 0.508411 0.136289
vt 0.000071 0.999929
vt 0.000091 0.999909
vt 0.157420 0.000091
vt 0.833260 0.999909
vt 0.314859 0.999944
vt 0.000056 0.179294
vt 0.314859 0.000056
vt 0.425774 0.000065
vt 0.425774 0.999935
vt 0.000065 0.653910
vt 0.000086 0.447754
vt 0.733537 0.000086
vt 0.733537 0.999914
vt 0.285537 0.999947
vt 0.000053 0.179753
vt 0.285537 0.000053
vt 0.000048 0.999952
vt 0.000048 0.000048
vt 0.228123 0.062164
vt 0.505367 0.000071
vt 0.505367 0.999929
vt 0.000071 0.772899
vt 0.000051 0.000051
vt 0.259393 0.472928
vt 0.000051 0.999949
vt 0.000052 0.999948
vt 0.000052 0.000052
vt 0.275128 0.769477
vt 0.247171 0.741614
vt 0.000050 0.999950
vt 0.000050 0.000050
vt 0.000088 0.000088
vt 0.779626 0.379419
vt 0.000088 0.999912
vt 0.000056 0.000056
vt 0.315934 0.831222
vt 0.000056 0.999944
vt 0.000049 0.735639
vt 0.244145 0.000049
vt 0.244145 0.999951
vt 0.755865 0.000087
vt 0.755865 0.999913
vt 0.000087 0.088801
vt 0.336202 0.958399
vt 0.000058 0.999942
vt 0.000058 0.000058
vt 0.000052 0.738601
vt 0.271935 0.000052
vt 0.271935 0.999948
vt 0.000047 0.000047
vt 0.218122 0.743572
vt 0.000047 0.999953
vt 0.000083 0.000083
vt 0.687338 0.494446
vt 0.000083 0.999917
vt 0.741153 0.000086
vt 0.741153 0.999914
vt 0.000086 0.418785
vt 0.261963 0.142274
vt 0.345253 0.326865
vt 0.000059 0.999941
vt 0.000059 0.000059
vt 0.000057 0.999943
vt 0.000057 0.000057
vt 0.322888 0.410187
vt 0.000090 0.999910
vt 0.000090 0.000090
vt 0.808379 0.843371
vt 0.000066 0.636525
vt 0.441199 0.000066
vt 0.441199 0.999934
vt 0.000063 0.000063
vt 0.399711 0.773945
vt 0.000063 0.999937
vt 0.000100 0.000100
vt 0.994033 0.000100
vt 0.208613 0.999900
s 1
usemtl Material.006
f 2/1/1 5/2/2 3/3/3
f 1/4/4 5/5/5 2/6/6
f 3/7/7 5/8/8 1/9/9
f 7/10/10 9/11/10 8/12/10
f 6/13/11 9/14/11 7/15/11
f 8/16/12 9/17/12 6/18/12
f 3/19/7 1/20/9 8/21/13
f 11/22/14 3/23/15 6/24/16
f 8/25/17 6/26/17 3/27/17
f 2/28/1 3/29/3 11/30/18
f 11/31/14 6/32/16 12/33/19
f 12/34/20 6/35/20 7/36/20
f 2/37/21 11/38/21 10/39/21
f 1/40/22 2/41/23 4/42/24
f 12/43/25 7/44/25 8/45/25
f 12/46/26 8/47/13 1/48/9
f 2/49/27 10/50/27 4/51/27
f 1/52/28 4/53/29 13/54/30
f 12/55/31 1/56/28 13/57/30
f 10/58/32 11/59/32 14/60/32
f 13/61/33 4/62/34 15/63/35
f 14/64/36 11/65/36 16/66/36
f 10/67/37 14/68/37 15/69/37
f 11/70/38 12/71/38 16/72/38
f 12/73/39 13/74/39 17/75/39
f 12/76/40 17/77/40 18/78/40
f 17/79/41 13/80/41 18/81/41
f 12/82/42 18/83/42 19/84/42
f 16/85/43 12/86/43 19/87/43
f 14/54/44 16/52/44 15/88/44
f 16/89/45 19/90/45 15/91/45
f 15/92/46 4/93/46 10/94/46
f 13/95/33 15/96/35 18/97/47
f 19/98/48 18/99/48 20/100/48
f 15/101/49 19/102/49 20/103/49
f 18/104/50 15/105/50 20/106/50
