# Blender 5.0.0
# www.blender.org
mtllib Frame_2.mtl
o Cube.003
v 0.173422 1.272861 0.131124
v 0.479157 1.274243 -0.037364
v 0.152160 1.330057 -0.356426
v 0.167781 1.841175 -0.015645
v 0.386203 0.019653 -0.750787
v -0.054469 1.347297 -0.257456
v -0.343091 1.329112 0.102737
v 0.037179 1.293745 0.253245
v -0.240781 0.087537 0.521205
v 0.451247 2.027445 0.084026
v 0.163202 2.033831 -0.281236
v -0.382776 2.199415 -0.390046
v -0.308068 2.167512 0.027117
v 1.114414 1.314172 0.363793
v 0.433398 2.302937 0.127806
v 0.427138 2.239302 -0.223945
v -0.853507 1.475628 -0.667387
v -0.352130 2.541112 -0.181637
v 0.071729 2.373042 -0.118499
v -0.044487 2.756660 -0.434313
vn 0.7008 0.2113 -0.6813
vn 0.6892 0.3189 -0.6506
vn 0.7020 0.1905 -0.6862
vn 0.4344 -0.4707 0.7679
vn 0.4347 -0.4695 0.7685
vn 0.4346 -0.4698 0.7684
vn -0.4367 -0.8937 -0.1029
vn -0.9823 -0.1848 0.0320
vn -0.6426 0.0709 0.7630
vn -0.3313 0.2767 0.9020
vn -0.7454 -0.2673 -0.6107
vn 0.9449 -0.2615 -0.1970
vn 0.6927 -0.5447 0.4728
vn 0.0739 -0.0593 -0.9955
vn -0.4227 0.1028 -0.9004
vn -0.2392 0.0427 -0.9700
vn -0.1217 -0.9892 -0.0819
vn 0.7025 0.0647 -0.7087
vn 0.1691 -0.0876 -0.9817
vn -0.7164 -0.3682 -0.5926
vn 0.7799 0.1277 -0.6128
vn 0.4752 0.2308 0.8491
vn 0.4762 0.2293 0.8489
vn 0.4758 0.2299 0.8490
vn -0.2890 0.4617 0.8386
vn 0.6466 0.6152 0.4511
vn -0.2301 -0.1631 0.9594
vn -0.8955 -0.2659 0.3569
vn 0.2565 0.2514 0.9333
vn -0.2232 0.0737 0.9720
vn -0.9013 -0.4128 0.1313
vn -0.7080 -0.4423 0.5506
vn -0.1717 0.2317 0.9575
vn -0.0852 -0.2506 0.9643
vn -0.1387 0.0177 0.9902
vn 0.3964 -0.2641 -0.8793
vn -0.5299 -0.1665 0.8316
vn 0.2001 0.0161 -0.9796
vn 0.8547 -0.4831 -0.1900
vn -0.3216 0.5139 -0.7953
vn -0.8516 0.1756 0.4939
vn 0.3108 0.4745 -0.8236
vn 0.0947 0.7592 -0.6439
vn 0.8307 0.5451 -0.1134
vn 0.3009 0.9375 -0.1750
vn -0.2275 -0.1672 0.9593
vn -0.2014 0.4596 0.8650
vn -0.1494 -0.6550 -0.7407
vn 0.4204 -0.4974 -0.7589
vn -0.0171 0.7709 0.6368
vt 0.000056 0.973192
vt 0.313458 0.000056
vt 0.313458 0.999944
vt 0.000060 0.956843
vt 0.359446 0.000060
vt 0.359446 0.999940
vt 0.000060 0.999940
vt 0.052054 0.000060
vt 0.360699 0.999940
vt 0.000057 0.962404
vt 0.323594 0.000057
vt 0.323594 0.999943
vt 0.000046 0.999954
vt 0.000046 0.000046
vt 0.214616 0.849387
vt 0.000052 0.820909
vt 0.265580 0.000052
vt 0.265580 0.999948
vt 0.000066 0.000066
vt 0.436294 0.729113
vt 0.000066 0.999934
vt 0.567514 0.999925
vt 0.000075 0.157312
vt 0.567514 0.000075
vt 0.658684 0.999919
vt 0.000081 0.486796
vt 0.658684 0.000081
vt 0.000071 0.000071
vt 0.508411 0.136289
vt 0.000071 0.999929
vt 0.000091 0.999909
vt 0.157420 0.000091
vt 0.833260 0.999909
vt 0.314859 0.999944
vt 0.000056 0.179294
vt 0.314859 0.000056
vt 0.425774 0.000065
vt 0.425774 0.999935
vt 0.000065 0.653910
vt 0.000086 0.447754
vt 0.733537 0.000086
vt 0.733537 0.999914
vt 0.285537 0.999947
vt 0.000053 0.179753
vt 0.285537 0.000053
vt 0.000048 0.999952
vt 0.000048 0.000048
vt 0.228123 0.062164
vt 0.505367 0.000071
vt 0.505367 0.999929
vt 0.000071 0.772899
vt 0.000051 0.000051
vt 0.259393 0.472928
vt 0.000051 0.999949
vt 0.000052 0.999948
vt 0.000052 0.000052
vt 0.275128 0.769477
vt 0.247171 0.741614
vt 0.000050 0.999950
vt 0.000050 0.000050
vt 0.000088 0.000088
vt 0.779626 0.379419
vt 0.000088 0.999912
vt 0.000056 0.000056
vt 0.315934 0.831222
vt 0.000056 0.999944
vt 0.000049 0.735639
vt 0.244145 0.000049
vt 0.244145 0.999951
vt 0.755865 0.000087
vt 0.755865 0.999913
vt 0.000087 0.088801
vt 0.336202 0.958399
vt 0.000058 0.999942
vt 0.000058 0.000058
vt 0.000052 0.738601
vt 0.271935 0.000052
vt 0.271935 0.999948
vt 0.000047 0.000047
vt 0.218122 0.743572
vt 0.000047 0.999953
vt 0.000083 0.000083
vt 0.687338 0.494446
vt 0.000083 0.999917
vt 0.741153 0.000086
vt 0.741153 0.999914
vt 0.000086 0.418785
vt 0.261963 0.142274
vt 0.345253 0.326865
vt 0.000059 0.999941
vt 0.000059 0.000059
vt 0.000057 0.999943
vt 0.000057 0.000057
vt 0.322888 0.410187
vt 0.000090 0.999910
vt 0.000090 0.000090
vt 0.808379 0.843371
vt 0.000066 0.636525
vt 0.441199 0.000066
vt 0.441199 0.999934
vt 0.000063 0.000063
vt 0.399711 0.773945
vt 0.000063 0.999937
vt 0.000100 0.000100
vt 0.994033 0.000100
vt 0.208613 0.999900
s 1
usemtl Material.004
f 2/1/1 5/2/2 3/3/3
f 1/4/4 5/5/5 2/6/6
f 3/7/7 5/8/8 1/9/9
f 7/10/10 9/11/10 8/12/10
f 6/13/11 9/14/11 7/15/11
f 8/16/12 9/17/12 6/18/12
f 3/19/7 1/20/9 8/21/13
f 11/22/14 3/23/15 6/24/16
f 8/25/17 6/26/17 3/27/17
f 2/28/1 3/29/3 11/30/18
f 11/31/14 6/32/16 12/33/19
f 12/34/20 6/35/20 7/36/20
f 2/37/21 11/38/21 10/39/21
f 1/40/22 2/41/23 4/42/24
f 12/43/25 7/44/25 8/45/25
f 12/46/26 8/47/13 1/48/9
f 2/49/27 10/50/27 4/51/27
f 1/52/28 4/53/29 13/54/30
f 12/55/31 1/56/28 13/57/30
f 10/58/32 11/59/32 14/60/32
f 13/61/33 4/62/34 15/63/35
f 14/64/36 11/65/36 16/66/36
f 10/67/37 14/68/37 15/69/37
f 11/70/38 12/71/38 16/72/38
f 12/73/39 13/74/39 17/75/39
f 12/76/40 17/77/40 18/78/40
f 17/79/41 13/80/41 18/81/41
f 12/82/42 18/83/42 19/84/42
f 16/85/43 12/86/43 19/87/43
f 14/54/44 16/52/44 15/88/44
f 16/89/45 19/90/45 15/91/45
f 15/92/46 4/93/46 10/94/46
f 13/95/33 15/96/35 18/97/47
f 19/98/48 18/99/48 20/100/48
f 15/101/49 19/102/49 20/103/49
f 18/104/50 15/105/50 20/106/50
