# Blender 4.5.4 LTS
# www.blender.org
mtllib Crystalis.mtl
o Cube
v -0.509593 1.508137 0.135550
v -0.324445 1.490027 0.441578
v -0.010855 1.306135 0.105240
v -0.344796 1.988100 0.123384
v -0.324436 0.058223 0.432955
v -0.063083 1.583401 -0.127444
v -0.315259 1.427823 -0.452744
v -0.577459 1.415916 -0.030606
v -0.278628 0.089098 -0.431313
v -0.305807 2.228958 0.377567
v -0.015483 2.250114 0.104430
v -0.140778 2.500144 -0.382014
v -0.599432 2.433686 -0.310136
v 0.034670 1.524177 1.199515
v -0.414089 2.721701 0.290867
v 0.084036 2.502769 0.342107
v -0.270767 1.523244 -0.897316
v -0.530181 2.962590 -0.341758
v -0.202539 2.485106 0.053879
v -0.081559 3.038893 -0.105540
vn 0.7315 0.0004 0.6818
vn 0.7303 -0.0041 0.6831
vn 0.7312 -0.0006 0.6821
vn -0.8515 -0.0038 0.5243
vn -0.8515 -0.0034 0.5243
vn -0.3752 -0.8696 -0.3211
vn -0.1569 -0.2140 -0.9642
vn -0.6434 0.6818 0.3481
vn -0.8486 -0.0317 -0.5280
vn 0.7876 0.0117 -0.6161
vn 0.2512 -0.2275 0.9408
vn -0.4053 -0.9141 0.0132
vn 0.9723 0.0103 -0.2333
vn 0.9769 0.0046 -0.2138
vn 0.9745 0.0098 -0.2243
vn 0.0617 -0.6348 -0.7702
vn 0.7325 0.0042 0.6807
vn 0.9701 0.0150 -0.2422
vn 0.8080 -0.0931 -0.5818
vn 0.6827 0.0460 0.7292
vn -0.8054 0.2964 0.5133
vn -0.8053 0.2954 0.5140
vn -0.8054 0.2961 0.5135
vn -0.8392 0.1706 -0.5164
vn -0.8706 0.4267 0.2450
vn -0.9923 0.0353 0.1187
vn -0.6798 -0.1349 -0.7209
vn -0.6898 0.2621 0.6749
vn -0.9532 -0.2130 -0.2146
vn -0.0894 -0.3924 -0.9154
vn -0.4066 -0.7700 -0.4918
vn -0.9531 -0.0179 0.3021
vn -0.9159 -0.1696 0.3637
vn -0.9515 -0.0279 0.3064
vn 0.9612 -0.2077 -0.1817
vn -0.9532 -0.1649 0.2535
vn 0.9506 -0.0971 -0.2948
vn 0.2032 -0.4778 0.8546
vn 0.3787 0.3919 -0.8385
vn -0.8178 0.0729 -0.5709
vn 0.7640 0.6320 0.1301
vn -0.0840 0.9962 0.0225
vn 0.2047 0.6392 0.7413
vn 0.3983 0.8020 -0.4451
vn -0.9435 -0.1559 0.2924
vn -0.9631 0.1399 0.2300
vn 0.4829 -0.3380 -0.8078
vn 0.7569 0.0226 0.6531
vn -0.3497 0.8524 0.3887
vt 0.000056 0.973192
vt 0.313458 0.000056
vt 0.313458 0.999944
vt 0.000060 0.956843
vt 0.359446 0.000060
vt 0.359446 0.999940
vt 0.000060 0.999940
vt 0.052054 0.000060
vt 0.360699 0.999940
vt 0.000057 0.962404
vt 0.323594 0.000057
vt 0.323594 0.999943
vt 0.000046 0.999954
vt 0.000046 0.000046
vt 0.214616 0.849387
vt 0.000052 0.820909
vt 0.265580 0.000052
vt 0.265580 0.999948
vt 0.000066 0.000066
vt 0.436294 0.729113
vt 0.000066 0.999934
vt 0.567514 0.999925
vt 0.000075 0.157312
vt 0.567514 0.000075
vt 0.658684 0.999919
vt 0.000081 0.486796
vt 0.658684 0.000081
vt 0.000071 0.000071
vt 0.508411 0.136289
vt 0.000071 0.999929
vt 0.000091 0.999909
vt 0.157420 0.000091
vt 0.833260 0.999909
vt 0.314859 0.999944
vt 0.000056 0.179294
vt 0.314859 0.000056
vt 0.425774 0.000065
vt 0.425774 0.999935
vt 0.000065 0.653910
vt 0.000086 0.447754
vt 0.733537 0.000086
vt 0.733537 0.999914
vt 0.285537 0.999947
vt 0.000053 0.179753
vt 0.285537 0.000053
vt 0.000048 0.999952
vt 0.000048 0.000048
vt 0.228123 0.062164
vt 0.505367 0.000071
vt 0.505367 0.999929
vt 0.000071 0.772899
vt 0.000051 0.000051
vt 0.259393 0.472928
vt 0.000051 0.999949
vt 0.000052 0.999948
vt 0.000052 0.000052
vt 0.275128 0.769477
vt 0.247171 0.741614
vt 0.000050 0.999950
vt 0.000050 0.000050
vt 0.000088 0.000088
vt 0.779626 0.379419
vt 0.000088 0.999912
vt 0.000056 0.000056
vt 0.315934 0.831222
vt 0.000056 0.999944
vt 0.000049 0.735639
vt 0.244145 0.000049
vt 0.244145 0.999951
vt 0.755865 0.000087
vt 0.755865 0.999913
vt 0.000087 0.088801
vt 0.336202 0.958399
vt 0.000058 0.999942
vt 0.000058 0.000058
vt 0.000052 0.738601
vt 0.271935 0.000052
vt 0.271935 0.999948
vt 0.000047 0.000047
vt 0.218122 0.743572
vt 0.000047 0.999953
vt 0.000083 0.000083
vt 0.687338 0.494446
vt 0.000083 0.999917
vt 0.741153 0.000086
vt 0.741153 0.999914
vt 0.000086 0.418785
vt 0.261963 0.142274
vt 0.345253 0.326865
vt 0.000059 0.999941
vt 0.000059 0.000059
vt 0.000057 0.999943
vt 0.000057 0.000057
vt 0.322888 0.410187
vt 0.000090 0.999910
vt 0.000090 0.000090
vt 0.808379 0.843371
vt 0.000066 0.636525
vt 0.441199 0.000066
vt 0.441199 0.999934
vt 0.000063 0.000063
vt 0.399711 0.773945
vt 0.000063 0.999937
vt 0.000100 0.000100
vt 0.994033 0.000100
vt 0.208613 0.999900
s 1
usemtl Material.001
f 2/1/1 5/2/2 3/3/3
f 1/4/4 5/5/5 2/6/5
f 3/7/6 5/8/7 1/9/8
f 7/10/9 9/11/9 8/12/9
f 6/13/10 9/14/10 7/15/10
f 8/16/11 9/17/11 6/18/11
f 3/19/6 1/20/8 8/21/12
f 11/22/13 3/23/14 6/24/15
f 8/25/16 6/26/16 3/27/16
f 2/28/1 3/29/3 11/30/17
f 11/31/13 6/32/15 12/33/18
f 12/34/19 6/35/19 7/36/19
f 2/37/20 11/38/20 10/39/20
f 1/40/21 2/41/22 4/42/23
f 12/43/24 7/44/24 8/45/24
f 12/46/25 8/47/12 1/48/8
f 2/49/26 10/50/26 4/51/26
f 1/52/27 4/53/28 13/54/29
f 12/55/30 1/56/27 13/57/29
f 10/58/31 11/59/31 14/60/31
f 13/61/32 4/62/33 15/63/34
f 14/64/35 11/65/35 16/66/35
f 10/67/36 14/68/36 15/69/36
f 11/70/37 12/71/37 16/72/37
f 12/73/38 13/74/38 17/75/38
f 12/76/39 17/77/39 18/78/39
f 17/79/40 13/80/40 18/81/40
f 12/82/41 18/83/41 19/84/41
f 16/85/42 12/86/42 19/87/42
f 14/54/43 16/52/43 15/88/43
f 16/89/44 19/90/44 15/91/44
f 15/92/45 4/93/45 10/94/45
f 13/95/32 15/96/34 18/97/46
f 19/98/47 18/99/47 20/100/47
f 15/101/48 19/102/48 20/103/48
f 18/104/49 15/105/49 20/106/49
