# Blender 4.5.4 LTS
# www.blender.org
mtllib Crystalis_Hull.mtl
o Куб
v -0.327359 0.077051 -0.058296
v -0.089889 0.061178 0.132775
v -0.147003 0.062114 -0.280153
v -0.320907 0.211222 0.370995
v -0.376093 0.199114 -0.474082
v 0.077414 0.154125 -0.145691
v 0.023263 0.316602 0.350862
v -0.049095 0.270583 -0.531344
v -0.473871 0.329100 -0.051024
v -0.376227 0.551991 -0.566837
v 0.241792 2.540362 0.256742
v -0.331696 0.513849 0.449184
v 0.238891 2.533719 -0.324481
v 0.174271 0.484559 -0.176066
v -0.045009 2.554575 -0.593013
v -0.345153 2.550383 -0.372697
v -0.378923 2.574881 0.223578
v -0.048406 2.558927 0.533561
v -0.052542 2.768296 -0.192583
v 0.025700 2.759007 0.060304
v -0.150041 2.778709 0.038609
vn -0.0730 -0.9973 0.0078
vn -0.2936 -0.9111 0.2892
vn -0.3524 -0.9083 -0.2253
vn 0.4085 -0.9109 -0.0586
vn 0.2511 -0.6905 0.6784
vn 0.7720 -0.5744 0.2721
vn 0.5428 -0.7380 -0.4009
vn 0.0613 -0.7797 -0.6232
vn -0.8642 -0.5010 -0.0458
vn -0.8500 -0.4990 0.1687
vn -0.1131 -0.2526 -0.9609
vn -0.9764 -0.0552 -0.2087
vn -0.9438 -0.1138 0.3103
vn 0.1308 -0.2436 0.9610
vn 0.9470 -0.2603 0.1884
vn 0.8790 -0.2923 -0.3766
vn 0.9647 -0.0842 0.2496
vn 0.8617 -0.0636 -0.5034
vn 0.0848 -0.0270 -0.9960
vn -0.9845 0.0321 -0.1725
vn -0.9626 0.0076 0.2708
vn 0.2290 -0.0718 0.9708
vn -0.6810 0.0642 0.7294
vn 0.6885 -0.0370 0.7243
vn 0.9995 -0.0319 -0.0046
vn 0.6862 -0.0209 -0.7271
vn -0.5903 0.0871 -0.8025
vn -0.9971 0.0493 -0.0585
vn -0.3402 0.8269 -0.4477
vn 0.4497 0.7915 -0.4140
vn 0.7164 0.6976 -0.0115
vn 0.4397 0.8005 0.4073
vn -0.3727 0.8173 0.4395
vn -0.6939 0.7168 -0.0687
vn -0.4802 0.8436 -0.2405
vn 0.5781 0.8022 -0.1494
vn 0.0539 0.9167 0.3960
vn 0.1111 0.9938 0.0021
vt 0.000116 0.000116
vt 0.715586 0.000116
vt 0.715586 0.715586
vt 0.790634 0.590040
vt 0.000089 0.999911
vt 0.000089 0.000089
vt 0.650367 0.999919
vt 0.000081 0.709798
vt 0.650367 0.000081
vt 0.992420 0.000100
vt 0.992420 0.999900
vt 0.000100 0.489290
vt 0.000084 0.000084
vt 0.709777 0.000084
vt 0.454712 0.999916
vt 0.000082 0.228806
vt 0.665316 0.000082
vt 0.665316 0.999919
vt 0.000090 0.000090
vt 0.812499 0.000090
vt 0.255316 0.999910
vt 0.000087 0.000087
vt 0.764531 0.000087
vt 0.419870 0.999913
vt 0.000085 0.000085
vt 0.728310 0.000085
vt 0.168766 0.999915
vt 0.710117 0.000084
vt 0.451128 0.999916
vt 0.239993 0.000080
vt 0.644604 0.999920
vt 0.000080 0.999920
vt 0.000076 0.999924
vt 0.000076 0.000076
vt 0.580728 0.792450
vt 0.266574 0.000082
vt 0.679109 0.999917
vt 0.000082 0.999918
vt 0.000074 0.827493
vt 0.553240 0.000074
vt 0.553240 0.999926
vt 0.406227 0.999922
vt 0.000078 0.000078
vt 0.604966 0.000078
vt 0.586328 0.000077
vt 0.586328 0.999923
vt 0.000077 0.207011
vt 0.000066 0.133619
vt 0.441624 0.000066
vt 0.441624 0.999934
vt 0.000065 0.113927
vt 0.419436 0.000065
vt 0.419436 0.999935
vt 0.000067 0.000067
vt 0.451963 0.083821
vt 0.000067 0.999933
vt 0.000068 0.091783
vt 0.460499 0.000068
vt 0.460499 0.999932
vt 0.000067 0.145317
vt 0.449455 0.000067
vt 0.449455 0.999933
vt 0.000075 0.000075
vt 0.568836 0.000075
vt 0.209181 0.999925
vt 0.457827 0.000068
vt 0.457827 0.999932
vt 0.000068 0.934847
vt 0.000061 0.000061
vt 0.371108 0.905347
vt 0.000061 0.999939
vt 0.999884 0.000116
vt 0.999884 0.701127
vt 0.715819 0.656992
vt 0.378477 0.000062
vt 0.378477 0.999939
vt 0.000061 0.937929
vt 0.393096 0.000063
vt 0.393096 0.999937
vt 0.000063 0.947886
vt 0.421815 0.000065
vt 0.421815 0.999935
vt 0.000065 0.912644
vt 0.000092 0.999908
vt 0.000092 0.000092
vt 0.840341 0.641706
vt 0.701769 0.545726
vt 0.000084 0.999916
vt 0.849032 0.000092
vt 0.849032 0.999908
vt 0.000092 0.347271
vt 0.802048 0.528922
vt 0.000089 0.999910
vt 0.000087 0.683991
vt 0.759959 0.000087
vt 0.759959 0.999913
vt 0.776396 0.999912
vt 0.000088 0.369448
vt 0.776396 0.000088
vt 0.453597 0.112351
vt 0.446438 0.884157
vt 0.000072 0.999928
vt 0.000072 0.000071
vt 0.512500 0.037197
vt 0.000096 0.000095
vt 0.911381 0.527653
vt 0.000096 0.999905
s 1
usemtl Материал
f 3/1/1 2/2/1 1/3/1
f 1/4/2 2/5/2 4/6/2
f 3/7/3 1/8/3 5/9/3
f 2/10/4 3/11/4 6/12/4
f 4/13/5 2/14/5 7/15/5
f 2/16/6 6/17/6 7/18/6
f 6/19/7 3/20/7 8/21/7
f 3/22/8 5/23/8 8/24/8
f 5/25/9 1/26/9 9/27/9
f 1/13/10 4/28/10 9/29/10
f 8/30/11 5/31/11 10/32/11
f 5/33/12 9/34/12 10/35/12
f 9/36/13 4/37/13 12/38/13
f 4/39/14 7/40/14 12/41/14
f 7/42/15 6/43/15 14/44/15
f 6/45/16 8/46/16 14/47/16
f 7/48/17 14/49/17 11/50/17
f 14/51/18 8/52/18 13/53/18
f 8/54/19 10/55/19 15/56/19
f 10/57/20 9/58/20 16/59/20
f 9/60/21 12/61/21 17/62/21
f 12/63/22 7/64/22 18/65/22
f 12/66/23 18/67/23 17/68/23
f 7/69/24 11/70/24 18/71/24
f 14/72/25 13/73/25 11/74/25
f 8/75/26 15/76/26 13/77/26
f 10/78/27 16/79/27 15/80/27
f 9/81/28 17/82/28 16/83/28
f 15/84/29 16/85/29 19/86/29
f 13/13/30 15/87/30 19/88/30
f 11/89/31 13/90/31 20/91/31
f 18/6/32 11/92/32 20/93/32
f 17/94/33 18/95/33 21/96/33
f 16/97/34 17/98/34 21/99/34
f 16/56/35 21/54/35 19/100/35
f 13/54/36 19/101/36 20/56/36
f 18/102/37 20/103/37 21/104/37
f 21/105/38 20/106/38 19/107/38
