# Blender 5.0.1
# www.blender.org
o Attack_3
v -0.107217 1.563368 -0.668209
v -0.117237 1.692556 -1.887134
v -1.013803 1.817873 -1.229830
v -0.990010 1.825016 -1.760315
v -1.372685 1.486911 0.492804
v -0.589851 1.458856 -1.218060
v -0.946488 1.849697 -0.638036
v -0.069804 2.066718 -1.089183
v -1.549051 1.185146 -0.268983
v -0.169347 1.938646 -1.806215
v -1.451134 1.464908 0.231614
v -1.446766 1.168690 0.378042
v -1.013803 1.817873 -1.229830
v -0.392472 2.019494 -1.438782
v -1.603925 1.211369 -0.493778
v -1.555326 0.957085 -0.397647
v -1.620990 1.559962 -1.717702
v -1.466290 1.598223 -1.896790
v -1.467841 1.341136 -1.790157
v -0.720633 1.976443 -2.258303
v -0.484901 1.953716 -2.377012
v -0.601978 1.721787 -2.174824
v -0.424450 2.459197 -3.742208
v -2.130183 0.215632 0.127480
v -2.166109 0.833130 -2.653518
v -1.952723 0.321995 0.923973
v 0.300582 1.685738 -1.920391
v 0.351577 1.569325 -0.712796
v 0.383177 2.092102 -1.141018
v 0.282496 1.929836 -1.839294
v -0.170486 2.799149 -2.226234
v -0.631524 2.968596 -1.695021
v -0.131931 3.043498 -1.119817
v 0.303567 2.810624 -2.245989
v 0.315490 3.034118 -1.137317
v 0.063039 3.579558 -1.876783
v 0.121504 1.525235 -1.272301
v 0.051696 2.625763 -2.088310
v 0.034272 2.200922 -2.013844
v 1.189718 1.793930 -1.276110
v 1.173738 1.800828 -1.782864
v 1.501244 1.339044 0.589797
v 0.750434 1.446962 -1.293111
v 1.114897 1.826587 -0.685264
v 0.200332 2.374700 -2.078773
v 1.690446 1.328311 -0.262291
v 1.582906 1.316103 0.329675
v 1.558161 1.030221 0.500966
v 1.189718 1.793930 -1.276110
v 0.545398 1.980327 -1.513926
v 1.748616 1.353872 -0.486333
v 1.695762 1.100182 -0.390877
v 1.719894 1.637467 -1.611151
v 1.600490 1.660734 -1.817719
v 1.622675 1.401640 -1.718498
v 1.007692 2.042821 -2.384394
v 0.790365 2.098968 -2.483466
v 0.965690 1.865431 -2.493895
v 0.642577 2.405939 -3.708262
v 2.259535 0.342954 0.117533
v 2.396512 0.921275 -2.368589
v 2.126648 0.253334 0.894206
v 0.753233 2.985410 -1.697198
v -0.108814 2.386544 -2.040062
v -0.012832 2.588303 -5.166987
vn -0.4227 0.5888 -0.6889
vn -0.8416 0.4971 0.2109
vn -0.3879 -0.5228 0.7591
vn 0.3189 0.9438 -0.0870
vn 0.6356 -0.3886 0.6672
vn -0.7790 0.5720 0.2569
vn -0.6925 -0.4948 -0.5250
vn -0.8722 -0.0795 -0.4827
vn 0.1529 0.9880 0.0202
vn -0.5116 0.8554 0.0816
vn 0.7376 -0.3471 0.5793
vn -0.3983 -0.4956 -0.7718
vn 0.0110 0.9999 -0.0007
vn -0.6915 0.7212 0.0399
vn -0.4592 -0.5519 0.6961
vn 0.5244 -0.4742 -0.7072
vn -0.3915 0.9088 -0.1440
vn -0.8142 -0.4843 -0.3201
vn 0.0993 -0.9592 -0.2648
vn 0.1898 0.9184 0.3471
vn -0.2981 -0.3869 -0.8726
vn 0.8116 -0.5587 -0.1709
vn 0.2608 0.9015 0.3453
vn 0.8181 -0.2246 -0.5295
vn -0.5394 0.7877 -0.2976
vn 0.8236 -0.2957 0.4840
vn -0.2148 -0.4353 -0.8743
vn 0.8895 -0.3235 0.3227
vn 0.0391 -0.0011 0.9992
vn -0.6665 0.5068 0.5467
vn -0.0639 0.2995 -0.9520
vn -0.0357 -0.9677 -0.2495
vn 0.0663 0.6372 0.7678
vn -0.7611 -0.3407 -0.5519
vn 0.0398 0.8106 0.5843
vn 0.1275 -0.4518 -0.8830
vn -0.3561 -0.3942 -0.8472
vn 0.2713 -0.3619 -0.8919
vn -0.5517 0.7411 0.3827
vn -0.3722 -0.2543 -0.8926
vn -0.0168 -0.6355 -0.7719
vn -0.7329 -0.0253 0.6799
vn -0.0706 -0.5849 -0.8080
vn 0.0198 -0.9973 0.0704
vn -0.2184 -0.4283 -0.8769
vn 0.1000 -0.9899 0.1004
vn -0.5865 0.4707 -0.6592
vn -0.0479 0.4201 -0.9062
vn 0.3152 -0.4040 -0.8587
vn 0.0674 -0.9558 -0.2863
vn 0.4242 0.5925 -0.6849
vn 0.8204 0.5316 0.2107
vn 0.3503 -0.5038 0.7896
vn -0.3150 0.9446 -0.0921
vn -0.7396 -0.3084 0.5982
vn 0.7861 0.5572 0.2677
vn 0.9573 -0.0509 -0.2847
vn 0.8869 -0.1546 -0.4352
vn -0.1334 0.9909 0.0177
vn 0.6021 0.7894 0.1194
vn -0.7318 -0.3475 0.5863
vn 0.4618 -0.5506 -0.6954
vn 0.5915 0.8057 0.0304
vn 0.3505 -0.5039 0.7895
vn -0.3878 -0.5548 -0.7361
vn 0.3060 0.9495 -0.0699
vn 0.9586 -0.0545 -0.2793
vn -0.0338 -0.9419 -0.3343
vn -0.1877 0.8626 0.4698
vn 0.2727 -0.3881 -0.8804
vn -0.7997 -0.5980 -0.0534
vn 0.1469 0.9635 0.2238
vn -0.7161 -0.3022 -0.6291
vn 0.5670 0.7883 -0.2389
vn -0.8261 -0.2912 0.4824
vn -0.0974 -0.5053 -0.8574
vn -0.7852 -0.3005 0.5415
vn 0.9172 0.2179 0.3337
vn 0.7697 -0.2651 -0.5808
vn 0.5509 0.7504 0.3654
vn 0.7889 0.0543 0.6121
vn -0.1184 -0.9849 0.1263
vn 0.5901 0.4920 -0.6402
vn -0.1277 -0.9539 -0.2715
vn -0.8294 0.5586 0.0106
vn 0.8607 0.5086 -0.0242
vn -0.7860 -0.6149 -0.0638
vn 0.7012 -0.7063 -0.0973
vn -0.8558 -0.0111 -0.5172
vn -0.4312 -0.4842 0.7613
vn 0.2540 -0.9664 -0.0393
vn -0.4706 -0.8523 -0.2283
vn -0.7640 -0.2949 -0.5738
vn 0.3094 0.8654 0.3942
vn 0.7039 -0.3077 0.6402
vn -0.5379 -0.3861 -0.7494
vn -0.6479 0.7221 0.2424
vn 0.4088 -0.3518 -0.8421
vn -0.3876 0.9218 -0.0050
vn 0.3276 -0.7094 -0.6241
vn 0.2944 0.8583 0.4202
vn 0.1115 0.0382 0.9930
vn -0.0938 0.8411 0.5326
vn -0.0704 0.3098 -0.9482
vn 0.0532 0.6309 0.7741
vn -0.8535 -0.2295 -0.4678
vn -0.7541 -0.0127 0.6566
vn 0.7299 0.2636 -0.6307
vn 0.3601 -0.4946 0.7910
vn -0.3625 -0.9305 -0.0529
vn 0.4680 -0.8572 -0.2148
vn 0.7471 -0.3880 -0.5397
vn -0.3035 0.8557 0.4192
vn -0.7131 -0.3168 0.6254
vn 0.6393 -0.3839 -0.6663
vn 0.5340 0.8132 0.2314
vn -0.1943 -0.3653 -0.9104
vn 0.2854 0.9584 0.0040
vn -0.5449 -0.3756 -0.7496
vn 0.0799 0.9322 0.3530
vn 0.0806 0.8788 0.4703
vn 0.7848 -0.2752 -0.5554
vn 0.8992 -0.1087 0.4238
vt 0.487045 0.999930
vt 0.487045 0.000070
vt 0.000070 0.426706
vt 0.214221 0.999954
vt 0.214221 0.000046
vt 0.000046 0.942851
vt 0.000047 0.999953
vt 0.220695 0.194544
vt 0.000047 0.000047
vt 0.000072 0.999928
vt 0.514536 0.679456
vt 0.000072 0.000072
vt 0.235750 0.999951
vt 0.235750 0.000048
vt 0.000049 0.005179
vt 0.188531 0.999957
vt 0.188531 0.000044
vt 0.000043 0.917221
vt 0.000058 0.999942
vt 0.333627 0.294762
vt 0.000058 0.000058
vt 0.000056 0.667847
vt 0.315856 0.999944
vt 0.315856 0.000056
vt 0.000072 0.999928
vt 0.516953 0.298181
vt 0.000072 0.000072
vt 0.000042 0.999959
vt 0.171970 0.159537
vt 0.000042 0.000041
vt 0.000047 0.999953
vt 0.219800 0.144057
vt 0.000047 0.000047
vt 0.000068 0.881739
vt 0.456816 0.999933
vt 0.456816 0.000068
vt 0.000000 0.000000
vt 0.000072 0.700602
vt 0.514518 0.999928
vt 0.514518 0.000072
vt 0.212890 0.999954
vt 0.212890 0.000046
vt 0.000046 0.877709
vt 0.000081 0.624638
vt 0.662184 0.999919
vt 0.662184 0.000081
vt 0.000048 0.999952
vt 0.228287 0.192283
vt 0.000048 0.000048
vt 0.233381 0.999952
vt 0.233381 0.000048
vt 0.000048 0.858827
vt 0.000087 0.999913
vt 0.762196 0.999913
vt 0.585802 0.000087
vt 0.000066 0.428623
vt 0.438721 0.999934
vt 0.438721 0.000066
vt 0.000038 0.173711
vt 0.147768 0.999962
vt 0.147768 0.000038
vt 0.000047 0.182299
vt 0.218733 0.999953
vt 0.218733 0.000047
vt 0.232030 0.999952
vt 0.232030 0.000048
vt 0.000048 0.930438
vt 0.000033 0.179605
vt 0.110923 0.999967
vt 0.110923 0.000033
vt 0.174933 0.999958
vt 0.174933 0.000042
vt 0.000042 0.909102
vt 0.213153 0.999954
vt 0.213153 0.000046
vt 0.000046 0.878876
vt 0.000032 0.214892
vt 0.100956 0.999968
vt 0.100956 0.000032
vt 0.189708 0.999956
vt 0.189708 0.000043
vt 0.000043 0.806192
vt 0.000067 0.999934
vt 0.442187 0.192935
vt 0.000067 0.000067
vt 0.000060 0.999940
vt 0.359633 0.494321
vt 0.000060 0.000060
vt 0.000076 0.999925
vt 0.569351 0.423655
vt 0.000076 0.000075
vt 0.000090 0.210534
vt 0.811099 0.999910
vt 0.811099 0.000090
vt 0.999905 0.903632
vt 0.999905 0.000095
vt 0.000095 0.069866
vt 0.829997 0.999909
vt 0.829997 0.000091
vt 0.000091 0.150830
vt 0.000073 0.106308
vt 0.538929 0.999927
vt 0.538929 0.000073
vt 0.000059 0.999940
vt 0.000059 0.000059
vt 0.353104 0.797384
vt 0.000057 0.999943
vt 0.322932 0.770639
vt 0.000057 0.000057
vt 0.000060 0.999940
vt 0.367699 0.245359
vt 0.000060 0.000061
vt 0.862042 0.999907
vt 0.862042 0.000093
vt 0.000093 0.668421
vt 0.392842 0.999937
vt 0.392842 0.000063
vt 0.000063 0.229903
vt 0.000088 0.999912
vt 0.774686 0.447304
vt 0.000088 0.000088
vt 0.000066 0.999934
vt 0.430811 0.787157
vt 0.000066 0.000066
vt 0.000099 0.582486
vt 0.981127 0.999901
vt 0.981126 0.000099
vt 0.000096 0.000096
vt 0.575666 0.999904
vt 0.929252 0.000096
vt 0.000036 0.999964
vt 0.128602 0.523768
vt 0.000036 0.000036
vt 0.000095 0.999905
vt 0.903388 0.413344
vt 0.000095 0.000095
vt 0.797944 0.999911
vt 0.797944 0.000089
vt 0.000089 0.647506
vt 0.603800 0.999922
vt 0.603800 0.000078
vt 0.000078 0.856433
vt 0.000038 0.999962
vt 0.000038 0.000038
vt 0.143160 0.517628
vt 0.000100 0.692812
vt 0.994886 0.999900
vt 0.994886 0.000100
vt 0.499638 0.999929
vt 0.000071 0.407391
vt 0.499638 0.000071
vt 0.236822 0.999951
vt 0.000049 0.955190
vt 0.236822 0.000049
vt 0.000051 0.999949
vt 0.000051 0.000051
vt 0.262373 0.176714
vt 0.000072 0.999928
vt 0.000072 0.000072
vt 0.524579 0.637254
vt 0.000046 0.999954
vt 0.000046 0.000046
vt 0.207824 0.039594
vt 0.190770 0.999957
vt 0.000044 0.920207
vt 0.190770 0.000044
vt 0.000044 0.999956
vt 0.000044 0.000044
vt 0.190072 0.197911
vt 0.000055 0.696699
vt 0.304898 0.000055
vt 0.304898 0.999945
vt 0.000071 0.999929
vt 0.000071 0.000071
vt 0.504894 0.302768
vt 0.000039 0.999961
vt 0.000039 0.000039
vt 0.150771 0.143582
vt 0.000052 0.999948
vt 0.000052 0.000052
vt 0.269895 0.137627
vt 0.000073 0.999927
vt 0.005768 0.000073
vt 0.531550 0.999927
vt 0.000071 0.636676
vt 0.500619 0.000071
vt 0.500619 0.999929
vt 0.198677 0.999955
vt 0.000045 0.876605
vt 0.198677 0.000045
vt 0.000096 0.999904
vt 0.086797 0.000096
vt 0.923561 0.999904
vt 0.000047 0.999954
vt 0.000047 0.000047
vt 0.216556 0.185539
vt 0.165133 0.999959
vt 0.000041 0.910198
vt 0.165133 0.000041
vt 0.000083 0.999917
vt 0.511454 0.000083
vt 0.688234 0.999917
vt 0.000065 0.436948
vt 0.422714 0.000065
vt 0.422714 0.999935
vt 0.000035 0.178173
vt 0.122596 0.000035
vt 0.122596 0.999965
vt 0.156583 0.999960
vt 0.000040 0.889436
vt 0.156583 0.000040
vt 0.000031 0.177949
vt 0.093956 0.000031
vt 0.093956 0.999969
vt 0.168918 0.999959
vt 0.000041 0.913681
vt 0.168918 0.000041
vt 0.210094 0.999954
vt 0.000046 0.875597
vt 0.210094 0.000046
vt 0.000038 0.221988
vt 0.142309 0.000038
vt 0.142309 0.999962
vt 0.170804 0.999959
vt 0.000041 0.793157
vt 0.170804 0.000041
vt 0.000065 0.999935
vt 0.000065 0.000065
vt 0.422371 0.446777
vt 0.000063 0.999938
vt 0.000062 0.000062
vt 0.388977 0.849397
vt 0.798865 0.999911
vt 0.000089 0.694984
vt 0.798865 0.000089
vt 0.821364 0.999906
vt 0.000094 0.000094
vt 0.887528 0.000094
vt 0.000091 0.999909
vt 0.000091 0.000091
vt 0.829785 0.466541
vt 0.000098 0.000099
vt 0.999902 0.000098
vt 0.571350 0.969203
vt 0.655633 0.867933
vt 0.000093 0.000093
vt 0.999907 0.000093
vt 0.000081 0.999919
vt 0.665391 0.356284
vt 0.000081 0.000082
vt 0.000100 0.905193
vt 0.999900 0.997114
vt 0.999900 0.000100
vt 0.000079 0.999921
vt 0.623526 0.576226
vt 0.000079 0.000079
vt 0.999906 0.896149
vt 0.999906 0.000094
vt 0.000095 0.073715
vt 0.414089 0.999936
vt 0.414089 0.000064
vt 0.000064 0.428000
vt 0.000074 0.194988
vt 0.546886 0.999926
vt 0.546886 0.000074
vt 0.497668 0.999929
vt 0.395198 0.000070
vt 0.000071 0.999929
vt 0.000067 0.474902
vt 0.449430 0.999933
vt 0.449430 0.000067
vt 0.176586 0.999958
vt 0.176586 0.000042
vt 0.000042 0.199471
vt 0.000065 0.363854
vt 0.428538 0.999935
vt 0.428538 0.000065
vt 0.000074 0.336089
vt 0.547753 0.999926
vt 0.547753 0.000074
vt 0.162431 0.999960
vt 0.162431 0.000040
vt 0.000040 0.157879
vt 0.000052 0.999948
vt 0.268275 0.071595
vt 0.000052 0.000052
vt 0.218423 0.999953
vt 0.218423 0.000047
vt 0.000047 0.236081
vt 0.000089 0.209401
vt 0.783200 0.999912
vt 0.783200 0.000089
vt 0.314248 0.999944
vt 0.314248 0.000056
vt 0.000056 0.036603
vt 0.323974 0.999943
vt 0.323974 0.000057
vt 0.000057 0.264551
vt 0.467817 0.999932
vt 0.467817 0.000069
vt 0.000068 0.834704
vt 0.000073 0.999927
vt 0.528389 0.402061
vt 0.000073 0.000073
vt 0.621892 0.999921
vt 0.621892 0.000079
vt 0.000079 0.595725
vt 0.000095 0.061080
vt 0.999904 0.909708
vt 0.999904 0.000096
vt 0.393874 0.999937
vt 0.393874 0.000063
vt 0.000063 0.790856
vt 0.248605 0.999904
vt 0.917867 0.000096
vt 0.000096 0.000096
vt 0.384419 0.999938
vt 0.000062 0.397493
vt 0.384419 0.000062
vt 0.000070 0.256291
vt 0.494283 0.000070
vt 0.494283 0.999930
vt 0.000061 0.165183
vt 0.368355 0.000061
vt 0.368355 0.999939
vt 0.000061 0.453854
vt 0.367418 0.000061
vt 0.367418 0.999939
vt 0.141949 0.999962
vt 0.000038 0.187657
vt 0.141949 0.000038
vt 0.000065 0.278128
vt 0.428742 0.000065
vt 0.428742 0.999935
vt 0.000071 0.416500
vt 0.496863 0.000070
vt 0.496863 0.999930
vt 0.190657 0.999956
vt 0.000044 0.153712
vt 0.190657 0.000044
vt 0.000054 0.999946
vt 0.000054 0.000054
vt 0.291437 0.097638
vt 0.259201 0.999949
vt 0.000051 0.203850
vt 0.259201 0.000051
vt 0.000092 0.000092
vt 0.851261 0.000092
vt 0.612585 0.999908
vt 0.231015 0.999952
vt 0.000048 0.056765
vt 0.231015 0.000048
vt 0.313206 0.999944
vt 0.000056 0.167414
vt 0.313206 0.000056
vt 0.000073 0.999927
vt 0.000073 0.000073
vt 0.527739 0.451683
vt 0.623816 0.999921
vt 0.000079 0.340942
vt 0.623816 0.000079
vt 0.394638 0.999937
vt 0.000063 0.853723
vt 0.394638 0.000063
s 0
f 2/1/1 3/2/1 14/3/1
f 11/4/2 26/5/2 5/6/2
f 3/7/3 17/8/3 19/9/3
f 3/10/4 7/11/4 1/12/4
f 1/13/5 5/14/5 12/15/5
f 15/16/6 24/17/6 9/18/6
f 4/19/7 20/20/7 22/21/7
f 7/22/8 6/23/8 12/24/8
f 2/25/9 4/26/9 3/27/9
f 7/28/10 11/29/10 5/30/10
f 7/31/11 9/32/11 16/33/11
f 13/34/12 6/35/12 16/36/12
f 3/37/13 13/37/13 7/37/13
f 7/38/14 13/39/14 15/40/14
f 17/41/15 25/42/15 19/43/15
f 4/44/16 6/45/16 19/46/16
f 4/47/17 18/48/17 17/49/17
f 20/50/18 23/51/18 22/52/18
f 2/53/19 6/54/19 22/55/19
f 4/56/20 2/57/20 21/58/20
f 16/59/21 24/60/21 15/61/21
f 22/62/22 23/63/22 21/64/22
f 21/65/23 23/66/23 20/67/23
f 19/68/24 25/69/24 18/70/24
f 18/71/25 25/72/25 17/73/25
f 9/74/26 24/75/26 16/76/26
f 12/77/27 26/78/27 11/79/27
f 5/80/28 26/81/28 12/82/28
f 29/83/29 35/84/29 33/85/29
f 1/86/30 8/87/30 14/88/30
f 2/89/31 10/90/31 30/91/31
f 27/92/32 37/93/32 2/94/32
f 8/95/33 1/96/33 28/97/33
f 14/98/34 32/99/34 31/100/34
f 35/101/35 36/102/35 33/103/35
f 45/104/36 30/105/36 39/106/36
f 64/107/37 39/108/37 10/109/37
f 31/110/38 38/111/38 64/112/38
f 33/113/39 36/114/39 32/115/39
f 34/116/40 45/117/40 38/118/40
f 34/119/41 38/120/41 31/121/41
f 14/122/42 8/123/42 33/124/42
f 10/125/43 39/126/43 30/127/43
f 1/128/44 37/129/44 28/130/44
f 31/131/45 64/132/45 10/133/45
f 6/134/46 37/135/46 1/136/46
f 32/137/47 36/138/47 31/139/47
f 31/140/48 36/141/48 34/142/48
f 34/143/49 30/144/49 45/145/49
f 2/146/50 37/147/50 6/148/50
f 27/149/51 50/150/51 40/151/51
f 47/152/52 42/153/52 62/154/52
f 40/155/53 55/156/53 53/157/53
f 40/158/54 28/159/54 44/160/54
f 28/161/55 48/162/55 42/163/55
f 51/164/56 46/165/56 60/166/56
f 41/167/57 58/168/57 56/169/57
f 44/170/58 48/171/58 43/172/58
f 27/173/59 40/174/59 41/175/59
f 44/176/60 42/177/60 47/178/60
f 44/179/61 52/180/61 46/181/61
f 49/182/62 52/183/62 43/184/62
f 40/37/13 44/37/13 49/37/13
f 44/185/63 51/186/63 49/187/63
f 53/188/64 55/189/64 61/190/64
f 41/191/65 55/192/65 43/193/65
f 41/194/66 53/195/66 54/196/66
f 56/197/67 58/198/67 59/199/67
f 27/200/68 58/201/68 43/202/68
f 41/203/69 57/204/69 27/205/69
f 52/37/70 51/37/70 60/37/70
f 58/206/71 57/207/71 59/208/71
f 57/209/72 56/210/72 59/211/72
f 55/212/73 54/213/73 61/214/73
f 54/215/74 53/216/74 61/217/74
f 46/218/75 52/219/75 60/220/75
f 48/221/76 47/222/76 62/223/76
f 42/224/77 48/225/77 62/226/77
f 28/227/78 50/228/78 29/229/78
f 30/230/79 63/231/79 50/232/79
f 35/233/80 63/234/80 36/235/80
f 29/236/81 63/237/81 35/238/81
f 43/239/82 28/240/82 37/241/82
f 63/242/83 34/243/83 36/244/83
f 27/245/84 43/246/84 37/247/84
f 38/248/85 65/249/85 64/250/85
f 45/251/86 65/252/86 38/253/86
f 64/254/87 65/255/87 39/256/87
f 39/257/88 65/258/88 45/259/88
f 2/260/89 14/261/89 10/262/89
f 3/263/90 19/264/90 6/265/90
f 1/266/91 12/267/91 6/268/91
f 4/269/92 22/270/92 6/271/92
f 7/272/93 12/273/93 11/274/93
f 7/275/94 5/276/94 1/277/94
f 7/278/95 16/279/95 6/280/95
f 13/281/96 16/282/96 15/283/96
f 7/284/97 15/285/97 9/286/97
f 4/287/98 19/288/98 18/289/98
f 4/290/99 17/291/99 3/292/99
f 2/293/100 22/294/100 21/295/100
f 4/296/101 21/297/101 20/298/101
f 29/299/102 33/300/102 8/301/102
f 1/302/103 14/303/103 3/304/103
f 2/305/104 30/306/104 27/307/104
f 8/308/105 28/309/105 29/310/105
f 14/311/106 31/312/106 10/313/106
f 14/314/107 33/315/107 32/316/107
f 27/317/108 30/318/108 50/319/108
f 40/320/109 43/321/109 55/322/109
f 28/323/110 43/324/110 48/325/110
f 41/326/111 43/327/111 58/328/111
f 44/329/112 47/330/112 48/331/112
f 44/332/113 28/333/113 42/334/113
f 44/335/114 43/336/114 52/337/114
f 49/338/115 51/339/115 52/340/115
f 44/341/116 46/342/116 51/343/116
f 41/344/117 54/345/117 55/346/117
f 41/347/118 40/348/118 53/349/118
f 27/350/119 57/351/119 58/352/119
f 41/353/120 56/354/120 57/355/120
f 28/356/121 40/357/121 50/358/121
f 30/359/122 34/360/122 63/361/122
f 29/362/123 50/363/123 63/364/123
