# Blender 5.0.1
# www.blender.org
mtllib Sodalite_Crystal.mtl
o Sodalite_Crystal
v 1.073906 5.360320 1.551104
v 1.802944 4.029806 -1.172404
v -0.017402 4.113211 -0.927671
v -0.441624 4.065374 1.410361
v -1.780779 -0.188076 1.532202
v -0.153900 -0.334450 -0.466347
v 1.207927 -0.410479 0.945187
v 1.212347 -0.450235 -0.467133
v -1.304622 3.959924 -0.448824
v -2.704536 3.804387 3.040799
v -2.293361 2.363584 -0.087587
v 0.162097 7.801785 -0.992886
v -0.024020 3.916039 0.618995
v 1.073906 5.360320 1.551104
v 1.610052 5.195764 -1.000335
v 1.604247 7.165949 1.414987
v 0.161335 6.712729 -2.107182
v 0.260367 2.823088 1.627872
v 1.465388 2.880604 2.975598
v -0.767156 3.362133 2.729715
v -0.203415 3.443052 -2.208745
v 2.039237 2.880604 -3.390435
v -1.679512 4.060646 -2.897556
v 1.431038 2.953346 0.559756
v 2.524304 2.850413 -1.766347
v 4.246634 6.507287 -0.786102
v 2.688039 5.415152 1.198928
v -2.575421 3.056553 -1.085910
v -2.458026 3.169708 0.822018
v -1.574982 6.826740 1.133903
v -1.600878 7.270473 0.017827
v -1.181810 6.454645 -1.739035
v -2.077956 2.852876 -1.696140
vn 0.5621 -0.4039 0.7218
vn -0.3382 -0.0868 -0.9370
vn -0.7686 0.0930 -0.6330
vn -0.2055 0.0249 0.9783
vn -0.0000 -0.0000 1.0000
vn -0.0209 0.8868 -0.4617
vn 0.8862 -0.1851 0.4247
vn -0.1163 0.9932 -0.0024
vn 0.6488 0.3347 0.6834
vn -0.9245 -0.0725 -0.3741
vn -0.7901 0.3807 -0.4804
vn -0.8068 0.2763 0.5222
vn 0.5891 -0.1628 0.7915
vn -0.6494 0.5264 0.5489
vn -0.6978 -0.4785 -0.5330
vn -0.3487 0.0004 -0.9372
vn 0.9831 -0.0447 0.1775
vn 0.5139 0.8507 0.1106
vn -0.1266 0.1243 -0.9841
vn -0.5630 0.7056 -0.4302
vn -0.9124 0.2195 0.3455
vn 0.9414 -0.2603 0.2146
vn 0.7914 0.4747 -0.3853
vn -0.8979 0.4372 0.0519
vn -0.7267 0.2523 0.6390
vn 0.2368 -0.4149 -0.8785
vn -0.6945 -0.3377 0.6354
vn 0.1795 -0.1526 0.9718
vn -0.1608 0.0813 0.9836
vn -0.4987 -0.4985 -0.7091
vn 0.9800 0.0432 -0.1942
vn 0.7422 0.4979 0.4485
vn -0.9517 0.2974 -0.0763
vn 0.5159 0.7260 -0.4547
vn -0.0213 0.8871 -0.4610
vn -0.0360 -0.4190 -0.9073
vn 0.8599 0.3298 0.3896
vn 0.9818 -0.1044 0.1587
vn 0.2427 -0.4037 -0.8821
vn 0.2134 0.2128 -0.9535
vn -0.2084 -0.3299 0.9207
vn -0.0375 0.0971 -0.9946
vn 0.7942 -0.4965 0.3504
vn 0.9978 -0.0656 0.0050
vn 0.9258 -0.0181 0.3776
vn -0.6642 -0.0300 -0.7470
vn 0.7078 -0.6580 -0.2570
vn -0.5875 0.6539 -0.4767
vn 0.2112 -0.3453 0.9144
vn 0.0875 0.8422 0.5320
vn -0.7820 -0.5933 -0.1909
vn 0.3840 0.1066 -0.9172
vn -0.9802 -0.1981 -0.0019
vn 0.6178 0.2800 0.7348
vn -0.9961 -0.0875 -0.0117
vn -0.8556 -0.3097 0.4147
vn -0.0672 0.9266 0.3700
vn -0.4876 0.7416 -0.4607
vn -0.9768 -0.0584 -0.2059
vn 0.6999 -0.3550 -0.6198
vn 0.9718 0.1319 0.1957
vn 0.9441 0.3179 0.0876
vn 0.9468 0.3187 -0.0439
vn -0.0370 0.3761 0.9258
vt 0.464050 0.999910
vt 0.000090 0.000090
vt 0.818121 0.000090
vt 0.000000 0.000000
vt 1.000000 0.000000
vt 1.000000 1.000000
vt 0.999903 0.947088
vt 0.000097 0.492440
vt 0.999903 0.000097
vt 0.999916 0.715490
vt 0.000085 0.715490
vt 0.596312 0.000084
vt 0.000075 0.372773
vt 0.557089 0.000075
vt 0.557089 0.999925
vt 0.000098 0.924227
vt 0.999902 0.000098
vt 0.999902 0.963141
vt 0.955650 0.999902
vt 0.000098 0.446256
vt 0.955650 0.000098
vt 0.014210 0.984934
vt 0.000099 0.000099
vt 0.999901 0.000099
vt 0.290652 0.999946
vt 0.000054 0.411934
vt 0.290652 0.000054
vt 0.000086 0.348999
vt 0.999914 0.000086
vt 0.999914 0.742924
vt 0.000099 0.972793
vt 0.000099 0.000099
vt 0.999901 0.734417
vt 0.413833 0.731318
vt 0.000086 0.000086
vt 0.999914 0.000085
vt 0.000073 0.288122
vt 0.535652 0.000073
vt 0.535652 0.999927
vt 0.662978 0.999919
vt 0.000081 0.489278
vt 0.662978 0.000081
vt 0.000091 0.999909
vt 0.000091 0.000091
vt 0.820449 0.944482
vt 0.000082 0.999918
vt 0.000082 0.000082
vt 0.667033 0.924350
vt 0.516956 0.999928
vt 0.000072 0.392501
vt 0.516956 0.000072
vt 0.489477 0.999930
vt 0.000070 0.713674
vt 0.489477 0.000070
vt 0.942018 0.999903
vt 0.000097 0.507095
vt 0.942018 0.000097
vt 0.000096 0.925532
vt 0.000096 0.000096
vt 0.999904 0.900477
vt 0.641134 0.809365
vt 0.000090 0.000090
vt 0.999910 0.000090
vt 0.360149 0.999905
vt 0.000095 0.000095
vt 0.897629 0.000095
vt 0.302284 0.900455
vt 0.000095 0.000095
vt 0.999905 0.000095
vt 0.000081 0.999920
vt 0.000080 0.000080
vt 0.646396 0.357457
vt 0.000096 0.000096
vt 0.999904 0.000096
vt 0.649256 0.918829
vt 0.000086 0.964083
vt 0.732205 0.000086
vt 0.732205 0.999914
vt 0.432172 0.999934
vt 0.000066 0.571550
vt 0.432172 0.000066
vt 0.000082 0.645491
vt 0.668816 0.000082
vt 0.668816 0.999918
vt 0.511086 0.999928
vt 0.000072 0.808268
vt 0.511086 0.000071
vt 0.000084 0.619785
vt 0.713180 0.000084
vt 0.713180 0.999916
vt 0.000062 0.684759
vt 0.389816 0.000062
vt 0.389816 0.999938
vt 0.000070 0.999930
vt 0.000070 0.000070
vt 0.493173 0.583670
vt 0.904262 0.999905
vt 0.000095 0.894140
vt 0.904262 0.000095
vt 0.000055 0.999945
vt 0.000055 0.000055
vt 0.299645 0.546777
vt 0.524277 0.999922
vt 0.000078 0.000078
vt 0.602311 0.000078
vt 0.512639 0.999928
vt 0.000072 0.667963
vt 0.512639 0.000072
vt 0.000085 0.717135
vt 0.066756 0.000085
vt 0.999915 0.717135
vt 0.000050 0.999950
vt 0.000050 0.000050
vt 0.249680 0.371986
vt 0.382639 0.999938
vt 0.000062 0.206693
vt 0.382639 0.000062
vt 0.000086 0.999915
vt 0.000085 0.000085
vt 0.730873 0.990899
vt 0.000081 0.999919
vt 0.338624 0.000081
vt 0.650051 0.999919
vt 0.712142 0.999913
vt 0.000087 0.000087
vt 0.749321 0.000087
vt 0.000088 0.242514
vt 0.999912 0.000088
vt 0.999912 0.768469
vt 0.000060 0.999940
vt 0.000060 0.000060
vt 0.363924 0.684240
vt 0.000099 0.985100
vt 0.000099 0.000099
vt 0.999901 0.440744
vt 0.000085 0.409617
vt 0.999915 0.000085
vt 0.999915 0.718816
vt 0.000077 0.999923
vt 0.000077 0.000077
vt 0.597575 0.563776
vt 0.000056 0.999944
vt 0.000056 0.000056
vt 0.312300 0.141199
vt 0.000085 0.999915
vt 0.000085 0.000085
vt 0.718970 0.252802
vt 0.390978 0.819512
vt 0.000090 0.000091
vt 0.999909 0.000091
s 1
usemtl Материал
f 5/1/1 18/2/1 20/3/1
f 3/4/2 6/5/2 9/6/2
s 0
f 1/4/3 15/5/4 14/6/5
s 1
f 21/7/6 2/8/6 22/9/6
f 24/10/7 8/11/7 25/12/7
f 4/13/8 9/14/8 10/15/8
f 4/16/9 12/17/9 30/18/9
f 9/19/10 5/20/10 10/21/10
f 9/22/11 11/23/11 29/24/11
f 13/25/12 14/26/12 16/27/12
f 5/28/13 4/29/13 10/30/13
f 11/31/14 9/32/14 28/33/14
f 6/34/15 5/35/15 11/36/15
f 3/37/16 9/38/16 12/39/16
f 4/40/17 3/41/17 12/42/17
f 3/4/18 4/5/18 13/6/18
f 2/4/19 3/5/19 15/6/19
f 4/4/20 14/5/20 13/6/20
f 3/43/21 16/44/21 17/45/21
f 14/46/22 15/47/22 16/48/22
f 16/49/23 15/50/23 17/51/23
f 3/52/24 13/53/24 16/54/24
f 1/55/25 18/56/25 19/57/25
f 15/4/26 3/5/26 17/6/26
f 18/58/27 7/59/27 19/60/27
f 5/61/28 7/62/28 18/63/28
f 1/64/29 4/65/29 18/66/29
f 8/67/30 21/68/30 22/69/30
f 7/70/31 1/71/31 19/72/31
f 18/73/32 4/74/32 20/75/32
f 4/76/33 5/77/33 20/78/33
f 3/79/34 21/80/34 23/81/34
f 3/82/35 2/83/35 21/84/35
f 8/85/36 6/86/36 21/87/36
f 2/4/37 24/5/37 25/6/37
f 2/88/38 8/89/38 22/90/38
f 21/91/39 6/92/39 23/93/39
f 23/4/40 6/5/41 33/6/42
f 24/94/43 26/95/43 27/96/43
f 7/97/44 8/98/44 24/99/44
f 1/100/45 7/101/45 24/102/45
f 8/103/46 2/104/46 25/105/46
f 24/106/47 2/107/47 26/108/47
f 2/109/48 1/110/48 26/111/48
f 1/4/49 24/5/49 27/6/49
f 26/112/50 1/113/50 27/114/50
f 6/115/51 11/116/51 28/117/51
f 9/118/52 6/119/52 28/120/52
f 11/121/53 5/122/53 29/123/53
f 5/4/54 9/5/54 29/6/54
f 9/124/55 30/125/55 31/126/55
f 9/127/56 4/128/56 30/129/56
f 30/130/57 12/131/57 31/132/57
f 31/133/58 12/134/58 32/135/58
f 9/136/59 31/137/59 32/138/59
f 12/139/60 9/140/60 32/141/60
f 1/142/61 2/143/61 15/144/61
s 0
f 4/4/62 1/5/5 14/6/63
s 1
f 3/145/64 23/146/40 33/147/42
f 6/148/41 3/149/64 33/150/42
