# Blender 5.0.1
# www.blender.org
mtllib Без имени.mtl
o Cube
v 0.158377 -0.613110 -1.563285
v 1.323170 -0.510793 0.574737
v -1.089097 -0.573441 0.476898
v 0.109120 1.032459 -0.102114
vn 0.0246 -0.9991 0.0344
vn -0.7764 0.4053 -0.4826
vn 0.7873 0.4224 -0.4491
vn -0.0472 0.3698 0.9279
vt 0.000090 0.518702
vt 0.801584 0.000088
vt 0.801584 0.999909
vt 0.000083 0.999918
vt 0.000083 0.000084
vt 0.688044 0.456699
vt 0.000090 0.667624
vt 0.817860 0.000090
vt 0.817860 0.999911
vt 0.000082 0.999919
vt 0.000082 0.000081
vt 0.650100 0.496896
s 1
usemtl Material.001
f 1/1/1 2/2/1 3/3/1
f 1/4/2 3/5/2 4/6/2
f 2/7/3 1/8/3 4/9/3
f 3/10/4 2/11/4 4/12/4
