# Blender 5.1.0
# www.blender.org
o Плоскость
v -1.620180 -1.756704 0.523322
v 1.300168 -0.836319 -0.305406
v -1.273532 0.170131 -2.347292
v -0.959644 3.850682 2.116421
v -0.314404 -2.387774 -1.399747
vn 0.6037 -0.0679 -0.7943
vn 0.6349 0.5736 -0.5176
vn 0.3455 -0.2939 0.8912
vn -0.9913 0.1266 -0.0347
vn 0.3871 -0.7654 0.5140
vn -0.8012 -0.4476 -0.3972
vt 0.000000 0.000000
vt 1.000000 0.000000
vt 1.000000 1.000000
s 1
f 3/1/1 2/2/1 5/3/1
f 2/1/2 3/2/2 4/3/2
f 1/1/3 2/2/3 4/3/3
f 3/1/4 1/2/4 4/3/4
f 2/1/5 1/2/5 5/3/5
f 1/1/6 3/2/6 5/3/6
