# Blender 5.0.1
# www.blender.org
mtllib Topaz_Crawler.mtl
o 0
v -0.530303 0.697215 -0.164682
v 0.663443 0.663974 -0.210806
v 0.025156 0.946615 -1.076468
v 0.674406 0.956506 -1.040787
v -1.906834 1.654582 -1.740804
v 0.027284 0.345506 -0.654121
v -0.566189 0.978607 -1.005397
v -0.285277 1.116917 -0.158288
v -0.769009 1.568089 -1.865682
v 0.448277 1.147885 -0.195518
v -1.566760 1.627891 -1.845249
v -1.790282 1.286440 -1.816644
v 0.025156 0.946615 -1.076468
v 0.092251 1.151082 -0.449612
v -0.476237 1.599104 -1.939424
v -0.601086 1.295913 -1.873244
v 0.420769 1.545499 -1.946883
v 0.732903 1.554695 -1.930042
v 0.582825 1.253433 -1.900278
v 1.530569 1.415257 -1.760480
v 1.874914 1.570189 -1.637030
v 1.645093 1.149716 -1.711790
v 2.332220 -0.099712 -2.663290
v -0.625183 -0.050549 -2.912583
v 0.678392 -0.121789 -2.907807
v -2.112962 -0.052893 -2.698998
v 0.727481 0.655550 0.253726
v -0.482661 0.705879 0.293761
v -0.278609 1.145921 0.297385
v 0.444182 1.139479 0.257524
v 0.649559 2.075063 -0.215608
v 0.088579 2.124447 -0.669830
v -0.482954 2.073921 -0.163017
v 0.672228 2.091496 0.258169
v -0.458296 2.069452 0.284144
v 0.142211 2.761667 0.022847
v 0.075316 0.660655 0.060226
v 0.598860 1.774541 0.009899
v 0.556280 1.491707 0.011702
v 0.086132 0.935609 1.126798
v 0.735382 0.945500 1.091117
v -1.845858 1.643576 1.791134
v 0.088260 0.334500 0.704451
v -0.505214 0.967602 1.055727
v 0.587254 1.626354 0.140948
v -0.708034 1.557083 1.916012
v -1.505784 1.616886 1.895579
v -1.729306 1.275434 1.866974
v 0.086132 0.935609 1.126798
v 0.094568 1.114643 0.491371
v -0.415261 1.588098 1.989754
v -0.540111 1.284907 1.923574
v 0.481745 1.534494 1.997213
v 0.793879 1.543689 1.980372
v 0.643801 1.242428 1.950608
v 1.591545 1.404252 1.810810
v 1.935889 1.559183 1.687360
v 1.642053 1.159129 1.759570
v 2.393196 -0.110717 2.713620
v -0.564207 -0.061555 2.962914
v 0.739368 -0.132795 2.958137
v -2.051986 -0.063899 2.749329
v 0.104215 2.144104 0.714803
v 0.575710 1.630942 -0.104183
v 0.623733 1.617746 0.009393
vn -0.6883 -0.6647 0.2905
vn 0.2188 -0.4975 0.8394
vn 0.6483 0.4569 0.6090
vn -0.0887 -0.9457 -0.3127
vn 0.8003 0.3532 -0.4845
vn 0.2606 -0.5079 0.8211
vn 0.4828 0.3550 0.8006
vn -0.5634 -0.0715 0.8231
vn 0.0326 -0.9428 -0.3319
vn -0.2028 -0.8767 -0.4362
vn 0.8427 0.5156 0.1546
vn -0.5858 0.4645 0.6641
vn -0.0000 1.0000 -0.0000
vn -0.1115 -0.8228 -0.5573
vn 0.8124 0.3803 -0.4420
vn -0.5388 0.7769 0.3258
vn 0.0544 -0.8302 -0.5549
vn 0.9046 0.4110 0.1136
vn -0.4464 0.8949 -0.0023
vn 0.3044 -0.8996 -0.3131
vn -0.8895 0.2891 -0.3538
vn -0.4342 0.3824 -0.8156
vn -0.0615 -0.5348 0.8428
vn -0.7781 0.3351 -0.5313
vn -0.0318 -0.5028 0.8638
vn 0.6839 0.4381 -0.5834
vn -0.7715 0.4690 -0.4298
vn 0.5933 0.3383 -0.7305
vn 0.9804 0.1900 -0.0522
vn 0.5909 -0.3560 0.7240
vn -0.9138 -0.4058 -0.0158
vn 0.0026 0.9998 0.0178
vn 0.8614 -0.5017 -0.0800
vn -0.6106 0.1726 0.7729
vn 0.7455 -0.6648 -0.0478
vn 0.9614 -0.2703 0.0512
vn -0.9655 0.2325 0.1175
vn -0.9866 0.1629 -0.0048
vn 0.5410 -0.6394 0.5463
vn -0.9835 0.1569 0.0903
vn -0.9799 0.1954 0.0401
vn 0.5987 0.1276 0.7908
vn -0.9535 0.3013 -0.0030
vn 0.0699 0.9972 -0.0261
vn -0.9542 0.2117 0.2115
vn 0.2047 0.8904 -0.4066
vn -0.5342 -0.6011 0.5944
vn -0.7930 -0.6064 0.0590
vn 0.9497 -0.2276 0.2148
vn -0.1832 0.9039 -0.3865
vn 0.6255 0.7488 0.2193
vn -0.2188 0.4975 0.8394
vn -0.6483 -0.4569 0.6090
vn 0.0896 0.9428 -0.3212
vn -0.7912 -0.3533 -0.4991
vn -0.2606 0.5079 0.8211
vn -0.5272 -0.2766 0.8035
vn 0.5634 0.0715 0.8231
vn -0.0323 0.9446 -0.3268
vn 0.2028 0.8767 -0.4362
vn -0.8427 -0.5156 0.1546
vn 0.5858 -0.4645 0.6641
vn 0.1115 0.8228 -0.5573
vn -0.8124 -0.3803 -0.4420
vn 0.5388 -0.7769 0.3258
vn -0.0544 0.8302 -0.5549
vn -0.8962 -0.2598 0.3597
vn 0.4590 -0.8882 0.0183
vn -0.3068 0.9003 -0.3088
vn 0.8895 -0.2891 -0.3538
vn 0.3597 -0.4151 -0.8357
vn 0.0615 0.5348 0.8428
vn 0.7781 -0.3351 -0.5313
vn 0.0318 0.5028 0.8638
vn -0.6839 -0.4381 -0.5834
vn 0.7715 -0.4690 -0.4298
vn -0.5933 -0.3383 -0.7305
vn -0.4392 0.1965 0.8766
vn 0.5556 -0.1813 0.8114
vn -0.5125 0.6544 0.5559
vn -0.5958 -0.1045 0.7963
vn -0.2514 -0.8655 -0.4331
vn 0.5256 0.6202 0.5824
vn 0.1266 -0.8840 -0.4501
vn -0.9171 -0.1467 0.3707
vn -0.9551 -0.1507 -0.2550
vn -0.8079 0.4395 0.3926
vn -0.8520 0.4511 -0.2658
vn -0.5603 -0.2738 0.7817
vn 0.6644 0.4312 0.6104
vn 0.4911 0.8687 -0.0647
vn 0.5793 -0.1018 0.8087
vn -0.4497 0.3628 0.8162
vn -0.2984 -0.9089 -0.2915
vn 0.6373 0.7316 0.2419
vn -0.6252 0.4033 0.6682
vn -0.0522 -0.8295 -0.5561
vn -0.8573 0.4515 0.2473
vn 0.0431 -0.8321 -0.5529
vn -0.7915 0.4961 -0.3571
vn 0.4286 -0.9012 -0.0646
vn 0.9790 0.2021 -0.0272
vn 0.6317 -0.7544 0.1785
vn -0.8575 -0.5028 0.1091
vn 0.9071 -0.4207 0.0135
vn -0.5742 0.1421 0.8063
vn 0.6452 0.1709 0.7446
vn 0.5164 0.2960 0.8035
vn -0.6644 -0.4312 0.6104
vn -0.5001 -0.8619 -0.0842
vn -0.6096 0.1534 0.7778
vn 0.4497 -0.3628 0.8162
vn 0.2913 0.9074 -0.3030
vn -0.6373 -0.7316 0.2419
vn 0.6252 -0.4033 0.6682
vn 0.0522 0.8295 -0.5561
vn 0.8573 -0.4515 0.2473
vn -0.0431 0.8321 -0.5529
vn 0.7559 -0.6018 -0.2579
vn -0.4286 0.9012 -0.0646
vn -0.6116 0.7636 0.2070
vn 0.6114 -0.1470 0.7775
vn -0.4655 -0.1836 0.8658
vt 0.487045 0.999930
vt 0.000070 0.426706
vt 0.487045 0.000070
vt 0.213372 0.999954
vt 0.000046 0.999954
vt 0.126686 0.000046
vt 0.321049 0.999943
vt 0.000057 0.118969
vt 0.321049 0.000057
vt 0.000072 0.999928
vt 0.000072 0.000072
vt 0.514536 0.679456
vt 0.180332 0.999958
vt 0.000042 0.074316
vt 0.180332 0.000042
vt 0.185101 0.999957
vt 0.000043 0.999957
vt 0.138876 0.000043
vt 0.091084 0.999946
vt 0.000054 0.000054
vt 0.287964 0.000054
vt 0.000039 0.624067
vt 0.152065 0.000039
vt 0.152065 0.999961
vt 0.000074 0.999926
vt 0.000074 0.000074
vt 0.541403 0.357838
vt 0.000043 0.999957
vt 0.000043 0.000043
vt 0.186378 0.142119
vt 0.293648 0.999946
vt 0.000054 0.166594
vt 0.293648 0.000054
vt 0.000049 0.609408
vt 0.237857 0.000049
vt 0.237857 0.999951
vt 0.003245 0.487414
vt 0.006512 0.480200
vt 0.003898 0.480609
vt 0.000079 0.999921
vt 0.175974 0.000079
vt 0.627583 0.999921
vt 0.136994 0.999963
vt 0.000037 0.871597
vt 0.136994 0.000037
vt 0.000058 0.480210
vt 0.331907 0.000058
vt 0.331907 0.999942
vt 0.000057 0.999943
vt 0.000056 0.000056
vt 0.318755 0.072284
vt 0.001935 0.491640
vt 0.002022 0.491832
vt 0.002272 0.492418
vt 0.000064 0.813679
vt 0.414888 0.000064
vt 0.414888 0.999936
vt 0.000055 0.661765
vt 0.297950 0.000055
vt 0.297950 0.999945
vt 0.000038 0.123140
vt 0.144160 0.000038
vt 0.144160 0.999962
vt 0.000045 0.166356
vt 0.204110 0.000045
vt 0.204110 0.999955
vt 0.221479 0.999953
vt 0.000047 0.943689
vt 0.221479 0.000047
vt 0.000037 0.128460
vt 0.137492 0.000037
vt 0.137492 0.999963
vt 0.189180 0.999956
vt 0.000043 0.999956
vt 0.094612 0.000044
vt 0.124946 0.999965
vt 0.000035 0.873492
vt 0.124946 0.000035
vt 0.000037 0.174356
vt 0.133773 0.000037
vt 0.133773 0.999964
vt 0.113672 0.999966
vt 0.000034 0.825256
vt 0.113672 0.000034
vt 0.000067 0.999934
vt 0.000067 0.000066
vt 0.442187 0.192935
vt 0.000060 0.999940
vt 0.000060 0.000060
vt 0.359633 0.494321
vt 0.000076 0.999925
vt 0.000076 0.000075
vt 0.569351 0.423655
vt 0.000090 0.210534
vt 0.811099 0.000090
vt 0.811099 0.999910
vt 0.999905 0.903632
vt 0.000095 0.069866
vt 0.999905 0.000095
vt 0.829997 0.999909
vt 0.000091 0.150830
vt 0.829997 0.000091
vt 0.000073 0.106308
vt 0.538929 0.000073
vt 0.538929 0.999927
vt 0.000059 0.999940
vt 0.000059 0.000059
vt 0.353104 0.797384
vt 0.000057 0.999943
vt 0.000057 0.000057
vt 0.322931 0.770639
vt 0.000060 0.999940
vt 0.000060 0.000061
vt 0.367699 0.245359
vt 0.000094 0.324327
vt 0.871394 0.000093
vt 0.871394 0.999907
vt 0.392842 0.999937
vt 0.000063 0.229903
vt 0.392842 0.000063
vt 0.000088 0.999912
vt 0.000088 0.000088
vt 0.774686 0.447304
vt 0.000066 0.999934
vt 0.000066 0.000066
vt 0.430810 0.787157
vt 0.000099 0.582486
vt 0.981127 0.000099
vt 0.981127 0.999901
vt 0.000097 0.000096
vt 0.929253 0.000096
vt 0.575667 0.999904
vt 0.000036 0.999964
vt 0.000036 0.000036
vt 0.128602 0.523768
vt 0.000091 0.999909
vt 0.000091 0.000091
vt 0.822524 0.356719
vt 0.797944 0.999911
vt 0.000089 0.647506
vt 0.797944 0.000089
vt 0.603800 0.999922
vt 0.000078 0.856433
vt 0.603800 0.000078
vt 0.000038 0.999962
vt 0.000038 0.000038
vt 0.143160 0.517628
vt 0.000099 0.976072
vt 0.608155 0.000099
vt 0.999901 0.976072
vt 0.499638 0.999929
vt 0.000071 0.407391
vt 0.499638 0.000071
vt 0.213371 0.999954
vt 0.000046 0.999954
vt 0.126686 0.000046
vt 0.321049 0.999943
vt 0.000057 0.118969
vt 0.321049 0.000057
vt 0.000073 0.999928
vt 0.000072 0.000072
vt 0.524579 0.637254
vt 0.184917 0.999957
vt 0.000043 0.078460
vt 0.184917 0.000043
vt 0.185101 0.999957
vt 0.000043 0.999957
vt 0.138876 0.000043
vt 0.232334 0.999952
vt 0.000048 0.072630
vt 0.232334 0.000048
vt 0.000039 0.624067
vt 0.152065 0.000039
vt 0.152065 0.999961
vt 0.000074 0.999927
vt 0.000073 0.000073
vt 0.538406 0.355270
vt 0.000043 0.999957
vt 0.000043 0.000043
vt 0.186378 0.142119
vt 0.293648 0.999946
vt 0.000054 0.166594
vt 0.293648 0.000054
vt 0.000049 0.609408
vt 0.237857 0.000049
vt 0.237857 0.999951
vt 0.002677 0.509352
vt 0.005994 0.518440
vt 0.003671 0.519846
vt 0.000078 0.999922
vt 0.000079 0.000078
vt 0.613723 0.921133
vt 0.136994 0.999963
vt 0.000037 0.871597
vt 0.136994 0.000037
vt 0.000058 0.480210
vt 0.331907 0.000058
vt 0.331907 0.999942
vt 0.310546 0.999942
vt 0.000058 0.000058
vt 0.341184 0.000058
vt 0.104067 0.999968
vt 0.000032 0.902559
vt 0.104067 0.000032
vt 0.000066 0.814009
vt 0.430594 0.000066
vt 0.430594 0.999934
vt 0.000055 0.660179
vt 0.300331 0.000055
vt 0.300331 0.999945
vt 0.000038 0.123140
vt 0.144160 0.000038
vt 0.144160 0.999962
vt 0.000048 0.150071
vt 0.232955 0.000048
vt 0.232955 0.999952
vt 0.221479 0.999953
vt 0.000047 0.943689
vt 0.221479 0.000047
vt 0.000037 0.128460
vt 0.137492 0.000037
vt 0.137492 0.999963
vt 0.189180 0.999956
vt 0.000043 0.999957
vt 0.094612 0.000044
vt 0.124946 0.999965
vt 0.000035 0.873492
vt 0.124946 0.000035
vt 0.000037 0.174356
vt 0.133773 0.000037
vt 0.133773 0.999964
vt 0.113672 0.999966
vt 0.000034 0.825256
vt 0.113672 0.000034
vt 0.000065 0.999935
vt 0.000065 0.000065
vt 0.422371 0.446776
vt 0.000063 0.999938
vt 0.000062 0.000062
vt 0.388977 0.849397
vt 0.798865 0.999911
vt 0.000089 0.694984
vt 0.798865 0.000089
vt 0.821363 0.999906
vt 0.000094 0.000094
vt 0.887528 0.000094
vt 0.000088 0.999912
vt 0.000088 0.000088
vt 0.774955 0.378568
vt 0.000095 0.291420
vt 0.902748 0.000095
vt 0.902748 0.999905
vt 0.000093 0.872083
vt 0.708760 0.000093
vt 0.999907 0.872083
vt 0.000081 0.999919
vt 0.000081 0.000082
vt 0.665391 0.356284
vt 0.000099 0.985699
vt 0.875741 0.000099
vt 0.999901 0.985699
vt 0.000099 0.982089
vt 0.914498 0.000098
vt 0.999901 0.982089
vt 0.999906 0.896149
vt 0.000095 0.073715
vt 0.999906 0.000094
vt 0.414089 0.999936
vt 0.000064 0.428001
vt 0.414089 0.000064
vt 0.000049 0.398724
vt 0.239838 0.000049
vt 0.239838 0.999951
vt 0.000061 0.139999
vt 0.374027 0.000061
vt 0.374027 0.999939
vt 0.000039 0.444307
vt 0.154601 0.000039
vt 0.154601 0.999961
vt 0.000057 0.999943
vt 0.000057 0.000057
vt 0.328067 0.010429
vt 0.000052 0.310443
vt 0.267727 0.000052
vt 0.267727 0.999948
vt 0.000054 0.503836
vt 0.288918 0.000054
vt 0.288918 0.999946
vt 0.000054 0.999946
vt 0.000054 0.000054
vt 0.287691 0.135316
vt 0.297554 0.999946
vt 0.000055 0.090488
vt 0.297555 0.000055
vt 0.000054 0.999946
vt 0.000054 0.000054
vt 0.296433 0.187059
vt 0.661220 0.999919
vt 0.000081 0.844799
vt 0.661220 0.000081
vt 0.000048 0.999952
vt 0.000048 0.000048
vt 0.228368 0.127918
vt 0.211307 0.999954
vt 0.000046 0.200117
vt 0.211307 0.000046
vt 0.000074 0.000074
vt 0.547787 0.000074
vt 0.484002 0.999926
vt 0.000073 0.999927
vt 0.000073 0.000073
vt 0.528389 0.402061
vt 0.621892 0.999921
vt 0.000079 0.595725
vt 0.621892 0.000079
vt 0.000095 0.061080
vt 0.999904 0.000095
vt 0.999904 0.909708
vt 0.393875 0.999937
vt 0.000063 0.790856
vt 0.393875 0.000063
vt 0.691700 0.999917
vt 0.000083 0.337969
vt 0.691700 0.000083
vt 0.384419 0.999938
vt 0.000062 0.397493
vt 0.384419 0.000062
vt 0.000049 0.398724
vt 0.239838 0.000049
vt 0.239839 0.999951
vt 0.000059 0.164234
vt 0.345695 0.000059
vt 0.345695 0.999941
vt 0.000039 0.455688
vt 0.148732 0.000039
vt 0.148732 0.999961
vt 0.043377 0.999943
vt 0.000057 0.000057
vt 0.328516 0.000057
vt 0.000051 0.284598
vt 0.260363 0.000051
vt 0.260363 0.999949
vt 0.000054 0.503836
vt 0.288918 0.000054
vt 0.288918 0.999946
vt 0.000054 0.999946
vt 0.000054 0.000054
vt 0.287691 0.135316
vt 0.297555 0.999945
vt 0.000054 0.090488
vt 0.297554 0.000055
vt 0.000054 0.999946
vt 0.000054 0.000054
vt 0.296433 0.187059
vt 0.000080 0.182105
vt 0.640163 0.000080
vt 0.640163 0.999920
vt 0.000048 0.999952
vt 0.000048 0.000048
vt 0.228361 0.141548
vt 0.211306 0.999954
vt 0.000046 0.200117
vt 0.211306 0.000046
vt 0.000073 0.999927
vt 0.000073 0.000073
vt 0.527739 0.451683
vt 0.130398 0.999906
vt 0.000094 0.000094
vt 0.879035 0.000094
vt 0.394638 0.999937
vt 0.000063 0.853723
vt 0.394638 0.000063
s 0
usemtl Материал
f 2/1/1 14/2/1 3/3/1
f 11/4/2 5/5/2 26/6/2
f 3/7/3 19/8/3 17/9/3
f 3/10/4 1/11/4 7/12/4
f 1/13/5 12/14/5 5/15/5
f 15/16/6 9/17/6 24/18/6
f 4/19/7 22/20/7 20/21/7
f 7/22/8 12/23/8 6/24/8
f 2/25/9 3/26/9 4/27/9
f 7/28/10 5/29/10 11/30/10
f 7/31/11 16/32/11 9/33/11
f 13/34/12 16/35/12 6/36/12
f 3/37/13 7/38/13 13/39/13
f 7/40/14 15/41/14 13/42/14
f 17/43/15 19/44/15 25/45/15
f 4/46/16 19/47/16 6/48/16
f 4/49/17 17/50/17 18/51/17
f 20/52/18 22/53/18 23/54/18
f 2/55/19 22/56/19 6/57/19
f 4/58/20 21/59/20 2/60/20
f 16/61/21 15/62/21 24/63/21
f 22/64/22 21/65/22 23/66/22
f 21/67/23 20/68/23 23/69/23
f 19/70/24 18/71/24 25/72/24
f 18/73/25 17/74/25 25/75/25
f 9/76/26 16/77/26 24/78/26
f 12/79/27 11/80/27 26/81/27
f 5/82/28 12/83/28 26/84/28
f 29/85/29 33/86/29 35/87/29
f 1/88/30 14/89/30 8/90/30
f 2/91/31 30/92/31 10/93/31
f 27/94/32 2/95/32 37/96/32
f 8/97/33 28/98/33 1/99/33
f 14/100/34 31/101/34 32/102/34
f 35/103/35 33/104/35 36/105/35
f 45/106/36 30/107/36 39/108/36
f 64/109/37 10/110/37 39/111/37
f 31/112/38 64/113/38 38/114/38
f 33/115/39 32/116/39 36/117/39
f 34/118/40 38/119/40 45/120/40
f 34/121/41 31/122/41 38/123/41
f 14/124/42 33/125/42 8/126/42
f 10/127/43 30/128/43 39/129/43
f 1/130/44 28/131/44 37/132/44
f 31/133/45 10/134/45 64/135/45
f 6/136/46 1/137/46 37/138/46
f 32/139/47 31/140/47 36/141/47
f 31/142/48 34/143/48 36/144/48
f 34/145/49 30/146/49 45/147/49
f 2/148/50 6/149/50 37/150/50
f 27/151/51 50/152/51 40/153/51
f 47/154/52 42/155/52 62/156/52
f 40/157/53 55/158/53 53/159/53
f 40/160/54 28/161/54 44/162/54
f 28/163/55 48/164/55 42/165/55
f 51/166/56 46/167/56 60/168/56
f 41/169/57 58/170/57 56/171/57
f 44/172/58 48/173/58 43/174/58
f 27/175/59 40/176/59 41/177/59
f 44/178/60 42/179/60 47/180/60
f 44/181/61 52/182/61 46/183/61
f 49/184/62 52/185/62 43/186/62
f 40/187/13 44/188/13 49/189/13
f 44/190/63 51/191/63 49/192/63
f 53/193/64 55/194/64 61/195/64
f 41/196/65 55/197/65 43/198/65
f 41/199/66 53/200/66 54/201/66
f 56/202/67 58/203/67 59/204/67
f 27/205/68 58/206/68 43/207/68
f 41/208/69 57/209/69 27/210/69
f 52/211/70 51/212/70 60/213/70
f 58/214/71 57/215/71 59/216/71
f 57/217/72 56/218/72 59/219/72
f 55/220/73 54/221/73 61/222/73
f 54/223/74 53/224/74 61/225/74
f 46/226/75 52/227/75 60/228/75
f 48/229/76 47/230/76 62/231/76
f 42/232/77 48/233/77 62/234/77
f 28/235/78 50/236/78 29/237/78
f 30/238/79 63/239/79 50/240/79
f 35/241/80 63/242/80 36/243/80
f 29/244/81 63/245/81 35/246/81
f 43/247/82 28/248/82 37/249/82
f 63/250/83 34/251/83 36/252/83
f 27/253/84 43/254/84 37/255/84
f 38/256/85 64/257/85 65/258/85
f 45/259/86 38/260/86 65/261/86
f 64/262/87 39/263/87 65/264/87
f 39/265/88 45/266/88 65/267/88
f 2/268/89 10/269/89 14/270/89
f 3/271/90 6/272/90 19/273/90
f 1/274/91 6/275/91 12/276/91
f 4/277/92 6/278/92 22/279/92
f 7/280/93 11/281/93 12/282/93
f 7/283/94 1/284/94 5/285/94
f 7/286/95 6/287/95 16/288/95
f 13/289/96 15/290/96 16/291/96
f 7/292/97 9/293/97 15/294/97
f 4/295/98 18/296/98 19/297/98
f 4/298/99 3/299/99 17/300/99
f 2/301/100 21/302/100 22/303/100
f 4/304/101 20/305/101 21/306/101
f 29/307/102 8/308/102 33/309/102
f 1/310/103 3/311/103 14/312/103
f 2/313/104 27/314/104 30/315/104
f 8/316/105 29/317/105 28/318/105
f 14/319/106 10/320/106 31/321/106
f 14/322/107 32/323/107 33/324/107
f 27/325/108 30/326/108 50/327/108
f 40/328/109 43/329/109 55/330/109
f 28/331/110 43/332/110 48/333/110
f 41/334/111 43/335/111 58/336/111
f 44/337/112 47/338/112 48/339/112
f 44/340/113 28/341/113 42/342/113
f 44/343/114 43/344/114 52/345/114
f 49/346/115 51/347/115 52/348/115
f 44/349/116 46/350/116 51/351/116
f 41/352/117 54/353/117 55/354/117
f 41/355/118 40/356/118 53/357/118
f 27/358/119 57/359/119 58/360/119
f 41/361/120 56/362/120 57/363/120
f 28/364/121 40/365/121 50/366/121
f 30/367/122 34/368/122 63/369/122
f 29/370/123 50/371/123 63/372/123
