# Blender 5.0.1
# www.blender.org
mtllib Topaz_Crawler_Hull.mtl
o Hull
v -1.258973 0.976369 0.449290
v -1.258973 0.628783 0.449290
v -1.258973 0.976369 -1.069365
v -1.258973 0.628783 -1.069365
v 1.236840 0.976369 0.449290
v 1.236840 0.628783 0.449290
v 1.236840 0.976369 -1.069365
v 1.236840 0.628783 -1.069365
v -0.430044 1.239051 -0.832539
v -0.430044 1.239051 0.117670
v 0.713580 1.239051 -0.832539
v 0.713580 1.239051 0.117670
v -0.430044 2.137260 -0.832539
v -0.430044 2.137260 0.117670
v 0.713580 2.137260 -0.832539
v 0.713580 2.137260 0.117670
v -0.014772 2.605603 -0.487499
v -0.014772 2.605603 -0.227370
v 0.298308 2.605603 -0.487499
v 0.298308 2.605603 -0.227370
v -0.724334 0.192823 0.123972
v -0.724334 0.192823 -0.744047
v 0.702202 0.192823 -0.744047
v 0.702202 0.192823 0.123972
v -0.279654 0.015123 -0.146607
v -0.279654 0.015123 -0.473468
v 0.257522 0.015123 -0.473468
v 0.257522 0.015123 -0.146607
vn -1.0000 -0.0000 -0.0000
vn -0.0000 -0.0000 -1.0000
vn 1.0000 -0.0000 -0.0000
vn -0.0000 -0.0000 1.0000
vn -0.3021 0.9533 -0.0000
vn 0.6320 -0.7750 -0.0000
vn 0.4487 0.8937 -0.0000
vn -0.0000 0.7839 0.6209
vn -0.0000 0.6696 -0.7427
vn 0.7482 0.6634 -0.0000
vn -0.0000 1.0000 -0.0000
vn -0.7482 0.6634 -0.0000
vn -0.0000 0.5931 0.8051
vn -0.0000 0.5931 -0.8051
vn -0.3711 -0.9286 -0.0000
vn -0.6320 -0.7750 -0.0000
vn -0.0000 -0.5981 0.8015
vn -0.0000 -0.5981 -0.8015
vn -0.0000 -1.0000 -0.0000
vn -0.0000 -0.8359 0.5489
vn -0.0000 -0.8359 -0.5489
vn 0.3711 -0.9286 -0.0000
vt 0.625000 0.000000
vt 0.375000 0.250000
vt 0.375000 0.000000
vt 0.625000 0.250000
vt 0.375000 0.500000
vt 0.625000 0.500000
vt 0.375000 0.750000
vt 0.625000 0.750000
vt 0.375000 1.000000
vt 0.125000 0.750000
vt 0.125000 0.500000
vt 0.625000 1.000000
vt 0.875000 0.500000
vt 0.875000 0.750000
s 0
f 2/1/1 1/3/1 3/2/1
f 4/4/2 3/2/2 7/5/2
f 8/6/3 7/5/3 5/7/3
f 6/8/4 5/7/4 1/9/4
f 3/2/5 1/3/5 10/3/5
f 8/6/6 6/8/6 24/8/6
f 12/7/3 11/5/3 15/5/3
f 7/5/7 11/5/7 12/7/7
f 5/7/8 12/7/8 10/9/8
f 7/5/9 3/2/9 9/2/9
f 16/7/10 15/5/10 19/5/10
f 9/2/1 10/3/1 14/3/1
f 10/9/4 12/7/4 16/7/4
f 11/5/2 9/2/2 13/2/2
f 19/5/11 17/11/11 18/10/11
f 13/2/12 14/3/12 18/3/12
f 14/9/13 16/7/13 20/7/13
f 15/5/14 13/2/14 17/2/14
f 21/1/15 22/4/15 26/4/15
f 2/1/16 4/4/16 22/4/16
f 6/8/17 2/12/17 21/12/17
f 4/4/18 8/6/18 23/6/18
f 26/13/19 27/6/19 28/8/19
f 24/8/20 21/12/20 25/12/20
f 22/4/21 23/6/21 27/6/21
f 23/6/22 24/8/22 28/8/22
f 2/1/1 3/2/1 4/4/1
f 4/4/2 7/5/2 8/6/2
f 8/6/3 5/7/3 6/8/3
f 6/8/4 1/9/4 2/12/4
f 3/2/5 10/3/5 9/2/5
f 8/6/6 24/8/6 23/6/6
f 12/7/3 15/5/3 16/7/3
f 7/5/7 12/7/7 5/7/7
f 5/7/8 10/9/8 1/9/8
f 7/5/9 9/2/9 11/5/9
f 16/7/10 19/5/10 20/7/10
f 9/2/1 14/3/1 13/2/1
f 10/9/4 16/7/4 14/9/4
f 11/5/2 13/2/2 15/5/2
f 19/5/11 18/10/11 20/7/11
f 13/2/12 18/3/12 17/2/12
f 14/9/13 20/7/13 18/9/13
f 15/5/14 17/2/14 19/5/14
f 21/1/15 26/4/15 25/1/15
f 2/1/16 22/4/16 21/1/16
f 6/8/17 21/12/17 24/8/17
f 4/4/18 23/6/18 22/4/18
f 26/13/19 28/8/19 25/14/19
f 24/8/20 25/12/20 28/8/20
f 22/4/21 27/6/21 26/4/21
f 23/6/22 28/8/22 27/6/22
