# Blender 5.0.1
# www.blender.org
mtllib Shell_5-5.mtl
o Shell_0.001
v -1.505399 7.018806 2.679971
v 2.620886 0.575679 -0.171693
v -1.395691 6.152748 4.873446
v 1.154192 -0.313859 1.154192
v -3.962336 6.867051 2.986815
v -1.423741 -0.413483 -1.264296
v -3.687645 6.067703 5.134890
v -1.154192 -0.313859 1.154192
v 0.313661 -0.128471 -1.541094
v -1.618158 0.012150 -1.509615
v -0.576361 2.126186 -0.376253
v -2.441982 2.128220 0.237578
v -0.185098 6.306488 -5.687743
v -2.159527 6.271928 -5.163991
v -0.703678 6.906736 -3.070522
v -2.824824 6.821086 -2.591100
v 1.901214 2.367038 1.139063
v 2.695142 6.068567 -1.004200
v 4.190976 3.610636 -3.249313
v 1.009472 6.184533 -1.358926
v 2.946029 3.735230 -3.669538
v 2.789767 2.820886 0.757975
v 3.371814 1.884037 -0.304976
v 3.347371 5.160723 -0.642144
v 4.329301 3.547232 -2.115932
v 1.321965 3.296613 1.503237
v -0.389599 3.095389 0.444565
v 1.917243 5.846452 -0.123975
v 0.955603 5.954550 -0.360907
v 3.405099 5.989407 -3.327494
v 0.463143 4.896801 -2.172073
v 0.030080 1.627510 -2.417005
v -0.344654 2.438368 -1.702536
v 1.373976 3.547641 -3.422687
v 3.091478 0.949607 -1.594544
v 1.522757 0.333564 -2.506040
v 4.099001 2.699717 -3.500136
v 3.239058 2.785779 -3.790405
v 3.928002 3.383318 -0.317723
v 0.830116 4.751633 0.592220
v -1.466787 7.113477 -4.173930
v 0.103036 5.519673 -2.898383
v 0.483263 1.434876 -2.074642
v -0.111156 2.816108 -1.139158
v 0.310338 5.188004 -4.336389
v -1.776377 3.167162 0.198324
v -0.647252 3.080547 0.017092
v -1.907508 6.250495 -1.239299
v -0.814736 6.242249 -1.587224
v -1.226719 4.800130 -0.422514
v -3.485685 5.872152 -2.785675
v -2.334783 0.672791 -2.496712
v -3.319103 1.955228 -0.959384
v -2.986889 5.460429 -4.714661
v -3.385476 3.445466 -2.796179
v -0.438790 5.128759 -5.839556
v -1.574410 0.441530 -3.048997
v -0.130758 0.330788 -3.280714
v -2.000193 5.201111 -5.380103
v -1.173088 2.595515 -4.751712
v -2.672161 7.811318 4.413543
v -0.397131 5.384779 4.351202
v 2.484702 1.383318 0.731391
v 1.968349 2.668590 1.671838
v 1.432372 0.745088 1.682693
v -0.594218 5.958299 2.809991
v -1.406613 0.504188 2.686555
v -3.094412 4.755617 5.338517
v -1.567501 4.812275 5.164342
v 0.131245 0.504188 2.686555
v -1.444389 2.304895 4.561298
v -4.070701 5.163910 4.451822
v -2.090400 0.175693 1.340266
v -2.090400 0.175693 -0.464107
v -4.285417 5.788729 2.772756
v -3.792401 2.569989 2.019832
v -2.616016 3.068990 -0.082161
v -1.794100 6.669045 1.744365
v -3.532681 6.604534 1.942685
v -1.067025 2.850050 -0.184742
v -2.245002 5.057349 0.361409
v 1.236140 3.273802 2.421442
v -1.395691 6.152748 4.873446
v 1.154192 -0.313859 1.154192
v -1.567501 4.812275 5.164342
v 0.131245 0.504188 2.686555
vn -0.7603 0.5709 0.3097
vn -0.9130 -0.4028 0.0646
vn -0.5898 -0.8015 0.0988
vn -0.0000 -0.9992 0.0412
vn 0.7336 -0.4478 0.5111
vn 0.4008 0.5389 -0.7409
vn -0.7469 0.2547 0.6143
vn -0.9181 -0.3939 0.0442
vn 0.1872 -0.9655 0.1810
vn -0.9750 -0.2073 -0.0794
vn -0.5269 0.7931 -0.3055
vn 0.8800 0.4702 0.0665
vn -0.7463 0.5849 -0.3178
vn -0.2558 0.1545 -0.9543
vn 0.0712 0.9974 -0.0122
vn 0.0128 0.9668 0.2553
vn 0.4139 -0.9047 -0.1009
vn 0.1677 0.4668 0.8683
vn -0.2021 0.5828 -0.7871
vn 0.5611 0.3225 0.7623
vn 0.8230 0.5638 -0.0689
vn 0.8637 -0.5012 -0.0536
vn 0.5386 -0.4636 0.7035
vn -0.7131 0.4796 0.5114
vn -0.3973 -0.5473 0.7366
vn 0.7495 0.2228 0.6234
vn -0.8979 0.4372 0.0523
vn -0.0936 -0.4097 -0.9074
vn -0.6049 0.2385 -0.7598
vn 0.3258 0.0766 -0.9423
vn 0.9121 0.3101 0.2682
vn -0.7548 0.2013 -0.6243
vn -0.9411 -0.2598 -0.2162
vn -0.9509 0.2939 -0.0969
vn 0.1362 -0.7645 -0.6301
vn -0.6220 -0.0076 -0.7830
vn 0.3317 0.2192 -0.9176
vn 0.9285 -0.1827 0.3231
vn -0.1200 0.6242 0.7720
vn 0.7282 -0.2648 0.6321
vn 0.9236 -0.3411 0.1750
vn 0.9107 0.3403 0.2343
vn -0.1651 0.8055 -0.5692
vn 0.0178 0.5349 0.8447
vn -0.5256 0.3167 0.7896
vn 0.8227 -0.2615 -0.5048
vn 0.0017 0.9831 0.1830
vn 0.4209 0.8988 -0.1227
vn 0.9901 0.0126 0.1398
vn 0.8501 0.0092 0.5266
vn 0.5663 0.4175 0.7106
vn -0.2022 0.4068 0.8909
vn 0.0563 0.9096 0.4117
vn 0.3082 -0.1621 0.9374
vn 0.9976 0.0646 0.0231
vn -0.0705 -0.4272 -0.9014
vn 0.2547 0.5625 0.7866
vn 0.6127 0.3832 0.6912
vn 0.1735 0.2984 0.9385
vn -0.8918 -0.3666 -0.2652
vn -0.7373 -0.6700 0.0868
vn -0.8012 0.2245 0.5547
vn -0.9910 -0.1187 -0.0613
vn -0.9991 -0.0413 0.0026
vn -0.9694 -0.0390 -0.2423
vn -0.7734 -0.3502 -0.5284
vn 0.2525 -0.4427 -0.8604
vn -0.0744 -0.9687 -0.2367
vn 0.9240 -0.1539 -0.3500
vn 0.7450 0.6323 0.2124
vn -0.1718 -0.5910 -0.7881
vn -0.2816 -0.3085 -0.9086
vn -0.6850 -0.3689 -0.6282
vn 0.7262 0.6510 0.2207
vn -0.1132 0.8726 -0.4751
vn 0.0947 0.3330 0.9382
vn 0.8288 0.5508 0.0990
vn 0.6271 0.6414 -0.4420
vn 0.1018 -0.4655 0.8792
vn 0.6943 0.5853 -0.4188
vn 0.1187 -0.2267 0.9667
vn -0.0000 -0.8822 0.4709
vn 0.1038 0.1982 0.9746
vn -0.9471 0.2418 0.2111
vn -0.6051 -0.5803 0.5452
vn -0.0000 -0.7212 0.6927
vn 0.6894 -0.1372 0.7112
vn -0.5977 -0.5815 0.5519
vn -0.4577 0.3031 -0.8359
vn -0.1314 -0.5617 0.8169
vn -0.0939 0.9557 -0.2789
vn -0.8215 0.0075 -0.5702
vn -0.8151 -0.5794 -0.0000
vn -0.9841 -0.1657 0.0642
vn -0.1090 0.6647 -0.7391
vn 0.8447 0.3606 -0.3955
vn -0.3123 0.0395 -0.9492
vn 0.7887 0.4827 0.3807
vn 0.5330 0.4601 -0.7100
vn -0.0329 0.2235 -0.9742
vn -0.5925 0.2791 -0.7556
vn 0.7107 -0.1459 0.6882
vn 0.4923 -0.3765 0.7848
vn 0.6573 -0.1639 0.7356
vn 0.8347 0.0125 0.5506
vn -0.4634 -0.8862 -0.0000
vn 0.2990 -0.9119 -0.2811
vn -0.5672 0.3907 0.7250
vn 0.1178 -0.4698 0.8749
vn -0.0515 -0.5163 -0.8549
vn -0.9288 -0.0893 -0.3597
vn 0.8639 0.5035 0.0084
vn -0.2700 0.1801 -0.9459
vn 0.0534 0.9724 0.2270
vn 0.3198 -0.9460 -0.0523
vn 0.1213 0.4882 0.8642
vn -0.1935 0.5935 -0.7812
vn 0.7915 -0.5972 -0.1300
vn 0.6230 -0.2833 0.7292
vn -0.3966 -0.5384 0.7435
vn 0.6959 0.2422 0.6761
vn -0.9312 0.3229 -0.1694
vn -0.0550 -0.4528 -0.8899
vn -0.7391 0.1161 -0.6635
vn -0.9448 -0.2412 -0.2218
vn -0.9279 0.3712 0.0356
vn 0.5548 -0.6562 -0.5114
vn -0.5414 -0.0603 -0.8386
vn 0.9399 -0.2331 0.2496
vn 0.8029 -0.2801 -0.5262
vn 0.9359 0.2125 0.2810
vn 0.8599 0.0789 0.5044
vn 0.5554 0.4195 0.7180
vn 0.1097 0.9402 0.3224
vn 0.1194 -0.3707 0.9210
vn 0.9892 0.0911 0.1149
vn 0.6313 -0.3495 -0.6923
vn -0.5700 -0.6436 0.5107
vn -0.6778 0.3382 0.6528
vn -0.9882 -0.1312 -0.0784
vn -0.1166 -0.9558 -0.2699
vn 0.9604 -0.0805 -0.2666
vn 0.6585 0.7290 0.1871
vn 0.7541 0.6220 -0.2108
vn -0.6933 0.1676 -0.7009
vn -0.0725 0.9414 -0.3295
vn 0.5057 0.5241 -0.6853
vn -0.1097 -0.3380 -0.9347
vt 0.000000 0.000000
vt 1.000000 0.000000
vt 1.000000 1.000000
vt 0.201818 -0.715997
vt -0.084165 1.254301
vt -0.084144 -0.366057
vt 0.000000 1.000000
vt 0.553138 0.000074
vt 0.125747 0.710618
vt 0.000074 0.188111
vt 0.563531 0.000075
vt 0.000075 0.855594
vt 0.000159 0.138089
vt 0.358304 1.523571
vt -0.276625 -0.523570
vt 0.805102 -0.523570
vt 0.341062 -0.499404
vt 0.007418 1.186050
vt -0.113548 -0.047590
vt -0.033438 1.229337
vt 0.179449 -0.014236
vt 0.166867 1.057193
vt 0.000066 0.999934
vt 0.000066 0.000066
vt 0.433306 0.653891
vt 0.000078 0.000078
vt 0.588980 0.651220
vt 0.000078 0.999922
vt 0.440508 0.000066
vt 0.000066 0.828772
vt 0.000125 0.079026
vt 0.000078 0.000078
vt 0.551819 0.906355
vt 0.000078 0.999922
vt 0.448876 0.999933
vt 0.000067 0.651613
vt 0.448876 0.000067
vt 0.000080 0.000080
vt 0.633170 0.673461
vt 0.000080 0.999920
vt -0.062414 -0.315708
vt 0.260293 1.003844
vt -0.062414 1.315708
vt 0.000061 0.000061
vt 0.334612 0.736599
vt 0.000061 0.999939
vt 0.000064 0.999936
vt 0.000064 0.000064
vt 0.412535 0.446269
vt 0.276989 0.000053
vt 0.000053 0.820267
vt 0.000093 0.163776
vt 0.000045 0.000045
vt 0.205651 0.737114
vt 0.000045 0.999955
vt 0.597172 0.000077
vt 0.000077 0.700874
vt 0.126266 0.055844
vt 0.000049 0.999951
vt 0.000049 0.000049
vt 0.240151 0.588462
vt 0.284278 -0.212062
vt -0.027677 0.961831
vt -0.049694 0.030597
vt 0.239098 0.000049
vt 0.000049 0.828431
vt 0.024212 0.098750
vt 0.336857 -0.333975
vt -0.084289 0.834567
vt -0.071026 0.006328
vt 0.000070 0.999929
vt 0.000071 0.000070
vt 0.496492 0.640596
vt 0.000077 0.000077
vt 0.594320 0.000077
vt 0.446136 0.999923
vt 0.000069 0.999931
vt 0.000069 0.000069
vt 0.472167 0.514048
vt 0.453722 0.050556
vt 0.000091 0.981955
vt 0.000091 0.000090
vt 0.282621 0.000053
vt 0.026912 0.734713
vt 0.000053 0.146385
vt 0.000078 0.124024
vt 0.297663 0.981481
vt 0.000078 0.999922
vt 0.000042 0.000042
vt 0.173430 0.733920
vt 0.000042 0.999958
vt 0.000086 0.000086
vt 0.743045 0.751793
vt 0.000086 0.999914
vt 0.186719 0.000043
vt 0.021494 0.704362
vt 0.000043 0.100887
vt 0.000081 0.099249
vt 0.662810 0.000081
vt 0.662810 0.999919
vt 0.825443 0.999909
vt 0.000091 0.538097
vt 0.825443 0.000091
vt 0.000066 0.999934
vt 0.000066 0.000066
vt 0.434336 0.562046
vt 0.000099 0.972842
vt 0.812384 0.000099
vt 0.999901 0.972842
vt 0.316503 0.999912
vt 0.000088 0.000088
vt 0.781238 0.000088
vt 0.000054 0.999946
vt 0.000054 0.000054
vt 0.293343 0.526731
vt 0.000088 0.999912
vt 0.000088 0.000088
vt 0.775678 0.269706
vt -0.047673 -0.538375
vt 0.087941 1.108354
vt -0.047673 1.538375
vt 0.403727 0.999917
vt 0.000083 0.000083
vt 0.693903 0.000083
vt 0.000063 0.999937
vt 0.000063 0.000063
vt 0.396313 0.683355
vt 0.000062 0.164891
vt 0.382238 0.999938
vt 0.045337 0.900736
vt 0.177720 0.000042
vt 0.066925 0.824301
vt 0.000042 0.238855
vt 0.000044 0.999956
vt 0.000044 0.000044
vt 0.191687 0.505175
vt 0.000088 0.000088
vt 0.744467 0.788074
vt 0.000088 0.999912
vt 0.184434 0.000043
vt 0.000043 0.762402
vt 0.030758 0.116421
vt 0.200125 -0.522675
vt -0.039238 1.207962
vt -0.068653 -0.287950
vt 0.000098 0.151396
vt 0.964692 0.000098
vt 0.964692 0.999902
vt 0.631997 -0.259279
vt -0.118575 0.938414
vt -0.130082 -0.244088
vt 0.382742 -0.449631
vt 0.036340 1.219962
vt -0.118665 -0.268185
vt 0.248820 -0.556722
vt 0.027809 1.316795
vt -0.088938 -0.225193
vt 0.000050 0.999950
vt 0.000050 0.000050
vt 0.248153 0.508016
vt 0.847816 0.999908
vt 0.000092 0.818660
vt 0.847816 0.000092
vt -0.086460 1.386748
vt -0.086460 -0.386748
vt 0.310186 0.530802
vt -0.110996 1.635149
vt -0.110997 -0.635149
vt 0.285877 0.509159
vt -0.121783 -0.712013
vt 0.149078 1.431099
vt -0.121783 1.712013
vt 0.000090 0.999910
vt 0.000090 0.000090
vt 0.808813 0.536142
vt 0.000075 0.000075
vt 0.557010 0.000075
vt 0.366526 0.999925
vt 0.000075 0.179787
vt 0.561924 0.000075
vt 0.561924 0.999925
vt -0.041932 1.254247
vt -0.041932 -0.254247
vt 0.207059 0.504487
vt 0.000099 0.620321
vt 0.999901 0.000100
vt 0.999900 0.990538
vt 0.000097 0.580225
vt 0.940906 0.000097
vt 0.940906 0.999903
vt 0.125199 -0.389966
vt -0.028638 0.998370
vt -0.035091 -0.290845
vt -0.061762 -0.723795
vt 0.147183 1.351508
vt -0.061762 1.723795
vt 0.000036 0.179432
vt 0.125870 0.588806
vt 0.000035 0.999965
vt 0.000066 0.269616
vt 0.440760 0.000066
vt 0.440760 0.999934
vt 0.703211 0.098617
vt 0.000084 0.600629
vt 0.000084 0.000084
vt 0.610472 0.000078
vt 0.000078 0.775755
vt 0.000189 0.109513
vt 0.000071 0.000072
vt 0.511062 0.840456
vt 0.000071 0.999929
vt 0.320992 -0.639027
vt 0.320992 1.639027
vt -0.125100 0.604875
vt -0.109186 1.554269
vt -0.109187 -0.554269
vt 0.306314 0.401622
vt -0.215155 2.176004
vt -0.215155 -1.176004
vt 0.398209 0.658046
vt 0.145510 -0.741417
vt -0.013565 1.440925
vt -0.061914 -0.487729
vt 0.158262 -0.658703
vt -0.062810 1.382214
vt -0.062801 -0.429293
vt 0.000066 0.000066
vt 0.429057 0.782870
vt 0.000065 0.999935
vt -0.077505 1.464354
vt -0.077504 -0.464354
vt 0.244554 0.574780
vt -0.089185 -0.089185
vt 1.089185 -0.089185
vt 1.089185 1.089185
vt 0.486570 0.999930
vt 0.000070 0.811049
vt 0.486569 0.000070
vt 0.000091 0.130255
vt 0.825161 0.000091
vt 0.825161 0.999909
vt 0.171120 -0.302119
vt 0.048261 1.086827
vt -0.039665 -0.101778
vt 1.069659 -0.069659
vt 0.000035 0.999965
vt 0.000035 0.000035
vt 0.125052 0.747339
vt -0.059254 1.264295
vt -0.059254 -0.264295
vt 0.283665 0.574853
vt 0.000089 0.021975
vt 0.784539 0.000089
vt 0.784539 0.999911
vt 0.000050 0.999950
vt 0.000050 0.000050
vt 0.246607 0.564911
vt 0.000072 0.214719
vt 0.525364 0.000072
vt 0.525364 0.999927
vt 0.103963 0.999968
vt 0.000032 0.416224
vt 0.103963 0.000032
vt 0.000040 0.999960
vt 0.000041 0.000040
vt 0.163714 0.439540
vt -0.114510 -0.834634
vt 0.251811 1.250734
vt -0.114510 1.834634
vt 0.201818 1.715997
vt 0.553138 0.999926
vt 0.563531 0.999925
vt 0.341062 1.499404
vt -0.033438 -0.229337
vt 0.601714 0.106353
vt 0.440508 0.999934
vt 0.605422 0.110578
vt 0.607568 0.096882
vt 0.238538 -0.039817
vt 0.368664 0.209032
vt 0.276989 0.999947
vt 0.194358 0.163373
vt 0.597172 0.999923
vt 0.284278 1.212062
vt 0.239098 0.999951
vt 0.336857 1.333975
vt 0.819259 0.999909
vt 0.282621 0.999947
vt 0.613441 0.000078
vt 0.173509 0.099824
vt 0.742921 0.061041
vt 0.186719 0.999957
vt 0.136329 -0.078008
vt 0.382238 0.000062
vt 0.177720 0.999958
vt 0.778199 0.262033
vt 0.184434 0.999957
vt 0.200125 1.522675
vt 0.631996 1.259278
vt 0.382742 1.449631
vt 0.248819 1.556721
vt 0.292940 -0.284422
vt 0.125199 1.389966
vt 0.147173 -0.404699
vt 0.125855 0.000035
vt 0.703410 0.999916
vt 0.610471 0.999922
vt 0.511000 0.058806
vt 0.145510 1.741417
vt 0.158262 1.658703
vt 0.427146 0.076965
vt 0.171120 1.302119
vt 0.251777 -0.527735
s 0
usemtl Material.015
f 5/1/1 7/2/1 61/3/1
f 7/4/2 67/5/2 68/6/2
f 8/2/3 74/7/3 6/1/3
f 6/8/4 4/9/4 8/10/4
f 4/11/5 63/12/5 65/13/5
f 1/14/6 17/15/6 11/16/6
f 16/17/7 46/18/7 48/19/7
f 6/1/8 12/3/8 10/7/8
f 6/2/9 9/7/9 2/1/9
f 12/20/10 79/21/10 77/22/10
f 14/23/11 16/24/11 41/25/11
f 15/26/12 45/27/12 13/28/12
f 16/29/13 54/30/13 51/31/13
f 13/32/14 59/33/14 14/34/14
f 20/35/15 18/36/15 30/37/15
f 20/38/16 28/39/16 18/40/16
f 2/1/17 36/3/17 35/7/17
f 17/41/18 24/42/18 18/43/18
f 21/44/19 31/45/19 20/46/19
f 24/47/20 22/48/20 39/49/20
f 19/50/21 24/51/21 25/52/21
f 19/53/22 23/54/22 2/55/22
f 17/56/23 23/57/23 22/58/23
f 29/59/24 27/60/24 40/61/24
f 17/2/25 27/7/25 11/1/25
f 17/62/26 28/63/26 26/64/26
f 20/65/27 27/66/27 29/67/27
f 21/68/28 32/69/28 34/70/28
f 21/71/29 20/72/29 30/73/29
f 19/74/30 21/75/30 30/76/30
f 18/77/31 19/78/31 30/79/31
f 33/80/32 34/81/32 32/82/32
f 11/2/33 32/7/33 9/1/33
f 11/83/34 31/84/34 33/85/34
f 35/86/35 38/87/35 37/88/35
f 21/89/36 36/90/36 9/91/36
f 19/92/37 38/93/37 21/94/37
f 19/95/38 35/96/38 37/97/38
f 28/98/39 29/99/39 40/100/39
f 22/101/40 23/102/40 39/103/40
f 23/104/41 25/105/41 39/106/41
f 25/107/42 24/108/42 39/109/42
f 13/110/43 14/111/43 41/112/43
f 26/113/44 28/114/44 40/115/44
f 27/116/45 26/117/45 40/118/45
f 13/119/46 43/120/46 9/121/46
f 16/122/47 15/123/47 41/124/47
f 15/125/48 13/126/48 41/127/48
f 44/128/49 45/129/49 42/130/49
f 11/1/50 43/3/50 44/7/50
f 15/131/51 44/132/51 42/133/51
f 48/134/52 46/135/52 50/136/52
f 16/137/53 49/138/53 15/139/53
f 11/2/54 46/7/54 12/1/54
f 11/140/55 49/141/55 47/142/55
f 14/143/56 52/144/56 54/145/56
f 49/1/57 48/2/57 50/3/57
f 47/1/58 49/2/58 50/3/58
f 46/1/59 47/2/59 50/3/59
f 52/146/60 53/147/60 55/148/60
f 10/149/61 53/150/61 52/151/61
f 12/152/62 51/153/62 53/154/62
f 10/155/63 59/156/63 57/157/63
f 53/158/64 51/159/64 55/160/64
f 51/161/65 54/162/65 55/163/65
f 54/164/66 52/165/66 55/166/66
f 56/167/67 58/168/67 60/169/67
f 10/2/68 58/7/68 9/1/68
f 9/170/69 56/171/69 13/172/69
f 3/173/70 1/174/70 61/175/70
f 58/176/71 57/177/71 60/178/71
f 59/179/72 56/180/72 60/181/72
f 57/182/73 59/183/73 60/184/73
f 3/2/74 66/7/74 1/1/74
f 1/185/75 5/186/75 61/187/75
f 7/188/76 3/189/76 61/190/76
f 66/1/77 62/2/77 82/3/77
f 17/191/78 66/192/78 64/193/78
f 4/194/79 62/195/79 3/196/79
f 17/197/80 63/198/80 2/199/80
f 69/200/81 68/201/81 71/202/81
f 8/203/82 70/204/82 67/205/82
f 3/206/83 68/207/83 69/208/83
f 5/209/84 72/210/84 7/211/84
f 68/212/85 67/213/85 71/214/85
f 67/1/86 70/2/86 71/3/86
f 70/215/87 69/216/87 71/217/87
f 73/218/88 72/219/88 76/220/88
f 5/221/89 74/222/89 75/223/89
f 8/224/90 72/225/90 73/226/90
f 1/227/91 79/228/91 5/229/91
f 75/230/92 74/231/92 76/232/92
f 74/233/93 73/234/93 76/235/93
f 72/236/94 75/237/94 76/238/94
f 79/239/95 78/240/95 81/241/95
f 1/242/96 80/243/96 78/244/96
f 12/245/97 80/7/97 11/1/97
f 64/246/98 66/247/98 82/248/98
f 78/249/99 80/250/99 81/251/99
f 80/252/100 77/253/100 81/254/100
f 77/255/101 79/256/101 81/257/101
f 65/258/102 63/259/102 82/260/102
f 63/261/103 64/262/103 82/263/103
f 62/264/104 65/265/104 82/266/104
f 83/267/105 86/268/105 84/269/105
f 7/4/2 8/270/2 67/5/2
f 8/2/106 73/3/106 74/7/106
f 6/8/107 2/271/107 4/9/107
f 4/11/5 2/272/5 63/12/5
f 16/17/108 12/273/108 46/18/108
f 6/1/109 5/2/109 12/3/109
f 6/2/110 10/3/110 9/7/110
f 12/20/111 5/274/111 79/21/111
f 15/26/112 42/275/112 45/27/112
f 16/29/13 14/276/13 54/30/13
f 13/32/113 56/277/113 59/33/113
f 20/38/114 29/278/114 28/39/114
f 2/1/115 9/2/115 36/3/115
f 17/41/116 22/279/116 24/42/116
f 21/44/117 34/280/117 31/45/117
f 19/50/21 18/281/21 24/51/21
f 19/53/118 25/282/118 23/54/118
f 17/56/119 2/283/119 23/57/119
f 17/2/120 26/3/120 27/7/120
f 17/62/121 18/284/121 28/63/121
f 20/65/122 11/285/122 27/66/122
f 21/68/123 9/286/123 32/69/123
f 33/80/124 31/287/124 34/81/124
f 11/2/125 33/3/125 32/7/125
f 11/83/126 20/288/126 31/84/126
f 35/86/127 36/289/127 38/87/127
f 21/89/128 38/290/128 36/90/128
f 19/92/37 37/291/37 38/93/37
f 19/95/129 2/292/129 35/96/129
f 13/119/130 45/293/130 43/120/130
f 44/128/131 43/294/131 45/129/131
f 11/1/132 9/2/132 43/3/132
f 15/131/133 11/295/133 44/132/133
f 16/137/134 48/296/134 49/138/134
f 11/2/135 47/3/135 46/7/135
f 11/140/136 15/297/136 49/141/136
f 14/143/137 10/298/137 52/144/137
f 10/149/138 12/299/138 53/150/138
f 12/152/139 16/300/139 51/153/139
f 10/155/140 14/301/140 59/156/140
f 10/2/141 57/3/141 58/7/141
f 9/170/142 58/302/142 56/171/142
f 3/2/143 62/3/143 66/7/143
f 17/191/144 1/303/144 66/192/144
f 4/194/79 65/304/79 62/195/79
f 17/197/80 64/305/80 63/198/80
f 8/203/82 4/306/82 70/204/82
f 3/206/83 7/307/83 68/207/83
f 5/209/84 75/308/84 72/210/84
f 5/221/145 6/309/145 74/222/145
f 8/224/90 7/310/90 72/225/90
f 1/227/146 78/311/146 79/228/146
f 1/242/147 11/312/147 80/243/147
f 12/245/148 77/3/148 80/7/148
f 83/267/105 85/313/105 86/268/105
