# Blender 5.0.1
# www.blender.org
o Stagger_1
v -0.339029 0.712269 -0.409474
v -0.349049 0.841457 -1.628400
v -1.245614 0.966774 -0.971095
v -1.221822 0.973917 -1.501580
v -1.549402 0.609576 0.925057
v -0.821663 0.607757 -0.959325
v -1.178300 0.998598 -0.379301
v -0.285549 1.230303 -1.007270
v -1.777413 0.395446 0.113145
v -0.381718 0.958177 -1.683395
v -1.627851 0.587573 0.663866
v -1.623483 0.291355 0.810294
v -1.245614 0.966774 -0.971095
v -0.606187 1.117611 -1.343509
v -1.832287 0.421669 -0.111650
v -1.783688 0.167385 -0.015519
v -1.803218 0.699390 -1.528344
v -1.648517 0.737652 -1.707432
v -1.650068 0.480565 -1.600799
v -0.930549 0.612220 -2.137271
v -0.694817 0.589494 -2.255979
v -0.811894 0.357564 -2.053791
v -0.626433 0.245441 -3.036612
v -2.259510 -0.154680 0.719499
v -2.137399 0.090463 -2.590713
v -2.094917 -0.104836 1.697555
v 0.068771 0.834639 -1.661656
v 0.119765 0.718226 -0.454061
v 0.168281 1.235951 -1.057565
v 0.070106 0.934291 -1.708273
v -0.361436 1.712726 -2.272572
v -0.823288 1.997212 -1.793808
v -0.327087 2.180474 -1.240397
v 0.112902 1.711030 -2.288340
v 0.120174 2.159344 -1.249972
v -0.114668 2.544158 -2.089504
v -0.110308 0.674137 -1.013566
v -0.144072 1.567612 -2.098945
v -0.170953 1.167852 -1.938295
v 0.957906 0.942831 -1.017376
v 0.941926 0.949729 -1.524129
v 1.196674 0.525316 0.995127
v 0.518622 0.595864 -1.034377
v 0.883085 0.975488 -0.426529
v -0.000776 1.321264 -2.035737
v 1.448010 0.492277 0.113444
v 1.278336 0.502375 0.735005
v 1.253591 0.216492 0.906296
v 0.957906 0.942831 -1.017376
v 0.331263 1.046265 -1.397162
v 1.506180 0.517837 -0.110598
v 1.453327 0.264148 -0.015143
v 1.464388 0.643929 -1.536059
v 1.344984 0.667196 -1.742626
v 1.367169 0.408102 -1.643405
v 0.608193 0.618476 -2.152637
v 0.390866 0.674623 -2.251710
v 0.566190 0.441086 -2.262139
v 0.228988 0.193119 -3.080609
v 1.960488 -0.275679 0.814533
v 2.065497 0.146704 -2.388802
v 1.741974 -0.172745 1.616399
v 0.561489 1.987437 -1.782088
v -0.309922 1.346630 -2.004193
v -0.160380 1.342952 -2.051758
vn -0.5321 0.3153 -0.7858
vn -0.6998 0.6981 0.1514
vn -0.4460 -0.5468 0.7086
vn 0.3189 0.9438 -0.0870
vn 0.6993 -0.3809 0.6049
vn -0.5887 0.7738 0.2340
vn -0.8784 -0.4561 -0.1429
vn -0.8862 -0.1681 -0.4316
vn 0.1529 0.9880 0.0202
vn -0.5449 0.8333 0.0935
vn 0.7744 -0.3269 0.5417
vn -0.4444 -0.5480 -0.7087
vn 0.0110 0.9999 -0.0007
vn -0.6534 0.7563 0.0337
vn -0.6014 -0.5968 0.5312
vn 0.6019 -0.3813 -0.7017
vn -0.4147 0.8945 -0.1671
vn -0.8853 -0.4504 -0.1157
vn 0.6277 -0.7576 0.1788
vn 0.0787 0.9094 -0.4084
vn -0.7000 -0.3657 -0.6134
vn 0.9341 -0.2891 0.2093
vn -0.1188 0.9047 -0.4091
vn 0.9091 -0.1643 -0.3828
vn -0.5316 0.7961 -0.2891
vn 0.8579 -0.2702 0.4370
vn -0.7898 -0.2811 -0.5452
vn 0.8877 -0.3245 0.3268
vn 0.0306 0.2054 0.9782
vn -0.6753 0.5862 0.4475
vn -0.0726 -0.4417 -0.8942
vn -0.0357 -0.9677 -0.2495
vn 0.0541 0.7522 0.6567
vn -0.7634 -0.4335 -0.4788
vn 0.0518 0.9132 0.4041
vn 0.1255 -0.6274 -0.7685
vn -0.3572 -0.5546 -0.7515
vn 0.2711 -0.5440 -0.7941
vn -0.5394 0.8144 0.2139
vn -0.3699 -0.4269 -0.8252
vn -0.0235 -0.7814 -0.6236
vn -0.7389 0.1299 0.6611
vn -0.0759 -0.7383 -0.6701
vn 0.0198 -0.9973 0.0704
vn -0.2199 -0.5967 -0.7718
vn 0.1000 -0.9899 0.1004
vn -0.5710 0.3345 -0.7497
vn -0.0316 0.2239 -0.9741
vn 0.3139 -0.5791 -0.7523
vn 0.0674 -0.9558 -0.2863
vn 0.5289 0.3243 -0.7843
vn 0.7038 0.6921 0.1599
vn 0.4447 -0.5164 0.7318
vn -0.3150 0.9446 -0.0921
vn -0.7842 -0.3007 0.5428
vn 0.6805 0.6869 0.2551
vn 0.8510 0.1148 -0.5124
vn 0.8914 -0.2401 -0.3845
vn -0.1334 0.9909 0.0177
vn 0.5995 0.7915 0.1184
vn -0.7831 -0.3191 0.5338
vn 0.4905 -0.5896 -0.6417
vn 0.5822 0.8125 0.0288
vn 0.5233 -0.5222 0.6734
vn -0.5988 -0.3073 -0.7396
vn 0.4928 0.8493 -0.1892
vn 0.9223 0.0199 -0.3860
vn -0.5549 -0.8278 0.0829
vn -0.0780 0.9506 -0.3004
vn 0.6573 -0.3815 -0.6500
vn -0.7022 -0.5475 0.4552
vn 0.4269 0.7433 -0.5151
vn -0.7469 -0.2926 -0.5971
vn 0.4694 0.8657 -0.1738
vn -0.8899 -0.2395 0.3881
vn 0.6030 -0.4478 -0.6602
vn -0.8557 -0.2824 0.4337
vn 0.9192 0.2593 0.2963
vn 0.7689 -0.3940 -0.5036
vn 0.5633 0.7994 0.2089
vn 0.7847 0.1654 0.5974
vn -0.1184 -0.9849 0.1263
vn 0.6055 0.3374 -0.7208
vn -0.1277 -0.9539 -0.2715
vn -0.3023 -0.1749 -0.9370
vn 0.0694 -0.2099 -0.9753
vn -0.2718 -0.5117 -0.8150
vn 0.0103 -0.5442 -0.8389
vn -0.8386 -0.4059 -0.3634
vn -0.4674 -0.5287 0.7085
vn 0.2667 -0.9624 -0.0512
vn -0.7636 -0.6309 0.1374
vn -0.8530 -0.2413 -0.4627
vn 0.3135 0.8818 0.3522
vn 0.7343 -0.2604 0.6269
vn -0.6367 -0.3762 -0.6732
vn -0.5876 0.7746 0.2338
vn 0.5502 -0.3227 -0.7701
vn -0.4267 0.9044 -0.0070
vn 0.7908 -0.5771 -0.2040
vn -0.2000 0.8094 -0.5522
vn 0.1039 0.2413 0.9649
vn 0.0133 0.9186 0.3949
vn -0.0788 -0.4215 -0.9034
vn 0.0629 0.7550 0.6527
vn -0.8542 -0.3056 -0.4208
vn -0.7597 0.1378 0.6355
vn 0.7830 -0.2721 -0.5593
vn 0.4044 -0.5479 0.7323
vn -0.3558 -0.9334 -0.0477
vn 0.7120 -0.6927 0.1149
vn 0.8468 -0.3254 -0.4207
vn -0.3106 0.8843 0.3485
vn -0.7527 -0.2515 0.6084
vn 0.7059 -0.3735 -0.6019
vn 0.5000 0.8362 0.2252
vn -0.6172 -0.3269 -0.7157
vn 0.5051 0.8631 -0.0042
vn -0.7760 -0.5706 -0.2689
vn 0.4434 0.6741 -0.5907
vn -0.0381 0.9464 0.3206
vn 0.7835 -0.3990 -0.4764
vn 0.8932 -0.0351 0.4483
vt 0.487045 0.999930
vt 0.487045 0.000070
vt 0.000070 0.426706
vt 0.214221 0.999954
vt 0.214221 0.000046
vt 0.000046 0.942851
vt 0.000047 0.999953
vt 0.220695 0.194544
vt 0.000047 0.000047
vt 0.000072 0.999928
vt 0.514536 0.679456
vt 0.000072 0.000072
vt 0.235750 0.999951
vt 0.235750 0.000048
vt 0.000049 0.005179
vt 0.188531 0.999957
vt 0.188531 0.000044
vt 0.000043 0.917221
vt 0.000058 0.999942
vt 0.333627 0.294762
vt 0.000058 0.000058
vt 0.000056 0.667847
vt 0.315856 0.999944
vt 0.315856 0.000056
vt 0.000072 0.999928
vt 0.516953 0.298181
vt 0.000072 0.000072
vt 0.000042 0.999959
vt 0.171970 0.159537
vt 0.000042 0.000041
vt 0.000047 0.999953
vt 0.219800 0.144057
vt 0.000047 0.000047
vt 0.000068 0.881739
vt 0.456816 0.999933
vt 0.456816 0.000068
vt 0.000000 0.000000
vt 0.000072 0.700602
vt 0.514518 0.999928
vt 0.514518 0.000072
vt 0.212890 0.999954
vt 0.212890 0.000046
vt 0.000046 0.877709
vt 0.000081 0.624638
vt 0.662184 0.999919
vt 0.662184 0.000081
vt 0.000048 0.999952
vt 0.228287 0.192283
vt 0.000048 0.000048
vt 0.233381 0.999952
vt 0.233381 0.000048
vt 0.000048 0.858827
vt 0.000087 0.999913
vt 0.762196 0.999913
vt 0.585802 0.000087
vt 0.000066 0.428623
vt 0.438721 0.999934
vt 0.438721 0.000066
vt 0.000038 0.173711
vt 0.147768 0.999962
vt 0.147768 0.000038
vt 0.000047 0.182299
vt 0.218733 0.999953
vt 0.218733 0.000047
vt 0.232030 0.999952
vt 0.232030 0.000048
vt 0.000048 0.930438
vt 0.000033 0.179605
vt 0.110923 0.999967
vt 0.110923 0.000033
vt 0.174933 0.999958
vt 0.174933 0.000042
vt 0.000042 0.909102
vt 0.213153 0.999954
vt 0.213153 0.000046
vt 0.000046 0.878876
vt 0.000032 0.214892
vt 0.100956 0.999968
vt 0.100956 0.000032
vt 0.189708 0.999956
vt 0.189708 0.000043
vt 0.000043 0.806192
vt 0.000067 0.999934
vt 0.442187 0.192935
vt 0.000067 0.000067
vt 0.000060 0.999940
vt 0.359633 0.494321
vt 0.000060 0.000060
vt 0.000076 0.999925
vt 0.569351 0.423655
vt 0.000076 0.000075
vt 0.000090 0.210534
vt 0.811099 0.999910
vt 0.811099 0.000090
vt 0.999905 0.903632
vt 0.999905 0.000095
vt 0.000095 0.069866
vt 0.829997 0.999909
vt 0.829997 0.000091
vt 0.000091 0.150830
vt 0.000073 0.106308
vt 0.538929 0.999927
vt 0.538929 0.000073
vt 0.000059 0.999940
vt 0.000059 0.000059
vt 0.353104 0.797384
vt 0.000057 0.999943
vt 0.322932 0.770639
vt 0.000057 0.000057
vt 0.000060 0.999940
vt 0.367699 0.245359
vt 0.000060 0.000061
vt 0.862042 0.999907
vt 0.862042 0.000093
vt 0.000093 0.668421
vt 0.392842 0.999937
vt 0.392842 0.000063
vt 0.000063 0.229903
vt 0.000088 0.999912
vt 0.774686 0.447304
vt 0.000088 0.000088
vt 0.000066 0.999934
vt 0.430811 0.787157
vt 0.000066 0.000066
vt 0.000099 0.582486
vt 0.981127 0.999901
vt 0.981126 0.000099
vt 0.000096 0.000096
vt 0.575666 0.999904
vt 0.929252 0.000096
vt 0.000036 0.999964
vt 0.128602 0.523768
vt 0.000036 0.000036
vt 0.000095 0.999905
vt 0.903388 0.413344
vt 0.000095 0.000095
vt 0.797944 0.999911
vt 0.797944 0.000089
vt 0.000089 0.647506
vt 0.603800 0.999922
vt 0.603800 0.000078
vt 0.000078 0.856433
vt 0.000038 0.999962
vt 0.000038 0.000038
vt 0.143160 0.517628
vt 0.000100 0.692812
vt 0.994886 0.999900
vt 0.994886 0.000100
vt 0.499638 0.999929
vt 0.000071 0.407391
vt 0.499638 0.000071
vt 0.236822 0.999951
vt 0.000049 0.955190
vt 0.236822 0.000049
vt 0.000051 0.999949
vt 0.000051 0.000051
vt 0.262373 0.176714
vt 0.000072 0.999928
vt 0.000072 0.000072
vt 0.524579 0.637254
vt 0.000046 0.999954
vt 0.000046 0.000046
vt 0.207824 0.039594
vt 0.190770 0.999957
vt 0.000044 0.920207
vt 0.190770 0.000044
vt 0.000044 0.999956
vt 0.000044 0.000044
vt 0.190072 0.197911
vt 0.000055 0.696699
vt 0.304898 0.000055
vt 0.304898 0.999945
vt 0.000071 0.999929
vt 0.000071 0.000071
vt 0.504894 0.302768
vt 0.000039 0.999961
vt 0.000039 0.000039
vt 0.150771 0.143582
vt 0.000052 0.999948
vt 0.000052 0.000052
vt 0.269895 0.137627
vt 0.000073 0.999927
vt 0.005768 0.000073
vt 0.531550 0.999927
vt 0.000071 0.636676
vt 0.500619 0.000071
vt 0.500619 0.999929
vt 0.198677 0.999955
vt 0.000045 0.876605
vt 0.198677 0.000045
vt 0.000096 0.999904
vt 0.086797 0.000096
vt 0.923561 0.999904
vt 0.000047 0.999954
vt 0.000047 0.000047
vt 0.216556 0.185539
vt 0.165133 0.999959
vt 0.000041 0.910198
vt 0.165133 0.000041
vt 0.000083 0.999917
vt 0.511454 0.000083
vt 0.688234 0.999917
vt 0.000065 0.436948
vt 0.422714 0.000065
vt 0.422714 0.999935
vt 0.000035 0.178173
vt 0.122596 0.000035
vt 0.122596 0.999965
vt 0.156583 0.999960
vt 0.000040 0.889436
vt 0.156583 0.000040
vt 0.000031 0.177949
vt 0.093956 0.000031
vt 0.093956 0.999969
vt 0.168918 0.999959
vt 0.000041 0.913681
vt 0.168918 0.000041
vt 0.210094 0.999954
vt 0.000046 0.875597
vt 0.210094 0.000046
vt 0.000038 0.221988
vt 0.142309 0.000038
vt 0.142309 0.999962
vt 0.170804 0.999959
vt 0.000041 0.793157
vt 0.170804 0.000041
vt 0.000065 0.999935
vt 0.000065 0.000065
vt 0.422371 0.446777
vt 0.000063 0.999938
vt 0.000062 0.000062
vt 0.388977 0.849397
vt 0.798865 0.999911
vt 0.000089 0.694984
vt 0.798865 0.000089
vt 0.821364 0.999906
vt 0.000094 0.000094
vt 0.887528 0.000094
vt 0.000091 0.999909
vt 0.000091 0.000091
vt 0.829785 0.466541
vt 0.000098 0.000099
vt 0.999902 0.000098
vt 0.571350 0.969203
vt 0.655633 0.867933
vt 0.000093 0.000093
vt 0.999907 0.000093
vt 0.000081 0.999919
vt 0.665391 0.356284
vt 0.000081 0.000082
vt 0.000100 0.905193
vt 0.999900 0.997114
vt 0.999900 0.000100
vt 0.000079 0.999921
vt 0.623526 0.576226
vt 0.000079 0.000079
vt 0.999906 0.896149
vt 0.999906 0.000094
vt 0.000095 0.073715
vt 0.414089 0.999936
vt 0.414089 0.000064
vt 0.000064 0.428000
vt 0.000074 0.194988
vt 0.546886 0.999926
vt 0.546886 0.000074
vt 0.497668 0.999929
vt 0.395198 0.000070
vt 0.000071 0.999929
vt 0.000067 0.474902
vt 0.449430 0.999933
vt 0.449430 0.000067
vt 0.176586 0.999958
vt 0.176586 0.000042
vt 0.000042 0.199471
vt 0.000065 0.363854
vt 0.428538 0.999935
vt 0.428538 0.000065
vt 0.000074 0.336089
vt 0.547753 0.999926
vt 0.547753 0.000074
vt 0.162431 0.999960
vt 0.162431 0.000040
vt 0.000040 0.157879
vt 0.000052 0.999948
vt 0.268275 0.071595
vt 0.000052 0.000052
vt 0.218423 0.999953
vt 0.218423 0.000047
vt 0.000047 0.236081
vt 0.000089 0.209401
vt 0.783200 0.999912
vt 0.783200 0.000089
vt 0.314248 0.999944
vt 0.314248 0.000056
vt 0.000056 0.036603
vt 0.323974 0.999943
vt 0.323974 0.000057
vt 0.000057 0.264551
vt 0.467817 0.999932
vt 0.467817 0.000069
vt 0.000068 0.834704
vt 0.000073 0.999927
vt 0.528389 0.402061
vt 0.000073 0.000073
vt 0.621892 0.999921
vt 0.621892 0.000079
vt 0.000079 0.595725
vt 0.000095 0.061080
vt 0.999904 0.909708
vt 0.999904 0.000096
vt 0.393874 0.999937
vt 0.393874 0.000063
vt 0.000063 0.790856
vt 0.248605 0.999904
vt 0.917867 0.000096
vt 0.000096 0.000096
vt 0.384419 0.999938
vt 0.000062 0.397493
vt 0.384419 0.000062
vt 0.000070 0.256291
vt 0.494283 0.000070
vt 0.494283 0.999930
vt 0.000061 0.165183
vt 0.368355 0.000061
vt 0.368355 0.999939
vt 0.000061 0.453854
vt 0.367418 0.000061
vt 0.367418 0.999939
vt 0.141949 0.999962
vt 0.000038 0.187657
vt 0.141949 0.000038
vt 0.000065 0.278128
vt 0.428742 0.000065
vt 0.428742 0.999935
vt 0.000071 0.416500
vt 0.496863 0.000070
vt 0.496863 0.999930
vt 0.190657 0.999956
vt 0.000044 0.153712
vt 0.190657 0.000044
vt 0.000054 0.999946
vt 0.000054 0.000054
vt 0.291437 0.097638
vt 0.259201 0.999949
vt 0.000051 0.203850
vt 0.259201 0.000051
vt 0.000092 0.000092
vt 0.851261 0.000092
vt 0.612585 0.999908
vt 0.231015 0.999952
vt 0.000048 0.056765
vt 0.231015 0.000048
vt 0.313206 0.999944
vt 0.000056 0.167414
vt 0.313206 0.000056
vt 0.000073 0.999927
vt 0.000073 0.000073
vt 0.527739 0.451683
vt 0.623816 0.999921
vt 0.000079 0.340942
vt 0.623816 0.000079
vt 0.394638 0.999937
vt 0.000063 0.853723
vt 0.394638 0.000063
s 0
f 2/1/1 3/2/1 14/3/1
f 11/4/2 26/5/2 5/6/2
f 3/7/3 17/8/3 19/9/3
f 3/10/4 7/11/4 1/12/4
f 1/13/5 5/14/5 12/15/5
f 15/16/6 24/17/6 9/18/6
f 4/19/7 20/20/7 22/21/7
f 7/22/8 6/23/8 12/24/8
f 2/25/9 4/26/9 3/27/9
f 7/28/10 11/29/10 5/30/10
f 7/31/11 9/32/11 16/33/11
f 13/34/12 6/35/12 16/36/12
f 3/37/13 13/37/13 7/37/13
f 7/38/14 13/39/14 15/40/14
f 17/41/15 25/42/15 19/43/15
f 4/44/16 6/45/16 19/46/16
f 4/47/17 18/48/17 17/49/17
f 20/50/18 23/51/18 22/52/18
f 2/53/19 6/54/19 22/55/19
f 4/56/20 2/57/20 21/58/20
f 16/59/21 24/60/21 15/61/21
f 22/62/22 23/63/22 21/64/22
f 21/65/23 23/66/23 20/67/23
f 19/68/24 25/69/24 18/70/24
f 18/71/25 25/72/25 17/73/25
f 9/74/26 24/75/26 16/76/26
f 12/77/27 26/78/27 11/79/27
f 5/80/28 26/81/28 12/82/28
f 29/83/29 35/84/29 33/85/29
f 1/86/30 8/87/30 14/88/30
f 2/89/31 10/90/31 30/91/31
f 27/92/32 37/93/32 2/94/32
f 8/95/33 1/96/33 28/97/33
f 14/98/34 32/99/34 31/100/34
f 35/101/35 36/102/35 33/103/35
f 45/104/36 30/105/36 39/106/36
f 64/107/37 39/108/37 10/109/37
f 31/110/38 38/111/38 64/112/38
f 33/113/39 36/114/39 32/115/39
f 34/116/40 45/117/40 38/118/40
f 34/119/41 38/120/41 31/121/41
f 14/122/42 8/123/42 33/124/42
f 10/125/43 39/126/43 30/127/43
f 1/128/44 37/129/44 28/130/44
f 31/131/45 64/132/45 10/133/45
f 6/134/46 37/135/46 1/136/46
f 32/137/47 36/138/47 31/139/47
f 31/140/48 36/141/48 34/142/48
f 34/143/49 30/144/49 45/145/49
f 2/146/50 37/147/50 6/148/50
f 27/149/51 50/150/51 40/151/51
f 47/152/52 42/153/52 62/154/52
f 40/155/53 55/156/53 53/157/53
f 40/158/54 28/159/54 44/160/54
f 28/161/55 48/162/55 42/163/55
f 51/164/56 46/165/56 60/166/56
f 41/167/57 58/168/57 56/169/57
f 44/170/58 48/171/58 43/172/58
f 27/173/59 40/174/59 41/175/59
f 44/176/60 42/177/60 47/178/60
f 44/179/61 52/180/61 46/181/61
f 49/182/62 52/183/62 43/184/62
f 40/37/13 44/37/13 49/37/13
f 44/185/63 51/186/63 49/187/63
f 53/188/64 55/189/64 61/190/64
f 41/191/65 55/192/65 43/193/65
f 41/194/66 53/195/66 54/196/66
f 56/197/67 58/198/67 59/199/67
f 27/200/68 58/201/68 43/202/68
f 41/203/69 57/204/69 27/205/69
f 52/37/70 51/37/70 60/37/70
f 58/206/71 57/207/71 59/208/71
f 57/209/72 56/210/72 59/211/72
f 55/212/73 54/213/73 61/214/73
f 54/215/74 53/216/74 61/217/74
f 46/218/75 52/219/75 60/220/75
f 48/221/76 47/222/76 62/223/76
f 42/224/77 48/225/77 62/226/77
f 28/227/78 50/228/78 29/229/78
f 30/230/79 63/231/79 50/232/79
f 35/233/80 63/234/80 36/235/80
f 29/236/81 63/237/81 35/238/81
f 43/239/82 28/240/82 37/241/82
f 63/242/83 34/243/83 36/244/83
f 27/245/84 43/246/84 37/247/84
f 38/248/85 65/249/85 64/250/85
f 45/251/86 65/252/86 38/253/86
f 64/254/87 65/255/87 39/256/87
f 39/257/88 65/258/88 45/259/88
f 2/260/89 14/261/89 10/262/89
f 3/263/90 19/264/90 6/265/90
f 1/266/91 12/267/91 6/268/91
f 4/269/92 22/270/92 6/271/92
f 7/272/93 12/273/93 11/274/93
f 7/275/94 5/276/94 1/277/94
f 7/278/95 16/279/95 6/280/95
f 13/281/96 16/282/96 15/283/96
f 7/284/97 15/285/97 9/286/97
f 4/287/98 19/288/98 18/289/98
f 4/290/99 17/291/99 3/292/99
f 2/293/100 22/294/100 21/295/100
f 4/296/101 21/297/101 20/298/101
f 29/299/102 33/300/102 8/301/102
f 1/302/103 14/303/103 3/304/103
f 2/305/104 30/306/104 27/307/104
f 8/308/105 28/309/105 29/310/105
f 14/311/106 31/312/106 10/313/106
f 14/314/107 33/315/107 32/316/107
f 27/317/108 30/318/108 50/319/108
f 40/320/109 43/321/109 55/322/109
f 28/323/110 43/324/110 48/325/110
f 41/326/111 43/327/111 58/328/111
f 44/329/112 47/330/112 48/331/112
f 44/332/113 28/333/113 42/334/113
f 44/335/114 43/336/114 52/337/114
f 49/338/115 51/339/115 52/340/115
f 44/341/116 46/342/116 51/343/116
f 41/344/117 54/345/117 55/346/117
f 41/347/118 40/348/118 53/349/118
f 27/350/119 57/351/119 58/352/119
f 41/353/120 56/354/120 57/355/120
f 28/356/121 40/357/121 50/358/121
f 30/359/122 34/360/122 63/361/122
f 29/362/123 50/363/123 63/364/123
