# Blender 5.0.1
# www.blender.org
o 0
v -0.029704 0.697215 0.309079
v -0.076628 0.663974 -0.884636
v -0.941862 0.946615 -0.245769
v -0.906616 0.956506 -0.895043
v -1.604901 1.654582 1.686666
v -0.519516 0.345506 -0.248180
v -0.870394 0.978607 0.345529
v -0.023473 1.116917 0.064048
v -1.730543 1.568089 0.548926
v -0.061196 1.147885 -0.669480
v -1.709575 1.627891 1.346662
v -1.680820 1.286440 1.570165
v -0.941862 0.946615 -0.245769
v -0.315051 1.151082 -0.313285
v -1.804481 1.599104 0.256203
v -1.738217 1.295913 0.381008
v -1.812541 1.545499 -0.640798
v -1.795910 1.554695 -0.952943
v -1.766046 1.253433 -0.802885
v -1.626883 1.415257 -1.750723
v -1.503664 1.570189 -2.095150
v -1.578270 1.149716 -1.865279
v -2.530231 -0.099712 -2.551768
v -2.777540 -0.050549 0.405802
v -2.773638 -0.121789 -0.897776
v -2.562958 -0.052893 1.893437
v 0.387861 0.655550 -0.948986
v 0.428708 0.705879 0.261129
v 0.432195 1.145921 0.057075
v 0.391849 1.139479 -0.665689
v -0.081420 2.075063 -0.870749
v -0.535267 2.124447 -0.309465
v -0.028070 2.073921 0.261728
v 0.392341 2.091496 -0.893736
v 0.419074 2.069452 0.236770
v 0.157375 2.761667 -0.363561
v 0.194798 0.660655 -0.296691
v 0.144121 1.774541 -0.820201
v 0.145952 1.491707 -0.777623
v 1.261363 0.935609 -0.308223
v 1.225246 0.945500 -0.957448
v 1.926994 1.643576 1.623321
v 0.839015 0.334500 -0.310067
v 1.190689 0.967602 0.283171
v 0.275177 1.626354 -0.808683
v 2.051110 1.557083 0.485413
v 2.031211 1.616886 1.283177
v 2.002756 1.275434 1.506718
v 1.261363 0.935609 -0.308223
v 0.625930 1.114643 -0.316232
v 2.124655 1.588098 0.192591
v 2.058558 1.284907 0.317486
v 2.131512 1.534494 -0.704419
v 2.114462 1.543689 -1.016541
v 2.084799 1.242428 -0.866444
v 1.944365 1.404252 -1.814094
v 1.820684 1.559183 -2.158356
v 1.893092 1.159129 -1.864568
v 2.846637 -0.110717 -2.616350
v 3.097914 -0.061555 0.340885
v 3.092263 -0.132795 -0.962687
v 2.885327 -0.063899 1.828807
v 0.849356 2.144104 -0.326029
v 0.030053 1.630942 -0.796975
v 0.143597 1.617746 -0.845074
vn -0.2909 0.6647 -0.6881
vn -0.8393 0.4975 0.2193
vn -0.6086 -0.4569 0.6487
vn 0.3127 0.9457 -0.0890
vn 0.4850 -0.3532 0.8000
vn -0.8209 0.5079 0.2612
vn -0.8003 -0.3550 0.4833
vn -0.8234 0.0715 -0.5629
vn 0.3319 0.9428 0.0324
vn 0.4361 0.8767 -0.2031
vn -0.1541 -0.5156 0.8428
vn -0.6645 -0.4645 -0.5854
vn -0.0000 1.0000 -0.0000
vn 0.5573 0.8228 -0.1119
vn 0.4425 -0.3803 0.8121
vn -0.3262 -0.7769 -0.5386
vn 0.5549 0.8302 0.0540
vn -0.1130 -0.4110 0.9046
vn 0.0020 -0.8949 -0.4464
vn 0.3133 0.8996 0.3042
vn 0.3532 -0.2891 -0.8898
vn 0.8153 -0.3824 -0.4348
vn -0.8428 0.5348 -0.0610
vn 0.5307 -0.3351 -0.7785
vn -0.8639 0.5028 -0.0312
vn 0.5839 -0.4381 0.6835
vn 0.4293 -0.4690 -0.7718
vn 0.7309 -0.3383 0.5928
vn 0.0528 -0.1900 0.9804
vn -0.7236 0.3560 0.5914
vn 0.0152 0.4058 -0.9138
vn -0.0178 -0.9998 0.0026
vn 0.0806 0.5017 0.8613
vn -0.7733 -0.1726 -0.6101
vn 0.0483 0.6648 0.7455
vn 0.0505 -0.2703 -0.9615
vn -0.1181 -0.2325 -0.9654
vn 0.0041 -0.1629 -0.9866
vn -0.5460 0.6394 0.5414
vn -0.0910 -0.1569 -0.9834
vn -0.0408 -0.1954 -0.9799
vn -0.7904 -0.1276 0.5992
vn 0.0024 -0.3013 -0.9535
vn 0.0262 -0.9972 0.0699
vn -0.2121 -0.2117 -0.9540
vn 0.4067 -0.8904 0.2045
vn -0.5947 0.6011 -0.5338
vn -0.0595 0.6064 -0.7929
vn 0.2142 -0.2276 -0.9499
vn 0.3863 -0.9039 -0.1835
vn 0.2189 0.7488 -0.6256
vn 0.8396 0.4975 0.2182
vn 0.6095 -0.4569 0.6479
vn -0.3212 0.9428 -0.0894
vn -0.4986 -0.3533 0.7916
vn 0.8212 0.5079 0.2601
vn 0.8038 -0.2766 0.5267
vn 0.8227 0.0715 -0.5640
vn -0.3267 0.9446 0.0326
vn -0.4363 0.8767 -0.2025
vn 0.1552 -0.5156 0.8426
vn 0.6637 -0.4645 -0.5863
vn -0.5574 0.8228 -0.1111
vn -0.4414 -0.3803 0.8127
vn 0.3254 -0.7769 -0.5391
vn -0.5548 0.8302 0.0548
vn 0.3603 -0.2598 0.8959
vn 0.0180 -0.8882 -0.4590
vn -0.3086 0.9003 0.3070
vn -0.3544 -0.2891 -0.8893
vn -0.8359 -0.4151 -0.3592
vn 0.8427 0.5348 -0.0621
vn -0.5318 -0.3351 -0.7778
vn 0.8638 0.5028 -0.0324
vn -0.5830 -0.4381 0.6842
vn -0.4303 -0.4690 -0.7712
vn -0.7301 -0.3383 0.5937
vn 0.8769 0.1965 0.4386
vn 0.8111 -0.1813 -0.5562
vn 0.5563 0.6544 0.5121
vn 0.7967 -0.1045 0.5953
vn -0.4330 -0.8655 0.2517
vn 0.5820 0.6202 -0.5260
vn -0.4502 -0.8840 -0.1263
vn -0.3713 0.1467 -0.9168
vn 0.2543 0.1507 -0.9553
vn -0.3932 -0.4395 -0.8076
vn 0.2652 -0.4511 -0.8522
vn -0.7821 0.2738 -0.5598
vn -0.6099 -0.4312 0.6648
vn 0.0651 -0.8687 0.4911
vn -0.8083 0.1018 0.5798
vn -0.8165 -0.3628 -0.4491
vn 0.2913 0.9089 -0.2986
vn -0.2415 -0.7316 0.6375
vn -0.6686 -0.4033 -0.6247
vn 0.5560 0.8295 -0.0526
vn -0.2479 -0.4515 -0.8571
vn 0.5530 0.8321 0.0427
vn 0.3565 -0.4961 -0.7917
vn 0.0648 0.9012 0.4286
vn 0.0278 -0.2021 0.9790
vn -0.1780 0.7544 0.6318
vn -0.1097 0.5028 -0.8574
vn -0.0129 0.4207 0.9071
vn -0.8067 -0.1421 -0.5736
vn -0.7442 -0.1709 0.6457
vn 0.8032 0.2960 -0.5170
vn 0.6108 -0.4312 0.6640
vn -0.0839 -0.8619 0.5001
vn 0.7782 0.1534 0.6090
vn 0.8159 -0.3628 -0.4502
vn -0.3032 0.9074 -0.2911
vn 0.2423 -0.7316 0.6372
vn 0.6678 -0.4033 -0.6256
vn -0.5561 0.8295 -0.0518
vn 0.2468 -0.4515 -0.8575
vn -0.5529 0.8321 0.0434
vn -0.2584 -0.6018 -0.7557
vn -0.0643 0.9012 0.4287
vn 0.2074 0.7636 0.6115
vn 0.7771 -0.1470 -0.6120
vn 0.8661 -0.1836 0.4649
vt 0.733726 0.510872
vt 0.522634 0.797161
vt 0.544823 0.589849
vt -0.003841 1.051411
vt -0.184480 1.333761
vt -0.116310 1.016869
vt 0.653470 1.085023
vt 0.707065 1.069610
vt 0.327065 0.773657
vt 0.338933 0.495618
vt -0.077764 1.041950
vt 0.356814 1.082556
vt 0.307555 1.404397
vt 0.259989 1.058168
vt 0.737352 0.785361
vt 1.020500 1.023376
vt 1.058375 1.007273
vt 0.523337 0.657484
vt 0.315524 1.060669
vt 0.738670 1.402817
vt 0.756698 1.079453
vt 1.285621 1.321952
vt 1.134381 0.982549
vt 0.422173 0.342804
vt 0.362747 0.347183
vt 0.354593 0.495067
vt 0.419968 0.493503
vt 0.662567 0.505815
vt 0.661213 0.355986
vt 0.754905 0.357242
vt 0.539222 0.421236
vt 0.354689 0.344002
vt 0.543609 0.662679
vt 0.729135 0.512459
vt 0.561346 0.433598
vt 0.708529 0.394540
vt 0.698286 0.437284
vt 0.704712 0.475609
vt 0.712368 0.437880
vt 0.736632 0.355773
vt 0.545589 0.278649
vt 0.542799 0.068502
vt 0.016325 -0.185747
vt -0.096144 -0.151205
vt -0.164314 -0.468097
vt 0.727230 -0.203947
vt 0.673635 -0.219359
vt 0.347231 0.092006
vt -0.057598 -0.176287
vt 0.376980 -0.216893
vt 0.280155 -0.192505
vt 0.327721 -0.538734
vt 0.757518 0.080302
vt 1.057370 -0.140767
vt 1.040666 -0.157713
vt 0.543503 0.208180
vt 0.335690 -0.195006
vt 0.758836 -0.537154
vt 0.776864 -0.213790
vt 1.305786 -0.456288
vt 1.154547 -0.116886
vt 0.548780 0.204756
vt 0.720593 0.438048
s 0
f 2/1/1 3/2/1 14/3/1
f 11/4/2 26/5/2 5/6/2
f 3/2/3 17/7/3 19/8/3
f 3/2/4 7/9/4 1/10/4
f 1/10/5 5/6/5 12/11/5
f 15/12/6 24/13/6 9/14/6
f 4/15/7 20/16/7 22/17/7
f 7/9/8 6/18/8 12/11/8
f 2/1/9 4/15/9 3/2/9
f 7/9/10 11/4/10 5/6/10
f 7/9/11 9/14/11 16/19/11
f 13/2/12 6/18/12 16/19/12
f 3/2/13 13/2/13 7/9/13
f 7/9/14 13/2/14 15/12/14
f 17/7/15 25/20/15 19/8/15
f 4/15/16 6/18/16 19/8/16
f 4/15/17 18/21/17 17/7/17
f 20/16/18 23/22/18 22/17/18
f 2/1/19 6/18/19 22/17/19
f 4/15/20 2/1/20 21/23/20
f 16/19/21 24/13/21 15/12/21
f 22/17/22 23/22/22 21/23/22
f 21/23/23 23/22/23 20/16/23
f 19/8/24 25/20/24 18/21/24
f 18/21/25 25/20/25 17/7/25
f 9/14/26 24/13/26 16/19/26
f 12/11/27 26/5/27 11/4/27
f 5/6/28 26/5/28 12/11/28
f 29/24/29 35/25/29 33/26/29
f 1/10/30 8/27/30 14/3/30
f 2/1/31 10/28/31 30/29/31
f 27/30/32 37/31/32 2/1/32
f 8/27/33 1/10/33 28/32/33
f 14/3/34 32/33/34 31/34/34
f 35/25/35 36/35/35 33/26/35
f 45/36/36 30/29/36 39/37/36
f 64/38/37 39/37/37 10/28/37
f 31/34/38 38/39/38 64/38/38
f 33/26/39 36/35/39 32/33/39
f 34/40/40 45/36/40 38/39/40
f 34/40/41 38/39/41 31/34/41
f 14/3/42 8/27/42 33/26/42
f 10/28/43 39/37/43 30/29/43
f 1/10/44 37/31/44 28/32/44
f 31/34/45 64/38/45 10/28/45
f 6/18/46 37/31/46 1/10/46
f 32/33/47 36/35/47 31/34/47
f 31/34/48 36/35/48 34/40/48
f 34/40/49 30/29/49 45/36/49
f 2/1/50 37/31/50 6/18/50
f 27/30/51 50/41/51 40/42/51
f 47/43/52 42/44/52 62/45/52
f 40/42/53 55/46/53 53/47/53
f 40/42/54 28/32/54 44/48/54
f 28/32/55 48/49/55 42/44/55
f 51/50/56 46/51/56 60/52/56
f 41/53/57 58/54/57 56/55/57
f 44/48/58 48/49/58 43/56/58
f 27/30/59 40/42/59 41/53/59
f 44/48/60 42/44/60 47/43/60
f 44/48/61 52/57/61 46/51/61
f 49/42/62 52/57/62 43/56/62
f 40/42/13 44/48/13 49/42/13
f 44/48/63 51/50/63 49/42/63
f 53/47/64 55/46/64 61/58/64
f 41/53/65 55/46/65 43/56/65
f 41/53/66 53/47/66 54/59/66
f 56/55/67 58/54/67 59/60/67
f 27/30/68 58/54/68 43/56/68
f 41/53/69 57/61/69 27/30/69
f 52/57/70 51/50/70 60/52/70
f 58/54/71 57/61/71 59/60/71
f 57/61/72 56/55/72 59/60/72
f 55/46/73 54/59/73 61/58/73
f 54/59/74 53/47/74 61/58/74
f 46/51/75 52/57/75 60/52/75
f 48/49/76 47/43/76 62/45/76
f 42/44/77 48/49/77 62/45/77
f 28/32/78 50/41/78 29/24/78
f 30/29/79 63/62/79 50/41/79
f 35/25/80 63/62/80 36/35/80
f 29/24/81 63/62/81 35/25/81
f 43/56/82 28/32/82 37/31/82
f 63/62/83 34/40/83 36/35/83
f 27/30/84 43/56/84 37/31/84
f 38/39/85 65/63/85 64/38/85
f 45/36/86 65/63/86 38/39/86
f 64/38/87 65/63/87 39/37/87
f 39/37/88 65/63/88 45/36/88
f 2/1/89 14/3/89 10/28/89
f 3/2/90 19/8/90 6/18/90
f 1/10/91 12/11/91 6/18/91
f 4/15/92 22/17/92 6/18/92
f 7/9/93 12/11/93 11/4/93
f 7/9/94 5/6/94 1/10/94
f 7/9/95 16/19/95 6/18/95
f 13/2/96 16/19/96 15/12/96
f 7/9/97 15/12/97 9/14/97
f 4/15/98 19/8/98 18/21/98
f 4/15/99 17/7/99 3/2/99
f 2/1/100 22/17/100 21/23/100
f 4/15/101 21/23/101 20/16/101
f 29/24/102 33/26/102 8/27/102
f 1/10/103 14/3/103 3/2/103
f 2/1/104 30/29/104 27/30/104
f 8/27/105 28/32/105 29/24/105
f 14/3/106 31/34/106 10/28/106
f 14/3/107 33/26/107 32/33/107
f 27/30/108 30/29/108 50/41/108
f 40/42/109 43/56/109 55/46/109
f 28/32/110 43/56/110 48/49/110
f 41/53/111 43/56/111 58/54/111
f 44/48/112 47/43/112 48/49/112
f 44/48/113 28/32/113 42/44/113
f 44/48/114 43/56/114 52/57/114
f 49/42/115 51/50/115 52/57/115
f 44/48/116 46/51/116 51/50/116
f 41/53/117 54/59/117 55/46/117
f 41/53/118 40/42/118 53/47/118
f 27/30/119 57/61/119 58/54/119
f 41/53/120 56/55/120 57/61/120
f 28/32/121 40/42/121 50/41/121
f 30/29/122 34/40/122 63/62/122
f 29/24/123 50/41/123 63/62/123
