# Blender 5.0.1
# www.blender.org
o 2
v 0.058483 1.152165 -0.393240
v 0.011559 1.118924 -1.586955
v -0.853675 1.401565 -0.948088
v -0.818429 1.411456 -1.597362
v -1.639334 1.451910 0.975140
v -0.431329 0.800456 -0.950500
v -0.782207 1.433557 -0.356790
v 0.064714 1.571868 -0.638271
v -1.849699 1.428537 0.034382
v 0.026991 1.602835 -1.371799
v -1.744007 1.425220 0.635137
v -1.715252 1.083768 0.858640
v -0.853675 1.401565 -0.948088
v -0.226864 1.606032 -1.015604
v -1.923637 1.459552 -0.258341
v -1.857373 1.156361 -0.133535
v -1.871500 1.366056 -1.297079
v -1.854868 1.375251 -1.609224
v -1.825004 1.073990 -1.459166
v -1.673246 1.215535 -2.497103
v -1.594739 1.220602 -2.834000
v -1.585838 0.982686 -2.644591
v -2.629550 0.006343 -2.338012
v -2.714345 0.009621 0.219955
v -2.720008 0.027906 -1.047669
v -2.436112 -0.042212 1.432660
v 0.476048 1.110500 -1.651305
v 0.516895 1.160829 -0.441190
v 0.520382 1.600872 -0.645244
v 0.480036 1.594429 -1.368008
v 0.006767 2.530014 -1.573068
v -0.447080 2.579397 -1.011784
v 0.060117 2.528871 -0.440591
v 0.480528 2.546446 -1.596055
v 0.507261 2.524402 -0.465549
v 0.245562 3.216617 -1.065880
v 0.282985 1.115605 -0.999010
v 0.232308 2.229491 -1.522520
v 0.234139 1.946657 -1.479942
v 1.349550 1.390559 -1.010542
v 1.313433 1.400450 -1.659767
v 2.085517 1.305372 1.087641
v 0.927202 0.789450 -1.012387
v 1.278876 1.422552 -0.419148
v 0.363364 2.081305 -1.511002
v 2.299670 1.333889 0.025270
v 2.189734 1.278681 0.747498
v 2.161279 0.937230 0.971039
v 1.349550 1.390559 -1.010542
v 0.714117 1.569593 -1.018551
v 2.373214 1.364904 -0.267551
v 2.307118 1.061713 -0.142657
v 2.477877 1.227914 -1.291172
v 2.460827 1.237109 -1.603295
v 2.431164 0.935848 -1.453197
v 2.145126 1.248412 -2.529192
v 2.057152 1.258606 -2.836756
v 2.093853 1.003289 -2.579666
v 3.120652 0.006787 -2.290308
v 3.097514 0.049337 0.237307
v 3.136616 0.058087 -0.999343
v 2.939010 -0.044716 1.415439
v 0.937543 2.599054 -1.028348
v 0.118240 2.085892 -1.499294
v 0.231784 2.072696 -1.547393
vn -0.2909 0.6647 -0.6881
vn -0.8325 0.5101 0.2162
vn -0.2653 -0.4998 0.8245
vn 0.3127 0.9457 -0.0890
vn 0.5486 -0.3530 0.7579
vn -0.8090 0.5270 0.2602
vn -0.5187 -0.5879 0.6208
vn -0.8032 0.1048 -0.5864
vn 0.3319 0.9428 0.0324
vn -0.0678 0.9961 -0.0573
vn 0.2986 -0.5072 0.8084
vn -0.5296 -0.3691 -0.7637
vn -0.0000 1.0000 -0.0000
vn 0.0179 0.9983 -0.0562
vn 0.6546 -0.2845 0.7004
vn 0.1294 -0.6810 -0.7207
vn -0.0352 0.9990 0.0276
vn 0.5218 -0.3080 0.7955
vn 0.2634 -0.9235 -0.2788
vn 0.3169 0.8870 -0.3358
vn 0.0993 -0.3601 -0.9276
vn 0.3250 -0.5816 -0.7458
vn -0.7834 0.5967 -0.1736
vn 0.0981 -0.4359 -0.8946
vn -0.8466 0.5314 -0.0295
vn 0.7329 -0.3721 0.5696
vn 0.1662 -0.5302 -0.8314
vn 0.8408 -0.3131 0.4416
vn 0.0528 -0.1900 0.9804
vn -0.7236 0.3560 0.5914
vn 0.0152 0.4058 -0.9138
vn -0.0178 -0.9998 0.0026
vn 0.0806 0.5017 0.8613
vn -0.7733 -0.1726 -0.6101
vn 0.0483 0.6648 0.7455
vn 0.0505 -0.2703 -0.9615
vn -0.1181 -0.2325 -0.9654
vn 0.0041 -0.1629 -0.9866
vn -0.5460 0.6394 0.5414
vn -0.0910 -0.1569 -0.9834
vn -0.0408 -0.1954 -0.9799
vn -0.7904 -0.1276 0.5992
vn 0.0024 -0.3013 -0.9535
vn 0.0262 -0.9972 0.0699
vn -0.2121 -0.2117 -0.9540
vn 0.4067 -0.8904 0.2045
vn -0.5947 0.6011 -0.5338
vn -0.0595 0.6064 -0.7929
vn 0.2142 -0.2276 -0.9499
vn 0.3863 -0.9039 -0.1835
vn 0.2189 0.7488 -0.6256
vn 0.8047 0.5580 0.2028
vn 0.1412 -0.4974 0.8559
vn -0.3212 0.9428 -0.0894
vn -0.6375 -0.3488 0.6870
vn 0.8009 0.5401 0.2584
vn 0.6683 -0.2816 0.6885
vn 0.8480 0.0251 -0.5295
vn -0.3267 0.9446 0.0326
vn 0.1825 0.9830 -0.0212
vn -0.3830 -0.4926 0.7814
vn 0.5456 -0.3811 -0.7464
vn 0.0590 0.9972 -0.0469
vn -0.7211 -0.2443 0.6483
vn -0.1465 -0.6743 -0.7238
vn 0.1399 0.9899 0.0215
vn -0.3693 -0.1127 0.9224
vn -0.2334 -0.9250 -0.3000
vn -0.3142 0.8984 -0.3068
vn -0.0340 -0.3743 -0.9267
vn -0.4734 -0.6579 -0.5858
vn 0.7883 0.5797 -0.2063
vn 0.0187 -0.4473 -0.8942
vn 0.8744 0.4840 -0.0335
vn -0.7408 -0.3673 0.5624
vn -0.1913 -0.5264 -0.8284
vn -0.7494 -0.3351 0.5711
vn 0.8769 0.1965 0.4386
vn 0.8111 -0.1813 -0.5562
vn 0.5563 0.6544 0.5121
vn 0.7967 -0.1045 0.5953
vn -0.4330 -0.8655 0.2517
vn 0.5820 0.6202 -0.5260
vn -0.4502 -0.8840 -0.1263
vn -0.3713 0.1467 -0.9168
vn 0.2543 0.1507 -0.9553
vn -0.3932 -0.4395 -0.8076
vn 0.2652 -0.4511 -0.8522
vn -0.7821 0.2738 -0.5598
vn -0.3763 -0.2679 0.8869
vn 0.2699 -0.9035 0.3330
vn -0.8195 0.0813 0.5672
vn -0.6357 -0.4595 -0.6203
vn 0.3190 0.9280 0.1925
vn 0.3040 -0.5566 0.7732
vn -0.5076 -0.4205 -0.7520
vn 0.0311 0.9947 0.0975
vn 0.0258 -0.4437 -0.8958
vn -0.0393 0.9991 0.0131
vn 0.4997 -0.5280 -0.6867
vn -0.1930 0.9807 -0.0302
vn 0.0278 -0.2021 0.9790
vn -0.1780 0.7544 0.6318
vn -0.1097 0.5028 -0.8574
vn -0.0129 0.4207 0.9071
vn -0.8067 -0.1421 -0.5736
vn -0.7442 -0.1709 0.6457
vn 0.8032 0.2960 -0.5170
vn 0.2937 -0.2093 0.9327
vn -0.3765 -0.8767 0.2996
vn 0.7844 0.1436 0.6035
vn 0.6806 -0.4402 -0.5857
vn -0.3214 0.9152 0.2432
vn -0.3854 -0.5078 0.7704
vn 0.5263 -0.4194 -0.7396
vn 0.0365 0.9928 0.1143
vn -0.0192 -0.4444 -0.8956
vn 0.1444 0.9895 0.0070
vn -0.3989 -0.6785 -0.6169
vn 0.1651 0.9862 -0.0145
vn 0.2074 0.7636 0.6115
vn 0.7771 -0.1470 -0.6120
vn 0.8661 -0.1836 0.4649
vt 0.487045 0.999930
vt 0.487045 0.000070
vt 0.000070 0.426706
vt 0.223832 0.999953
vt 0.223832 0.000047
vt 0.000047 0.951142
vt 0.000057 0.999943
vt 0.323479 0.101685
vt 0.000057 0.000057
vt 0.000072 0.999928
vt 0.514536 0.679456
vt 0.000072 0.000072
vt 0.000046 0.999954
vt 0.212070 0.003012
vt 0.000046 0.000046
vt 0.200486 0.999955
vt 0.200486 0.000045
vt 0.000045 0.957164
vt 0.000047 0.999953
vt 0.218063 0.100182
vt 0.000047 0.000047
vt 0.000053 0.659306
vt 0.284741 0.999947
vt 0.284741 0.000053
vt 0.000074 0.999926
vt 0.541403 0.357838
vt 0.000074 0.000074
vt 0.000045 0.999955
vt 0.201825 0.144961
vt 0.000045 0.000045
vt 0.150563 0.999942
vt 0.333373 0.000058
vt 0.000058 0.000058
vt 0.000062 0.710625
vt 0.383167 0.999938
vt 0.383167 0.000062
vt 0.000000 0.000000
vt 0.000070 0.794757
vt 0.492420 0.999930
vt 0.492420 0.000070
vt 0.201415 0.999955
vt 0.201415 0.000045
vt 0.000045 0.879106
vt 0.000073 0.544938
vt 0.532111 0.999927
vt 0.532111 0.000073
vt 0.000056 0.999944
vt 0.315794 0.093007
vt 0.000056 0.000056
vt 0.201181 0.999955
vt 0.201181 0.000045
vt 0.000045 0.927310
vt 0.000067 0.852426
vt 0.444366 0.999933
vt 0.444366 0.000067
vt 0.000057 0.668084
vt 0.324161 0.999943
vt 0.324161 0.000057
vt 0.000038 0.151197
vt 0.143370 0.999962
vt 0.143370 0.000038
vt 0.000038 0.133884
vt 0.144545 0.999962
vt 0.144545 0.000038
vt 0.217656 0.999953
vt 0.217656 0.000047
vt 0.000047 0.908788
vt 0.000037 0.161299
vt 0.136755 0.999963
vt 0.136755 0.000037
vt 0.199505 0.999955
vt 0.199505 0.000045
vt 0.000045 0.929779
vt 0.165025 0.999959
vt 0.165025 0.000041
vt 0.000041 0.870588
vt 0.000035 0.201772
vt 0.119999 0.999965
vt 0.119999 0.000035
vt 0.155014 0.999961
vt 0.155014 0.000039
vt 0.000039 0.818852
vt 0.000067 0.999934
vt 0.442187 0.192935
vt 0.000067 0.000066
vt 0.000060 0.999940
vt 0.359633 0.494321
vt 0.000060 0.000060
vt 0.920302 0.350910
vt 0.602392 0.354856
vt 0.622987 0.620818
vt 0.000090 0.210534
vt 0.811099 0.999910
vt 0.811099 0.000090
vt 0.999905 0.903632
vt 0.999905 0.000095
vt 0.000095 0.069866
vt 0.594948 0.124391
vt 0.003512 0.000098
vt 0.000098 0.384404
vt 0.000073 0.106308
vt 0.538929 0.999927
vt 0.538929 0.000073
vt 0.298912 0.557636
vt 0.384783 0.484859
vt 0.290242 0.425547
vt 0.200789 0.490255
vt 0.000094 0.324327
vt 0.871394 0.999907
vt 0.871394 0.000093
vt 0.000098 0.621467
vt 0.000066 0.999934
vt 0.430811 0.787157
vt 0.000066 0.000066
vt 0.000096 0.000097
vt 0.575666 0.999904
vt 0.929252 0.000097
vt 0.906167 0.999905
vt 0.906167 0.000095
vt 0.000095 0.291304
vt 0.000095 0.267590
vt 0.902577 0.999905
vt 0.902577 0.000095
vt 0.000078 0.143281
vt 0.604002 0.999922
vt 0.604002 0.000078
vt 0.000089 0.999911
vt 0.798217 0.636996
vt 0.000089 0.000089
vt 0.499638 0.999929
vt 0.000071 0.407391
vt 0.499638 0.000071
vt 0.000051 0.000051
vt 0.256201 0.000051
vt 0.229060 0.999949
vt 0.000054 0.999946
vt 0.000054 0.000054
vt 0.293206 0.097972
vt 0.000072 0.999928
vt 0.000072 0.000072
vt 0.524579 0.637254
vt 0.000046 0.999954
vt 0.000046 0.000046
vt 0.211163 0.008938
vt 0.736700 0.345904
vt 0.663304 0.324642
vt 0.751509 0.000132
vt 0.000047 0.999953
vt 0.000047 0.000047
vt 0.223109 0.064375
vt 0.000054 0.688925
vt 0.294321 0.000054
vt 0.294321 0.999946
vt 0.000073 0.999927
vt 0.000074 0.000073
vt 0.538406 0.355270
vt 0.000042 0.999958
vt 0.000042 0.000042
vt 0.175071 0.144956
vt 0.000057 0.999943
vt 0.000057 0.000057
vt 0.328510 0.047080
vt 0.000064 0.726426
vt 0.409750 0.000064
vt 0.409750 0.999936
vt 0.000069 0.771151
vt 0.482512 0.000070
vt 0.482512 0.999931
vt 0.236323 0.999951
vt 0.000049 0.860311
vt 0.236323 0.000049
vt 0.000075 0.614255
vt 0.562887 0.000075
vt 0.562887 0.999925
vt 0.000053 0.999947
vt 0.000053 0.000053
vt 0.277585 0.089746
vt 0.150682 0.999961
vt 0.000039 0.904972
vt 0.150682 0.000039
vt 0.000069 0.859217
vt 0.475813 0.000069
vt 0.475813 0.999931
vt 0.000057 0.649352
vt 0.324919 0.000057
vt 0.324919 0.999943
vt 0.000039 0.164972
vt 0.154289 0.000039
vt 0.154289 0.999961
vt 0.000039 0.166586
vt 0.150460 0.000039
vt 0.150460 0.999961
vt 0.188044 0.999957
vt 0.000043 0.908400
vt 0.188044 0.000043
vt 0.000038 0.192558
vt 0.141240 0.000038
vt 0.141240 0.999962
vt 0.219418 0.999953
vt 0.000047 0.904612
vt 0.219418 0.000047
vt 0.185325 0.999957
vt 0.000043 0.862740
vt 0.185325 0.000043
vt 0.000039 0.210200
vt 0.150339 0.000039
vt 0.150339 0.999961
vt 0.163414 0.999960
vt 0.000040 0.803083
vt 0.163414 0.000040
vt 0.000065 0.999935
vt 0.000065 0.000065
vt 0.422371 0.446777
vt 0.035736 0.999902
vt 0.651603 0.845637
vt 0.798865 0.999911
vt 0.000089 0.694984
vt 0.798865 0.000089
vt 0.821363 0.999906
vt 0.000094 0.000094
vt 0.887528 0.000094
vt 0.939807 0.999903
vt 0.000097 0.246376
vt 0.939807 0.000097
vt 0.000098 0.000099
vt 0.999901 0.000098
vt 0.571350 0.969203
vt 0.000097 0.699392
vt 0.999903 0.000097
vt 0.999903 0.943028
vt 0.297267 0.488115
vt 0.000065 0.330358
vt 0.418832 0.999935
vt 0.418832 0.000065
vt 0.000064 0.095804
vt 0.414879 0.999936
vt 0.414879 0.000064
vt 0.000056 0.390493
vt 0.309290 0.999944
vt 0.309290 0.000056
vt 0.251108 0.999950
vt 0.251108 0.000050
vt 0.000050 0.147497
vt 0.000053 0.322330
vt 0.283407 0.999947
vt 0.283407 0.000053
vt 0.000065 0.428177
vt 0.416524 0.999936
vt 0.416524 0.000065
vt 0.006637 0.999945
vt 0.307284 0.000055
vt 0.000055 0.000055
vt 0.305936 0.999945
vt 0.305936 0.000055
vt 0.000055 0.042985
vt 0.000062 0.999938
vt 0.380622 0.020350
vt 0.000062 0.000062
vt 0.000082 0.164302
vt 0.680393 0.999918
vt 0.680393 0.000082
vt 0.000040 0.999960
vt 0.156795 0.066294
vt 0.000040 0.000040
vt 0.197423 0.999956
vt 0.197424 0.000044
vt 0.000044 0.163613
vt 0.000074 0.000074
vt 0.484002 0.999926
vt 0.547787 0.000074
vt 0.000073 0.999927
vt 0.528389 0.402061
vt 0.000073 0.000073
vt 0.968720 0.574254
vt 0.000095 0.061080
vt 0.999904 0.909708
vt 0.999904 0.000096
vt 0.691700 0.999917
vt 0.691700 0.000083
vt 0.000083 0.337969
vt 0.000065 0.291587
vt 0.426617 0.000065
vt 0.426617 0.999935
vt 0.615078 0.156338
vt 0.559984 0.328187
vt 0.111467 0.000132
vt 0.000056 0.413111
vt 0.316467 0.000056
vt 0.316467 0.999944
vt 0.323172 0.335323
vt 0.081397 0.082764
vt 0.000055 0.262911
vt 0.300049 0.000055
vt 0.300049 0.999945
vt 0.000066 0.429159
vt 0.432175 0.000066
vt 0.432175 0.999934
vt 0.277741 0.999947
vt 0.000053 0.081473
vt 0.277741 0.000053
vt 0.000056 0.999944
vt 0.000056 0.000056
vt 0.313453 0.046397
vt 0.161028 0.750115
vt 0.395710 0.904177
vt 0.346443 0.964755
vt 0.577395 0.999924
vt 0.000076 0.813917
vt 0.577395 0.000076
vt 0.000045 0.999956
vt 0.000044 0.000044
vt 0.197715 0.072497
vt 0.201406 0.999955
vt 0.000045 0.150718
vt 0.201406 0.000045
vt 0.000073 0.999927
vt 0.000073 0.000073
vt 0.527739 0.451683
vt 0.394638 0.999937
vt 0.000063 0.853723
vt 0.394638 0.000063
s 0
f 2/1/1 3/2/1 14/3/1
f 11/4/2 26/5/2 5/6/2
f 3/7/3 17/8/3 19/9/3
f 3/10/4 7/11/4 1/12/4
f 1/13/5 5/14/5 12/15/5
f 15/16/6 24/17/6 9/18/6
f 4/19/7 20/20/7 22/21/7
f 7/22/8 6/23/8 12/24/8
f 2/25/9 4/26/9 3/27/9
f 7/28/10 11/29/10 5/30/10
f 7/31/11 9/32/11 16/33/11
f 13/34/12 6/35/12 16/36/12
f 3/37/13 13/37/13 7/37/13
f 7/38/14 13/39/14 15/40/14
f 17/41/15 25/42/15 19/43/15
f 4/44/16 6/45/16 19/46/16
f 4/47/17 18/48/17 17/49/17
f 20/50/18 23/51/18 22/52/18
f 2/53/19 6/54/19 22/55/19
f 4/56/20 2/57/20 21/58/20
f 16/59/21 24/60/21 15/61/21
f 22/62/22 23/63/22 21/64/22
f 21/65/23 23/66/23 20/67/23
f 19/68/24 25/69/24 18/70/24
f 18/71/25 25/72/25 17/73/25
f 9/74/26 24/75/26 16/76/26
f 12/77/27 26/78/27 11/79/27
f 5/80/28 26/81/28 12/82/28
f 29/83/29 35/84/29 33/85/29
f 1/86/30 8/87/30 14/88/30
f 2/89/31 10/90/31 30/91/31
f 27/92/32 37/93/32 2/94/32
f 8/95/33 1/96/33 28/97/33
f 14/98/34 32/99/34 31/100/34
f 35/101/35 36/102/35 33/103/35
f 45/104/36 30/91/36 39/105/36
f 64/106/37 39/105/37 10/90/37
f 31/100/38 38/107/38 64/106/38
f 33/108/39 36/109/39 32/110/39
f 34/111/40 45/104/40 38/107/40
f 34/111/41 38/107/41 31/100/41
f 14/112/42 8/113/42 33/114/42
f 10/90/43 39/105/43 30/91/43
f 1/115/44 37/116/44 28/117/44
f 31/100/45 64/106/45 10/90/45
f 6/118/46 37/119/46 1/120/46
f 32/121/47 36/122/47 31/123/47
f 31/124/48 36/125/48 34/126/48
f 34/111/49 30/91/49 45/104/49
f 2/127/50 37/128/50 6/129/50
f 27/130/51 50/131/51 40/132/51
f 47/133/52 42/134/52 62/135/52
f 40/136/53 55/137/53 53/138/53
f 40/139/54 28/140/54 44/141/54
f 28/142/55 48/143/55 42/144/55
f 51/145/56 46/146/56 60/147/56
f 41/148/57 58/149/57 56/150/57
f 44/151/58 48/152/58 43/153/58
f 27/154/59 40/155/59 41/156/59
f 44/157/60 42/158/60 47/159/60
f 44/160/61 52/161/61 46/162/61
f 49/163/62 52/164/62 43/165/62
f 40/37/13 44/37/13 49/37/13
f 44/166/63 51/167/63 49/168/63
f 53/169/64 55/170/64 61/171/64
f 41/172/65 55/173/65 43/174/65
f 41/175/66 53/176/66 54/177/66
f 56/178/67 58/179/67 59/180/67
f 27/181/68 58/182/68 43/183/68
f 41/184/69 57/185/69 27/186/69
f 52/187/70 51/188/70 60/189/70
f 58/190/71 57/191/71 59/192/71
f 57/193/72 56/194/72 59/195/72
f 55/196/73 54/197/73 61/198/73
f 54/199/74 53/200/74 61/201/74
f 46/202/75 52/203/75 60/204/75
f 48/205/76 47/206/76 62/207/76
f 42/208/77 48/209/77 62/210/77
f 28/211/78 50/212/78 29/213/78
f 30/91/79 63/214/79 50/215/79
f 35/216/80 63/217/80 36/218/80
f 29/219/81 63/220/81 35/221/81
f 43/222/82 28/223/82 37/224/82
f 63/225/83 34/226/83 36/227/83
f 27/228/84 43/229/84 37/230/84
f 38/107/85 65/231/85 64/106/85
f 45/104/86 65/231/86 38/107/86
f 64/106/87 65/231/87 39/105/87
f 39/105/88 65/231/88 45/104/88
f 2/89/89 14/98/89 10/90/89
f 3/232/90 19/233/90 6/234/90
f 1/235/91 12/236/91 6/237/91
f 4/238/92 22/239/92 6/240/92
f 7/241/93 12/242/93 11/243/93
f 7/244/94 5/245/94 1/246/94
f 7/247/95 16/248/95 6/249/95
f 13/250/96 16/251/96 15/252/96
f 7/253/97 15/254/97 9/255/97
f 4/256/98 19/257/98 18/258/98
f 4/259/99 17/260/99 3/261/99
f 2/262/100 22/263/100 21/264/100
f 4/265/101 21/266/101 20/267/101
f 29/268/102 33/269/102 8/270/102
f 1/271/103 14/272/103 3/273/103
f 2/89/104 30/91/104 27/274/104
f 8/275/105 28/276/105 29/277/105
f 14/98/106 31/100/106 10/90/106
f 14/278/107 33/279/107 32/280/107
f 27/274/108 30/91/108 50/215/108
f 40/281/109 43/282/109 55/283/109
f 28/284/110 43/285/110 48/286/110
f 41/287/111 43/288/111 58/289/111
f 44/290/112 47/291/112 48/286/112
f 44/292/113 28/293/113 42/294/113
f 44/295/114 43/296/114 52/297/114
f 49/298/115 51/299/115 52/300/115
f 44/301/116 46/302/116 51/303/116
f 41/304/117 54/305/117 55/306/117
f 41/307/118 40/308/118 53/309/118
f 27/310/119 57/311/119 58/312/119
f 41/313/120 56/314/120 57/315/120
f 28/316/121 40/317/121 50/318/121
f 30/91/122 34/111/122 63/214/122
f 29/319/123 50/320/123 63/321/123
