# Blender 5.0.1
# www.blender.org
o 1
v -0.021636 0.674474 -0.056503
v -0.068561 0.641233 -1.250218
v -0.933794 0.923874 -0.611351
v -0.898548 0.933765 -1.260624
v -1.590493 1.605855 1.445891
v -0.511449 0.322765 -0.613762
v -0.862327 0.955866 -0.020053
v -0.015406 1.094177 -0.301533
v -1.743564 1.507926 0.288053
v -0.053128 1.125144 -1.035062
v -1.695167 1.579164 1.105888
v -1.666412 1.237712 1.329391
v -0.933794 0.923874 -0.611351
v -0.306983 1.128341 -0.678866
v -1.817502 1.538941 -0.004670
v -1.751238 1.235749 0.120135
v -1.796813 1.470883 -1.113995
v -1.780182 1.480078 -1.426141
v -1.750318 1.178817 -1.276083
v -1.611632 1.286480 -2.274638
v -1.488413 1.441411 -2.619066
v -1.563019 1.020939 -2.389195
v -2.640316 -0.054869 -2.293330
v -2.778750 -0.046169 0.299438
v -2.772154 -0.002935 -0.966555
v -2.517763 -0.043951 1.748710
v 0.395928 0.632809 -1.314568
v 0.436776 0.683138 -0.104452
v 0.440262 1.123181 -0.308507
v 0.399916 1.116738 -1.031271
v -0.073353 2.052323 -1.236331
v -0.527199 2.101706 -0.675047
v -0.020002 2.051180 -0.103854
v 0.400409 2.068755 -1.259318
v 0.427142 2.046711 -0.128811
v 0.165442 2.738926 -0.729143
v 0.202866 0.637914 -0.662273
v 0.152188 1.751800 -1.185783
v 0.154020 1.468966 -1.143204
v 1.269431 0.912868 -0.673804
v 1.233314 0.922759 -1.323030
v 1.940083 1.557686 1.346817
v 0.847083 0.311759 -0.675649
v 1.198757 0.944861 -0.082411
v 0.283244 1.603614 -1.174264
v 2.038190 1.513989 0.222561
v 2.044300 1.530995 1.006673
v 2.015845 1.189543 1.230214
v 1.269431 0.912868 -0.673804
v 0.633998 1.091902 -0.681814
v 2.111735 1.545004 -0.070261
v 2.045638 1.241813 0.054633
v 2.154674 1.460938 -1.177148
v 2.137624 1.470133 -1.489271
v 2.107961 1.168872 -1.339174
v 1.947439 1.287480 -2.287503
v 1.823759 1.442411 -2.631765
v 1.896166 1.042357 -2.337977
v 2.925486 -0.048784 -2.275476
v 3.035626 -0.029516 0.455477
v 3.075787 -0.055068 -1.027419
v 2.836883 -0.094308 1.752294
v 0.857423 2.121363 -0.691610
v 0.038121 1.608201 -1.162557
v 0.151665 1.595006 -1.210655
vn -0.2909 0.6647 -0.6881
vn -0.8335 0.5082 0.2167
vn -0.6446 -0.4469 0.6204
vn 0.3127 0.9457 -0.0890
vn 0.5291 -0.3533 0.7715
vn -0.8028 0.5367 0.2596
vn -0.8197 -0.3467 0.4559
vn -0.8586 0.0049 -0.5126
vn 0.3319 0.9428 0.0324
vn 0.4051 0.8933 -0.1948
vn -0.0308 -0.5242 0.8510
vn -0.6804 -0.4758 -0.5574
vn -0.0000 1.0000 -0.0000
vn 0.5167 0.8493 -0.1084
vn 0.5914 -0.3172 0.7413
vn -0.2107 -0.7705 -0.6016
vn 0.5188 0.8533 0.0528
vn 0.3830 -0.3059 0.8716
vn 0.0758 -0.9118 -0.4035
vn 0.3231 0.9239 0.2050
vn 0.2436 -0.3232 -0.9144
vn 0.4229 -0.4913 -0.7614
vn -0.7934 0.6086 -0.0101
vn 0.2162 -0.4180 -0.8823
vn -0.8349 0.5497 -0.0283
vn 0.6353 -0.4184 0.6491
vn 0.3488 -0.4925 -0.7973
vn 0.7686 -0.3316 0.5470
vn 0.0528 -0.1900 0.9804
vn -0.7236 0.3560 0.5914
vn 0.0152 0.4058 -0.9138
vn -0.0178 -0.9998 0.0026
vn 0.0806 0.5017 0.8613
vn -0.7733 -0.1726 -0.6101
vn 0.0483 0.6648 0.7455
vn 0.0505 -0.2703 -0.9615
vn -0.1181 -0.2325 -0.9654
vn 0.0041 -0.1629 -0.9866
vn -0.5460 0.6394 0.5414
vn -0.0910 -0.1569 -0.9834
vn -0.0408 -0.1954 -0.9799
vn -0.7904 -0.1276 0.5992
vn 0.0024 -0.3013 -0.9535
vn 0.0262 -0.9972 0.0699
vn -0.2121 -0.2117 -0.9540
vn 0.4067 -0.8904 0.2045
vn -0.5947 0.6011 -0.5338
vn -0.0595 0.6064 -0.7929
vn 0.2142 -0.2276 -0.9499
vn 0.3863 -0.9039 -0.1835
vn 0.2189 0.7488 -0.6256
vn 0.8349 0.5063 0.2161
vn 0.6354 -0.4498 0.6277
vn -0.3212 0.9428 -0.0894
vn -0.5353 -0.3532 0.7673
vn 0.7933 0.5516 0.2577
vn 0.8195 -0.2750 0.5028
vn 0.8462 0.0285 -0.5321
vn -0.3267 0.9446 0.0326
vn -0.3838 0.9040 -0.1885
vn 0.0459 -0.5236 0.8507
vn 0.6981 -0.4889 -0.5231
vn -0.5449 0.8312 -0.1101
vn -0.6177 -0.3036 0.7254
vn 0.2055 -0.7700 -0.6041
vn -0.5099 0.8586 0.0531
vn -0.2200 -0.1524 0.9635
vn -0.0426 -0.9045 -0.4244
vn -0.3169 0.9218 0.2230
vn -0.0899 -0.3625 -0.9276
vn -0.5519 -0.5562 -0.6214
vn 0.8068 0.5903 -0.0242
vn -0.2405 -0.4138 -0.8780
vn 0.8556 0.5167 -0.0315
vn -0.7208 -0.3781 0.5809
vn -0.2793 -0.5095 -0.8139
vn -0.8122 -0.3214 0.4869
vn 0.8769 0.1965 0.4386
vn 0.8111 -0.1813 -0.5562
vn 0.5563 0.6544 0.5121
vn 0.7967 -0.1045 0.5953
vn -0.4330 -0.8655 0.2517
vn 0.5820 0.6202 -0.5260
vn -0.4502 -0.8840 -0.1263
vn -0.3713 0.1467 -0.9168
vn 0.2543 0.1507 -0.9553
vn -0.3932 -0.4395 -0.8076
vn 0.2652 -0.4511 -0.8522
vn -0.7821 0.2738 -0.5598
vn -0.6434 -0.4545 0.6160
vn 0.0955 -0.8775 0.4699
vn -0.8620 -0.0096 0.5068
vn -0.8354 -0.3485 -0.4250
vn 0.2963 0.9189 -0.2603
vn -0.1153 -0.7127 0.6919
vn -0.6913 -0.3991 -0.6024
vn 0.5201 0.8531 -0.0410
vn -0.1140 -0.4520 -0.8847
vn 0.5177 0.8546 0.0411
vn 0.4468 -0.4889 -0.7492
vn -0.0884 0.9199 0.3821
vn 0.0278 -0.2021 0.9790
vn -0.1780 0.7544 0.6318
vn -0.1097 0.5028 -0.8574
vn -0.0129 0.4207 0.9071
vn -0.8067 -0.1421 -0.5736
vn -0.7442 -0.1709 0.6457
vn 0.8032 0.2960 -0.5170
vn 0.6356 -0.4485 0.6284
vn -0.1239 -0.8702 0.4768
vn 0.8328 0.0570 0.5506
vn 0.8209 -0.3591 -0.4440
vn -0.3097 0.9215 -0.2345
vn 0.1412 -0.7175 0.6820
vn 0.7122 -0.3945 -0.5807
vn -0.5482 0.8349 -0.0492
vn 0.1108 -0.4519 -0.8851
vn -0.5088 0.8599 0.0414
vn -0.3349 -0.5964 -0.7295
vn 0.0600 0.9182 0.3916
vn 0.2074 0.7636 0.6115
vn 0.7771 -0.1470 -0.6120
vn 0.8661 -0.1836 0.4649
vt 0.487045 0.999930
vt 0.487045 0.000070
vt 0.000070 0.426706
vt 0.000047 0.010427
vt 0.217568 0.999953
vt 0.217568 0.000047
vt 0.329802 0.999943
vt 0.329801 0.000057
vt 0.000057 0.091371
vt 0.000072 0.999928
vt 0.514536 0.679456
vt 0.000072 0.000072
vt 0.176103 0.999958
vt 0.176103 0.000042
vt 0.000042 0.071430
vt 0.000044 0.000044
vt 0.138772 0.999956
vt 0.190465 0.000044
vt 0.228814 0.999948
vt 0.266499 0.000052
vt 0.000052 0.000052
vt 0.000040 0.640445
vt 0.157521 0.999960
vt 0.157521 0.000040
vt 0.000074 0.999926
vt 0.541403 0.357838
vt 0.000074 0.000074
vt 0.000041 0.999959
vt 0.169452 0.141744
vt 0.000041 0.000041
vt 0.285433 0.999947
vt 0.285433 0.000053
vt 0.000053 0.166009
vt 0.000051 0.630750
vt 0.259617 0.999949
vt 0.259617 0.000051
vt 0.283534 0.650531
vt 0.281022 0.669222
vt 0.277777 0.672952
vt 0.000079 0.999921
vt 0.622662 0.967581
vt 0.000079 0.000079
vt 0.177445 0.999958
vt 0.177445 0.000042
vt 0.000042 0.885123
vt 0.000055 0.471219
vt 0.305971 0.999945
vt 0.305971 0.000055
vt 0.200437 0.999941
vt 0.351431 0.000059
vt 0.000059 0.000059
vt 0.159037 0.999960
vt 0.159037 0.000040
vt 0.000040 0.892081
vt 0.000063 0.813127
vt 0.393779 0.999937
vt 0.393779 0.000063
vt 0.000056 0.685017
vt 0.313638 0.999944
vt 0.313638 0.000056
vt 0.000038 0.128915
vt 0.143838 0.999962
vt 0.143838 0.000038
vt 0.000039 0.215163
vt 0.156069 0.999960
vt 0.156069 0.000039
vt 0.186820 0.999957
vt 0.186820 0.000043
vt 0.000043 0.867623
vt 0.000037 0.143230
vt 0.134130 0.999963
vt 0.134130 0.000037
vt 0.189476 0.999956
vt 0.189476 0.000043
vt 0.000044 0.948822
vt 0.139563 0.999963
vt 0.139563 0.000037
vt 0.000037 0.876936
vt 0.000036 0.181055
vt 0.129138 0.999964
vt 0.129138 0.000036
vt 0.125924 0.999965
vt 0.125924 0.000035
vt 0.000036 0.825075
vt 0.000067 0.999934
vt 0.442187 0.192935
vt 0.000066 0.000066
vt 0.000060 0.999940
vt 0.359633 0.494321
vt 0.000060 0.000060
vt 0.000076 0.999925
vt 0.569351 0.423655
vt 0.000076 0.000075
vt 0.000090 0.210534
vt 0.811099 0.999910
vt 0.811099 0.000090
vt 0.999905 0.903632
vt 0.999905 0.000095
vt 0.000095 0.069866
vt 0.618687 0.999907
vt 0.867510 0.000093
vt 0.000093 0.000093
vt 0.000073 0.106308
vt 0.538929 0.999927
vt 0.538929 0.000073
vt 0.000059 0.999940
vt 0.000059 0.000059
vt 0.353104 0.797384
vt 0.000057 0.999943
vt 0.322931 0.770639
vt 0.000057 0.000057
vt 0.000060 0.999940
vt 0.367699 0.245359
vt 0.000060 0.000061
vt 0.862042 0.999907
vt 0.862042 0.000093
vt 0.000093 0.668421
vt 0.392842 0.999937
vt 0.392842 0.000063
vt 0.000063 0.229903
vt 0.700909 0.886000
vt 0.999906 0.000094
vt 0.000094 0.000094
vt 0.000066 0.999934
vt 0.430811 0.787157
vt 0.000066 0.000066
vt 0.000099 0.582486
vt 0.981126 0.999901
vt 0.981126 0.000099
vt 0.000097 0.000096
vt 0.575667 0.999904
vt 0.929253 0.000096
vt 0.000036 0.999964
vt 0.128602 0.523768
vt 0.000036 0.000036
vt 0.000091 0.999909
vt 0.822524 0.356719
vt 0.000091 0.000091
vt 0.000095 0.267590
vt 0.902576 0.999905
vt 0.902576 0.000095
vt 0.603800 0.999922
vt 0.603800 0.000078
vt 0.000078 0.856433
vt 0.000038 0.999962
vt 0.000038 0.000038
vt 0.143160 0.517628
vt 0.000099 0.976072
vt 0.999901 0.976072
vt 0.608155 0.000099
vt 0.499638 0.999929
vt 0.000071 0.407391
vt 0.499638 0.000071
vt 0.209923 0.999954
vt 0.000046 0.966595
vt 0.209923 0.000046
vt 0.324854 0.999943
vt 0.000057 0.089677
vt 0.324854 0.000057
vt 0.000073 0.999927
vt 0.000072 0.000072
vt 0.524579 0.637254
vt 0.184274 0.999957
vt 0.000043 0.073568
vt 0.184274 0.000043
vt 0.181848 0.999957
vt 0.000043 0.962601
vt 0.181848 0.000043
vt 0.231388 0.999952
vt 0.000048 0.049201
vt 0.231388 0.000048
vt 0.000041 0.636417
vt 0.164487 0.000041
vt 0.164487 0.999959
vt 0.000074 0.999927
vt 0.000073 0.000073
vt 0.538406 0.355270
vt 0.000042 0.999958
vt 0.000042 0.000042
vt 0.175036 0.143314
vt 0.285519 0.999947
vt 0.000053 0.178235
vt 0.285519 0.000053
vt 0.000051 0.623735
vt 0.258657 0.000051
vt 0.258657 0.999949
vt 0.326171 0.000057
vt 0.084882 0.644218
vt 0.000057 0.623253
vt 0.000072 0.784376
vt 0.516885 0.000072
vt 0.516885 0.999928
vt 0.173057 0.999958
vt 0.000042 0.881486
vt 0.173057 0.000042
vt 0.000055 0.479067
vt 0.307949 0.000055
vt 0.307949 0.999945
vt 0.000058 0.999942
vt 0.000058 0.000058
vt 0.335138 0.048589
vt 0.136586 0.999963
vt 0.000037 0.899036
vt 0.136586 0.000037
vt 0.000065 0.812735
vt 0.417968 0.000065
vt 0.417968 0.999935
vt 0.000056 0.674516
vt 0.312773 0.000056
vt 0.312773 0.999944
vt 0.000037 0.133572
vt 0.134352 0.000037
vt 0.134352 0.999963
vt 0.000042 0.219136
vt 0.175904 0.000042
vt 0.175904 0.999958
vt 0.186513 0.999957
vt 0.000043 0.862512
vt 0.186513 0.000043
vt 0.000036 0.146523
vt 0.127845 0.000036
vt 0.127845 0.999964
vt 0.188785 0.999956
vt 0.000043 0.949028
vt 0.188785 0.000043
vt 0.152690 0.999961
vt 0.000039 0.886778
vt 0.152690 0.000039
vt 0.000034 0.182754
vt 0.119153 0.000034
vt 0.119153 0.999965
vt 0.133289 0.999964
vt 0.000036 0.829918
vt 0.133289 0.000036
vt 0.000065 0.999935
vt 0.000065 0.000065
vt 0.422371 0.446777
vt 0.000063 0.999938
vt 0.000062 0.000062
vt 0.388977 0.849397
vt 0.798865 0.999911
vt 0.000089 0.694984
vt 0.798865 0.000089
vt 0.821363 0.999906
vt 0.000094 0.000094
vt 0.887528 0.000094
vt 0.000088 0.999912
vt 0.000088 0.000088
vt 0.774955 0.378568
vt 0.000095 0.291420
vt 0.902748 0.000095
vt 0.902748 0.999905
vt 0.000093 0.872083
vt 0.708760 0.000093
vt 0.999907 0.872083
vt 0.000081 0.999919
vt 0.665391 0.356284
vt 0.000081 0.000082
vt 0.000099 0.985699
vt 0.999901 0.985699
vt 0.875741 0.000099
vt 0.000099 0.982089
vt 0.999901 0.982089
vt 0.914496 0.000098
vt 0.999906 0.896149
vt 0.999906 0.000094
vt 0.000095 0.073715
vt 0.414089 0.999936
vt 0.414089 0.000064
vt 0.000064 0.428001
vt 0.000052 0.382903
vt 0.269055 0.999948
vt 0.269055 0.000052
vt 0.000060 0.141111
vt 0.357870 0.999940
vt 0.357870 0.000060
vt 0.000043 0.417696
vt 0.181210 0.999958
vt 0.181210 0.000043
vt 0.288159 0.999946
vt 0.288159 0.000054
vt 0.000054 0.071600
vt 0.000052 0.292857
vt 0.275001 0.999948
vt 0.275001 0.000052
vt 0.000052 0.497985
vt 0.270184 0.999948
vt 0.270184 0.000052
vt 0.000054 0.999946
vt 0.289055 0.110906
vt 0.000054 0.000054
vt 0.307546 0.999945
vt 0.307546 0.000055
vt 0.000055 0.067273
vt 0.000055 0.999945
vt 0.299010 0.195612
vt 0.000055 0.000055
vt 0.000078 0.232442
vt 0.610609 0.999922
vt 0.610609 0.000078
vt 0.000048 0.999952
vt 0.226511 0.120385
vt 0.000048 0.000048
vt 0.192410 0.999956
vt 0.192410 0.000044
vt 0.000044 0.193357
vt 0.467817 0.999932
vt 0.467817 0.000069
vt 0.000068 0.834704
vt 0.000073 0.999927
vt 0.528389 0.402061
vt 0.000073 0.000073
vt 0.000099 0.065133
vt 0.975931 0.999901
vt 0.975931 0.000099
vt 0.000095 0.061080
vt 0.999904 0.909708
vt 0.999904 0.000096
vt 0.393875 0.999937
vt 0.393875 0.000063
vt 0.000063 0.790856
vt 0.000094 0.999906
vt 0.878272 0.159401
vt 0.000094 0.000094
vt 0.384419 0.999938
vt 0.000062 0.397493
vt 0.384419 0.000062
vt 0.000052 0.378540
vt 0.266772 0.000052
vt 0.266772 0.999948
vt 0.000058 0.162128
vt 0.338010 0.000058
vt 0.338010 0.999942
vt 0.000042 0.438359
vt 0.173480 0.000042
vt 0.173480 0.999958
vt 0.292659 0.999946
vt 0.000054 0.076205
vt 0.292659 0.000054
vt 0.000052 0.274118
vt 0.265601 0.000052
vt 0.265601 0.999948
vt 0.000051 0.509215
vt 0.261398 0.000051
vt 0.261398 0.999949
vt 0.000054 0.999946
vt 0.000054 0.000054
vt 0.292245 0.116751
vt 0.000058 0.999942
vt 0.000058 0.000058
vt 0.335320 0.008897
vt 0.000054 0.999946
vt 0.000054 0.000054
vt 0.295911 0.189268
vt 0.000078 0.224534
vt 0.603481 0.000078
vt 0.603481 0.999922
vt 0.000048 0.999952
vt 0.000048 0.000048
vt 0.228188 0.137188
vt 0.199689 0.999955
vt 0.000045 0.196485
vt 0.199689 0.000045
vt 0.000073 0.999927
vt 0.000073 0.000073
vt 0.527739 0.451683
vt 0.623816 0.999921
vt 0.000079 0.340942
vt 0.623816 0.000079
vt 0.394638 0.999937
vt 0.000063 0.853723
vt 0.394638 0.000063
s 0
f 2/1/1 3/2/1 14/3/1
f 11/4/2 26/5/2 5/6/2
f 3/7/3 17/8/3 19/9/3
f 3/10/4 7/11/4 1/12/4
f 1/13/5 5/14/5 12/15/5
f 15/16/6 24/17/6 9/18/6
f 4/19/7 20/20/7 22/21/7
f 7/22/8 6/23/8 12/24/8
f 2/25/9 4/26/9 3/27/9
f 7/28/10 11/29/10 5/30/10
f 7/31/11 9/32/11 16/33/11
f 13/34/12 6/35/12 16/36/12
f 3/37/13 13/38/13 7/39/13
f 7/40/14 13/41/14 15/42/14
f 17/43/15 25/44/15 19/45/15
f 4/46/16 6/47/16 19/48/16
f 4/49/17 18/50/17 17/51/17
f 20/52/18 23/53/18 22/54/18
f 2/55/19 6/56/19 22/57/19
f 4/58/20 2/59/20 21/60/20
f 16/61/21 24/62/21 15/63/21
f 22/64/22 23/65/22 21/66/22
f 21/67/23 23/68/23 20/69/23
f 19/70/24 25/71/24 18/72/24
f 18/73/25 25/74/25 17/75/25
f 9/76/26 24/77/26 16/78/26
f 12/79/27 26/80/27 11/81/27
f 5/82/28 26/83/28 12/84/28
f 29/85/29 35/86/29 33/87/29
f 1/88/30 8/89/30 14/90/30
f 2/91/31 10/92/31 30/93/31
f 27/94/32 37/95/32 2/96/32
f 8/97/33 1/98/33 28/99/33
f 14/100/34 32/101/34 31/102/34
f 35/103/35 36/104/35 33/105/35
f 45/106/36 30/107/36 39/108/36
f 64/109/37 39/110/37 10/111/37
f 31/112/38 38/113/38 64/114/38
f 33/115/39 36/116/39 32/117/39
f 34/118/40 45/119/40 38/120/40
f 34/121/41 38/122/41 31/123/41
f 14/124/42 8/125/42 33/126/42
f 10/127/43 39/128/43 30/129/43
f 1/130/44 37/131/44 28/132/44
f 31/133/45 64/134/45 10/135/45
f 6/136/46 37/137/46 1/138/46
f 32/139/47 36/140/47 31/141/47
f 31/142/48 36/143/48 34/144/48
f 34/145/49 30/146/49 45/147/49
f 2/148/50 37/149/50 6/150/50
f 27/151/51 50/152/51 40/153/51
f 47/154/52 42/155/52 62/156/52
f 40/157/53 55/158/53 53/159/53
f 40/160/54 28/161/54 44/162/54
f 28/163/55 48/164/55 42/165/55
f 51/166/56 46/167/56 60/168/56
f 41/169/57 58/170/57 56/171/57
f 44/172/58 48/173/58 43/174/58
f 27/175/59 40/176/59 41/177/59
f 44/178/60 42/179/60 47/180/60
f 44/181/61 52/182/61 46/183/61
f 49/184/62 52/185/62 43/186/62
f 40/187/13 44/188/13 49/189/13
f 44/190/63 51/191/63 49/192/63
f 53/193/64 55/194/64 61/195/64
f 41/196/65 55/197/65 43/198/65
f 41/199/66 53/200/66 54/201/66
f 56/202/67 58/203/67 59/204/67
f 27/205/68 58/206/68 43/207/68
f 41/208/69 57/209/69 27/210/69
f 52/211/70 51/212/70 60/213/70
f 58/214/71 57/215/71 59/216/71
f 57/217/72 56/218/72 59/219/72
f 55/220/73 54/221/73 61/222/73
f 54/223/74 53/224/74 61/225/74
f 46/226/75 52/227/75 60/228/75
f 48/229/76 47/230/76 62/231/76
f 42/232/77 48/233/77 62/234/77
f 28/235/78 50/236/78 29/237/78
f 30/238/79 63/239/79 50/240/79
f 35/241/80 63/242/80 36/243/80
f 29/244/81 63/245/81 35/246/81
f 43/247/82 28/248/82 37/249/82
f 63/250/83 34/251/83 36/252/83
f 27/253/84 43/254/84 37/255/84
f 38/256/85 65/257/85 64/258/85
f 45/259/86 65/260/86 38/261/86
f 64/262/87 65/263/87 39/264/87
f 39/265/88 65/266/88 45/267/88
f 2/268/89 14/269/89 10/270/89
f 3/271/90 19/272/90 6/273/90
f 1/274/91 12/275/91 6/276/91
f 4/277/92 22/278/92 6/279/92
f 7/280/93 12/281/93 11/282/93
f 7/283/94 5/284/94 1/285/94
f 7/286/95 16/287/95 6/288/95
f 13/289/96 16/290/96 15/291/96
f 7/292/97 15/293/97 9/294/97
f 4/295/98 19/296/98 18/297/98
f 4/298/99 17/299/99 3/300/99
f 2/301/100 22/302/100 21/303/100
f 4/304/101 21/305/101 20/306/101
f 29/307/102 33/308/102 8/309/102
f 1/310/103 14/311/103 3/312/103
f 2/313/104 30/314/104 27/315/104
f 8/316/105 28/317/105 29/318/105
f 14/319/106 31/320/106 10/321/106
f 14/322/107 33/323/107 32/324/107
f 27/325/108 30/326/108 50/327/108
f 40/328/109 43/329/109 55/330/109
f 28/331/110 43/332/110 48/333/110
f 41/334/111 43/335/111 58/336/111
f 44/337/112 47/338/112 48/339/112
f 44/340/113 28/341/113 42/342/113
f 44/343/114 43/344/114 52/345/114
f 49/346/115 51/347/115 52/348/115
f 44/349/116 46/350/116 51/351/116
f 41/352/117 54/353/117 55/354/117
f 41/355/118 40/356/118 53/357/118
f 27/358/119 57/359/119 58/360/119
f 41/361/120 56/362/120 57/363/120
f 28/364/121 40/365/121 50/366/121
f 30/367/122 34/368/122 63/369/122
f 29/370/123 50/371/123 63/372/123
