# Blender 5.0.0
# www.blender.org
mtllib Crystalis_Skeleton_Animation.mtl
o Skeleton_Animation_Test.003
v -0.074614 1.113766 0.121825
v 0.178505 1.165865 -0.078212
v -0.045532 0.944299 -0.356837
v -0.024811 1.650351 -0.085849
v 0.234595 -0.060287 0.031372
v -0.236579 1.147795 -0.287173
v -0.543462 1.185064 -0.064152
v -0.368491 1.041696 0.177210
v -0.547050 -0.034428 0.052924
v 0.213527 1.717570 0.021998
v -0.075426 1.789993 -0.255245
v -0.553906 2.134952 -0.276991
v -0.461643 2.048640 0.176431
v 0.511642 0.974991 -0.192391
v 0.175501 2.384954 0.060776
v 0.207304 2.008206 -0.357197
v -0.932593 0.947070 -0.092507
v -0.535641 2.547667 -0.061043
v -0.142634 2.139810 -0.069883
v -0.218919 2.782433 -0.717978
vn 0.7556 0.0567 -0.6526
vn 0.7866 -0.0192 -0.6172
vn 0.7687 0.0263 -0.6390
vn 0.6107 0.0993 0.7856
vn 0.6109 0.0980 0.7857
vn 0.6108 0.0985 0.7856
vn -0.2724 -0.8765 0.3969
vn -0.9663 -0.2538 0.0427
vn 0.0171 0.5149 0.8571
vn -0.7906 0.0608 0.6093
vn -0.5922 -0.0753 -0.8023
vn 0.9556 -0.1850 0.2292
vn -0.0305 -0.8946 0.4458
vn 0.0333 0.0394 -0.9987
vn -0.2374 0.1076 -0.9654
vn -0.1794 0.0953 -0.9792
vn -0.7406 -0.5781 -0.3425
vn 0.7317 0.1067 -0.6732
vn 0.0686 0.0323 -0.9971
vn -0.5924 -0.1823 -0.7847
vn 0.7008 0.0842 -0.7084
vn 0.5729 0.2564 0.7785
vn 0.5742 0.2544 0.7782
vn 0.5743 0.2543 0.7782
vn -0.7631 0.1333 0.6324
vn 0.1827 0.4080 0.8945
vn -0.3744 -0.1427 0.9162
vn -0.7107 -0.0533 0.7015
vn 0.6472 0.2300 0.7268
vn -0.0952 -0.1360 0.9861
vn -0.9323 -0.3386 0.1269
vn -0.6763 -0.4417 0.5895
vn 0.1348 0.0834 0.9874
vn 0.3063 -0.2660 0.9140
vn 0.1458 0.0623 0.9874
vn -0.1858 -0.2079 -0.9603
vn 0.5562 -0.0166 0.8309
vn -0.1439 -0.2597 -0.9549
vn 0.9112 -0.3290 -0.2480
vn -0.9020 0.2309 -0.3649
vn -0.7684 0.1785 0.6145
vn 0.4065 0.4094 -0.8168
vn 0.1291 0.9517 -0.2787
vn 0.9538 0.2557 -0.1579
vn -0.2733 0.7041 -0.6554
vn -0.3933 -0.0756 0.9163
vn -0.0585 0.4219 0.9048
vn -0.6241 -0.5903 -0.5119
vn 0.6328 -0.5113 -0.5815
vn 0.1407 0.9089 0.3926
vt 0.000056 0.973192
vt 0.313458 0.000056
vt 0.313458 0.999944
vt 0.000060 0.956843
vt 0.359446 0.000060
vt 0.359446 0.999940
vt 0.000060 0.999940
vt 0.052054 0.000060
vt 0.360699 0.999940
vt 0.000057 0.962404
vt 0.323594 0.000057
vt 0.323594 0.999943
vt 0.000046 0.999954
vt 0.000046 0.000046
vt 0.214616 0.849387
vt 0.000052 0.820909
vt 0.265580 0.000052
vt 0.265580 0.999948
vt 0.000066 0.000066
vt 0.436294 0.729113
vt 0.000066 0.999934
vt 0.567514 0.999925
vt 0.000075 0.157312
vt 0.567514 0.000075
vt 0.658684 0.999919
vt 0.000081 0.486796
vt 0.658684 0.000081
vt 0.000071 0.000071
vt 0.508411 0.136289
vt 0.000071 0.999929
vt 0.000091 0.999909
vt 0.157420 0.000091
vt 0.833260 0.999909
vt 0.314859 0.999944
vt 0.000056 0.179294
vt 0.314859 0.000056
vt 0.425774 0.000065
vt 0.425774 0.999935
vt 0.000065 0.653910
vt 0.000086 0.447754
vt 0.733537 0.000086
vt 0.733537 0.999914
vt 0.285537 0.999947
vt 0.000053 0.179753
vt 0.285537 0.000053
vt 0.000048 0.999952
vt 0.000048 0.000048
vt 0.228123 0.062164
vt 0.505367 0.000071
vt 0.505367 0.999929
vt 0.000071 0.772899
vt 0.000051 0.000051
vt 0.259393 0.472928
vt 0.000051 0.999949
vt 0.000052 0.999948
vt 0.000052 0.000052
vt 0.275128 0.769477
vt 0.247171 0.741614
vt 0.000050 0.999950
vt 0.000050 0.000050
vt 0.000088 0.000088
vt 0.779626 0.379419
vt 0.000088 0.999912
vt 0.000056 0.000056
vt 0.315934 0.831222
vt 0.000056 0.999944
vt 0.000049 0.735639
vt 0.244145 0.000049
vt 0.244145 0.999951
vt 0.755865 0.000087
vt 0.755865 0.999913
vt 0.000087 0.088801
vt 0.336202 0.958399
vt 0.000058 0.999942
vt 0.000058 0.000058
vt 0.000052 0.738601
vt 0.271935 0.000052
vt 0.271935 0.999948
vt 0.000047 0.000047
vt 0.218122 0.743572
vt 0.000047 0.999953
vt 0.000083 0.000083
vt 0.687338 0.494446
vt 0.000083 0.999917
vt 0.741153 0.000086
vt 0.741153 0.999914
vt 0.000086 0.418785
vt 0.261963 0.142274
vt 0.345253 0.326865
vt 0.000059 0.999941
vt 0.000059 0.000059
vt 0.000057 0.999943
vt 0.000057 0.000057
vt 0.322888 0.410187
vt 0.000090 0.999910
vt 0.000090 0.000090
vt 0.808379 0.843371
vt 0.000066 0.636525
vt 0.441199 0.000066
vt 0.441199 0.999934
vt 0.000063 0.000063
vt 0.399711 0.773945
vt 0.000063 0.999937
vt 0.000100 0.000100
vt 0.994033 0.000100
vt 0.208613 0.999900
s 1
usemtl Material.007
f 2/1/1 5/2/2 3/3/3
f 1/4/4 5/5/5 2/6/6
f 3/7/7 5/8/8 1/9/9
f 7/10/10 9/11/10 8/12/10
f 6/13/11 9/14/11 7/15/11
f 8/16/12 9/17/12 6/18/12
f 3/19/7 1/20/9 8/21/13
f 11/22/14 3/23/15 6/24/16
f 8/25/17 6/26/17 3/27/17
f 2/28/1 3/29/3 11/30/18
f 11/31/14 6/32/16 12/33/19
f 12/34/20 6/35/20 7/36/20
f 2/37/21 11/38/21 10/39/21
f 1/40/22 2/41/23 4/42/24
f 12/43/25 7/44/25 8/45/25
f 12/46/26 8/47/13 1/48/9
f 2/49/27 10/50/27 4/51/27
f 1/52/28 4/53/29 13/54/30
f 12/55/31 1/56/28 13/57/30
f 10/58/32 11/59/32 14/60/32
f 13/61/33 4/62/34 15/63/35
f 14/64/36 11/65/36 16/66/36
f 10/67/37 14/68/37 15/69/37
f 11/70/38 12/71/38 16/72/38
f 12/73/39 13/74/39 17/75/39
f 12/76/40 17/77/40 18/78/40
f 17/79/41 13/80/41 18/81/41
f 12/82/42 18/83/42 19/84/42
f 16/85/43 12/86/43 19/87/43
f 14/54/44 16/52/44 15/88/44
f 16/89/45 19/90/45 15/91/45
f 15/92/46 4/93/46 10/94/46
f 13/95/33 15/96/35 18/97/47
f 19/98/48 18/99/48 20/100/48
f 15/101/49 19/102/49 20/103/49
f 18/104/50 15/105/50 20/106/50
