# Blender 5.0.0
# www.blender.org
mtllib Crystalis_Skeleton_Animation_1.mtl
o Skeleton_Animation_Test.003
v -0.069692 1.094544 0.202793
v 0.185342 1.184710 0.017822
v -0.028298 1.003840 -0.294021
v -0.033611 1.659053 0.092702
v 0.273616 -0.041229 -0.073001
v -0.226946 1.179899 -0.183005
v -0.538829 1.183899 0.039455
v -0.364541 1.018057 0.265008
v -0.516347 -0.040895 0.023223
v 0.197894 1.711540 0.221832
v -0.085590 1.828747 -0.045567
v -0.578346 2.152219 -0.014412
v -0.495921 1.977437 0.414786
v 0.535663 1.041402 -0.129004
v 0.128509 2.354469 0.395556
v 0.189892 2.073968 -0.089422
v -0.908169 0.938325 -0.093028
v -0.585298 2.511639 0.282353
v -0.174121 2.129755 0.205041
v -0.259960 2.889302 -0.299469
vn 0.7559 0.1882 -0.6270
vn 0.7922 0.1016 -0.6017
vn 0.7718 0.1526 -0.6173
vn 0.5973 -0.0152 0.8019
vn 0.5974 -0.0165 0.8018
vn 0.5973 -0.0160 0.8018
vn -0.2616 -0.9342 0.2425
vn -0.9594 -0.2816 -0.0174
vn 0.0228 0.3390 0.9405
vn -0.7991 -0.0226 0.6008
vn -0.5807 0.0001 -0.8141
vn 0.9558 -0.1885 0.2255
vn 0.0388 -0.9367 0.3480
vn 0.0236 0.2004 -0.9794
vn -0.2870 0.2579 -0.9226
vn -0.2203 0.2494 -0.9430
vn -0.7220 -0.5496 -0.4203
vn 0.7285 0.2435 -0.6403
vn 0.0649 0.1932 -0.9790
vn -0.5799 -0.0688 -0.8118
vn 0.7167 0.2369 -0.6559
vn 0.5580 0.1319 0.8193
vn 0.5593 0.1301 0.8187
vn 0.5593 0.1300 0.8187
vn -0.7906 0.0018 0.6123
vn 0.2390 0.2797 0.9299
vn -0.4045 -0.3219 0.8560
vn -0.7089 -0.1950 0.6779
vn 0.6224 0.1195 0.7735
vn -0.1170 -0.3377 0.9340
vn -0.9200 -0.3914 0.0188
vn -0.6730 -0.5797 0.4594
vn 0.1014 -0.1182 0.9878
vn 0.2908 -0.4382 0.8505
vn 0.1133 -0.1385 0.9839
vn -0.1473 -0.0114 -0.9890
vn 0.5312 -0.1671 0.8306
vn -0.1032 -0.0616 -0.9928
vn 0.9322 -0.2355 -0.2749
vn -0.9001 0.2669 -0.3443
vn -0.7938 0.0179 0.6079
vn 0.4119 0.5849 -0.6988
vn 0.0941 0.9930 -0.0717
vn 0.9455 0.3191 -0.0649
vn -0.2852 0.8136 -0.5067
vn -0.4189 -0.2787 0.8642
vn -0.1047 0.2228 0.9692
vn -0.5811 -0.4948 -0.6461
vn 0.6725 -0.3552 -0.6493
vn 0.0875 0.8125 0.5763
vt 0.000056 0.973192
vt 0.313458 0.000056
vt 0.313458 0.999944
vt 0.000060 0.956843
vt 0.359446 0.000060
vt 0.359446 0.999940
vt 0.000060 0.999940
vt 0.052054 0.000060
vt 0.360699 0.999940
vt 0.000057 0.962404
vt 0.323594 0.000057
vt 0.323594 0.999943
vt 0.000046 0.999954
vt 0.000046 0.000046
vt 0.214616 0.849387
vt 0.000052 0.820909
vt 0.265580 0.000052
vt 0.265580 0.999948
vt 0.000066 0.000066
vt 0.436294 0.729113
vt 0.000066 0.999934
vt 0.567514 0.999925
vt 0.000075 0.157312
vt 0.567514 0.000075
vt 0.658684 0.999919
vt 0.000081 0.486796
vt 0.658684 0.000081
vt 0.000071 0.000071
vt 0.508411 0.136289
vt 0.000071 0.999929
vt 0.000091 0.999909
vt 0.157420 0.000091
vt 0.833260 0.999909
vt 0.314859 0.999944
vt 0.000056 0.179294
vt 0.314859 0.000056
vt 0.425774 0.000065
vt 0.425774 0.999935
vt 0.000065 0.653910
vt 0.000086 0.447754
vt 0.733537 0.000086
vt 0.733537 0.999914
vt 0.285537 0.999947
vt 0.000053 0.179753
vt 0.285537 0.000053
vt 0.000048 0.999952
vt 0.000048 0.000048
vt 0.228123 0.062164
vt 0.505367 0.000071
vt 0.505367 0.999929
vt 0.000071 0.772899
vt 0.000051 0.000051
vt 0.259393 0.472928
vt 0.000051 0.999949
vt 0.000052 0.999948
vt 0.000052 0.000052
vt 0.275128 0.769477
vt 0.247171 0.741614
vt 0.000050 0.999950
vt 0.000050 0.000050
vt 0.000088 0.000088
vt 0.779626 0.379419
vt 0.000088 0.999912
vt 0.000056 0.000056
vt 0.315934 0.831222
vt 0.000056 0.999944
vt 0.000049 0.735639
vt 0.244145 0.000049
vt 0.244145 0.999951
vt 0.755865 0.000087
vt 0.755865 0.999913
vt 0.000087 0.088801
vt 0.336202 0.958399
vt 0.000058 0.999942
vt 0.000058 0.000058
vt 0.000052 0.738601
vt 0.271935 0.000052
vt 0.271935 0.999948
vt 0.000047 0.000047
vt 0.218122 0.743572
vt 0.000047 0.999953
vt 0.000083 0.000083
vt 0.687338 0.494446
vt 0.000083 0.999917
vt 0.741153 0.000086
vt 0.741153 0.999914
vt 0.000086 0.418785
vt 0.261963 0.142274
vt 0.345253 0.326865
vt 0.000059 0.999941
vt 0.000059 0.000059
vt 0.000057 0.999943
vt 0.000057 0.000057
vt 0.322888 0.410187
vt 0.000090 0.999910
vt 0.000090 0.000090
vt 0.808379 0.843371
vt 0.000066 0.636525
vt 0.441199 0.000066
vt 0.441199 0.999934
vt 0.000063 0.000063
vt 0.399711 0.773945
vt 0.000063 0.999937
vt 0.000100 0.000100
vt 0.994033 0.000100
vt 0.208613 0.999900
s 1
usemtl Material.007
f 2/1/1 5/2/2 3/3/3
f 1/4/4 5/5/5 2/6/6
f 3/7/7 5/8/8 1/9/9
f 7/10/10 9/11/10 8/12/10
f 6/13/11 9/14/11 7/15/11
f 8/16/12 9/17/12 6/18/12
f 3/19/7 1/20/9 8/21/13
f 11/22/14 3/23/15 6/24/16
f 8/25/17 6/26/17 3/27/17
f 2/28/1 3/29/3 11/30/18
f 11/31/14 6/32/16 12/33/19
f 12/34/20 6/35/20 7/36/20
f 2/37/21 11/38/21 10/39/21
f 1/40/22 2/41/23 4/42/24
f 12/43/25 7/44/25 8/45/25
f 12/46/26 8/47/13 1/48/9
f 2/49/27 10/50/27 4/51/27
f 1/52/28 4/53/29 13/54/30
f 12/55/31 1/56/28 13/57/30
f 10/58/32 11/59/32 14/60/32
f 13/61/33 4/62/34 15/63/35
f 14/64/36 11/65/36 16/66/36
f 10/67/37 14/68/37 15/69/37
f 11/70/38 12/71/38 16/72/38
f 12/73/39 13/74/39 17/75/39
f 12/76/40 17/77/40 18/78/40
f 17/79/41 13/80/41 18/81/41
f 12/82/42 18/83/42 19/84/42
f 16/85/43 12/86/43 19/87/43
f 14/54/44 16/52/44 15/88/44
f 16/89/45 19/90/45 15/91/45
f 15/92/46 4/93/46 10/94/46
f 13/95/33 15/96/35 18/97/47
f 19/98/48 18/99/48 20/100/48
f 15/101/49 19/102/49 20/103/49
f 18/104/50 15/105/50 20/106/50
