# Blender 5.0.1
# www.blender.org
mtllib Shard_Drop__Collider__0.mtl
o Плоскость
v -0.185463 -0.201091 0.059905
v 0.148831 -0.095734 -0.034960
v -0.145782 0.019475 -0.268696
v -0.109851 0.440790 0.242268
v -0.035990 -0.273330 -0.160230
vn 0.6037 -0.0679 -0.7943
vn 0.6349 0.5736 -0.5176
vn 0.3455 -0.2939 0.8912
vn -0.9913 0.1266 -0.0347
vn 0.3871 -0.7654 0.5140
vn -0.8012 -0.4476 -0.3972
vt 0.000000 1.000000
vt 1.000000 0.000000
vt 0.000000 0.000000
s 0
f 3/1/1 2/2/1 5/1/1
f 2/2/2 3/1/2 4/2/2
f 1/3/3 2/2/3 4/3/3
f 3/1/4 1/3/4 4/1/4
f 2/2/5 1/3/5 5/2/5
f 1/3/6 3/1/6 5/3/6
