# Blender 5.0.1
# www.blender.org
mtllib Shard_Drop__0.mtl
o Плоскость.001
v -0.185463 -0.201091 0.059905
v 0.148831 -0.095734 -0.034960
v -0.145782 0.019475 -0.268696
v -0.109851 0.440790 0.242268
v -0.023632 -0.162937 -0.156265
v -0.108813 -0.179622 -0.154729
v -0.026324 -0.206389 -0.090953
v -0.072512 0.019261 0.013489
v -0.054677 0.113978 0.028459
v -0.155808 0.192404 0.101306
vn 0.6349 0.5736 -0.5176
vn 0.3455 -0.2939 0.8912
vn -0.9945 0.0818 -0.0652
vn 0.5966 -0.0919 -0.7973
vn -0.8671 -0.3588 -0.3455
vn 0.3801 -0.8191 0.4297
vn -0.8680 -0.4426 0.2251
vn 0.9673 0.0359 -0.2511
vn -0.2114 -0.6960 0.6862
vn 0.0219 0.4236 -0.9056
vn -0.6716 0.1936 -0.7152
vn 0.8780 -0.3923 0.2743
vn 0.5124 -0.1280 0.8491
vn -0.7639 0.2580 -0.5915
vn 0.3772 0.8429 -0.3837
vn -0.8378 -0.3908 0.3812
vt 0.000072 0.185271
vt 0.521798 0.000072
vt 0.521798 0.999928
vt 0.476137 0.999931
vt 0.000069 0.832313
vt 0.476137 0.000069
vt 0.772406 0.999912
vt 0.000088 0.497692
vt 0.772407 0.000088
vt 0.000055 0.999945
vt 0.000055 0.000054
vt 0.297909 0.461668
vt 0.000052 0.999948
vt 0.000052 0.000052
vt 0.272035 0.505027
vt 0.000055 0.999945
vt 0.000055 0.000055
vt 0.303061 0.507783
vt 0.000092 0.312450
vt 0.852368 0.000093
vt 0.852368 0.999908
vt 0.000080 0.410747
vt 0.632627 0.000080
vt 0.632627 0.999921
vt 0.727399 0.999915
vt 0.000085 0.621012
vt 0.727399 0.000085
vt 0.000084 0.355364
vt 0.713726 0.000084
vt 0.713726 0.999915
vt 0.000085 0.375168
vt 0.727682 0.000085
vt 0.727682 0.999914
vt 0.000084 0.420039
vt 0.706077 0.000084
vt 0.706077 0.999916
vt 0.000054 0.999946
vt 0.000054 0.000054
vt 0.291852 0.803837
vt 0.000046 0.999954
vt 0.000046 0.000046
vt 0.208777 0.542349
vt 0.000049 0.999951
vt 0.000049 0.000049
vt 0.241571 0.248844
vt 0.000044 0.999956
vt 0.000044 0.000044
vt 0.193307 0.443136
s 0
usemtl Материал
f 2/1/1 3/2/1 4/3/1
f 1/4/2 2/5/2 4/6/2
f 3/7/3 1/8/3 10/9/3
f 3/10/4 2/11/4 5/12/4
f 1/13/5 3/14/5 6/15/5
f 2/16/6 1/17/6 7/18/6
f 3/19/7 5/20/7 8/21/7
f 6/22/8 3/23/8 8/24/8
f 5/25/9 2/26/9 8/27/9
f 2/28/10 7/29/10 8/30/10
f 7/31/11 1/32/11 8/33/11
f 1/34/12 6/35/12 8/36/12
f 10/37/13 1/38/13 9/39/13
f 1/40/14 4/41/14 9/42/14
f 3/43/15 10/44/15 9/45/15
f 4/46/16 3/47/16 9/48/16
